<svg xmlns="http://www.w3.org/2000/svg" width="152" height="41" viewBox="0 0 152 41" fill="none"><g clip-path="url(#clip0_2027_137)"><mask id="mask0_2027_137" style="mask-type:luminance" maskUnits="userSpaceOnUse" x="1" y="0" width="33" height="29"><path d="M4.73053 7.70428C2.04548 11.2563 1.14165 15.4724 2.25161 19.2616C2.83831 21.2537 4.83096 25.7175 11.2688 28.3683C9.33234 25.9131 8.40289 22.8165 8.66826 19.7043V19.6358C8.93783 18.0547 10.7508 10.0653 20.0798 9.59097H20.1168C22.7763 9.57924 25.3564 10.4945 27.4108 12.1786L33.7799 5.82813C30.0296 2.46491 25.1608 0.609444 20.1168 0.621272C13.3565 0.621272 8.3247 2.93484 4.72525 7.69901" fill="white"></path></mask><g mask="url(#mask0_2027_137)"><path d="M33.7852 0.626587H1.14166V28.3684H33.7852V0.626587Z" fill="url(#paint0_linear_2027_137)"></path></g><mask id="mask1_2027_137" style="mask-type:luminance" maskUnits="userSpaceOnUse" x="91" y="28" width="9" height="13"><path d="M94.3682 38.2233C94.3155 38.1998 94.2721 38.1597 94.2444 38.1093C94.2167 38.0589 94.2064 38.0008 94.2149 37.944L94.1673 30.6607C94.167 30.6106 94.1814 30.5615 94.2086 30.5194C94.2358 30.4773 94.2747 30.444 94.3206 30.4235C94.4198 30.3709 94.5306 30.3437 94.643 30.3445C95.098 30.3251 95.5497 30.4309 95.9485 30.6502C96.2895 30.8602 96.5685 31.1566 96.7572 31.5092C96.9673 31.9056 97.1068 32.3353 97.1695 32.7793C97.2467 33.3027 97.2838 33.8312 97.2805 34.3603C97.285 34.89 97.2425 35.4191 97.1536 35.9413C97.0817 36.3834 96.9333 36.8096 96.7149 37.2009C96.5216 37.548 96.2387 37.8372 95.8957 38.0388C95.5133 38.2507 95.0802 38.3546 94.643 38.3392C94.549 38.3382 94.4559 38.3203 94.3682 38.2865M92.1694 28.2733C92.0441 28.2719 91.9223 28.3148 91.8258 28.3946C91.7349 28.475 91.6596 28.5715 91.6038 28.6791C91.5454 28.7932 91.5062 28.9161 91.4875 29.0428C91.4679 29.1559 91.4573 29.2705 91.4558 29.3853L91.6619 39.5461C91.6648 39.7257 91.697 39.9037 91.7571 40.0731C91.7765 40.1543 91.8233 40.2264 91.8897 40.2773C91.9561 40.3281 92.0381 40.3547 92.1218 40.3524H93.8977C94.1197 40.3524 94.3681 40.3524 94.6377 40.3102C94.9111 40.2849 95.1828 40.2444 95.4517 40.189C95.7233 40.1408 95.9916 40.0757 96.2551 39.994C96.4918 39.9259 96.7191 39.8285 96.9316 39.7042C97.4422 39.414 97.9026 39.0439 98.2953 38.608C98.6326 38.2197 98.896 37.7732 99.0723 37.2905C99.2596 36.7616 99.3769 36.2106 99.4211 35.6515C99.474 35.0507 99.5004 34.3761 99.5004 33.6383C99.5152 32.8244 99.4282 32.0118 99.2414 31.2193C99.0927 30.6017 98.7972 30.0287 98.3799 29.5487C97.9499 29.0873 97.4016 28.7519 96.7942 28.579C96.0147 28.3457 95.2029 28.2372 94.3893 28.2575L92.1694 28.2733Z" fill="white"></path></mask><g mask="url(#mask1_2027_137)"><path d="M99.5004 28.1943H91.4505V40.2839H99.5004V28.1943Z" fill="url(#paint1_linear_2027_137)"></path></g><mask id="mask2_2027_137" style="mask-type:luminance" maskUnits="userSpaceOnUse" x="99" y="28" width="10" height="13"><path d="M100.277 38.1021C100.192 38.1025 100.11 38.1366 100.05 38.197C100.018 38.2233 99.9925 38.2574 99.9768 38.2961C99.9611 38.3348 99.9554 38.3769 99.9604 38.4183L100.071 39.8939C100.084 39.9483 100.109 39.9988 100.145 40.0415C100.16 40.0635 100.179 40.0817 100.202 40.0945C100.225 40.1074 100.251 40.1145 100.277 40.1153L108.407 40.0204C108.516 40.0266 108.626 40.0105 108.729 39.973C108.787 39.9522 108.837 39.9134 108.872 39.8623C108.899 39.8199 108.914 39.7705 108.914 39.72V39.5777L108.882 38.2444C108.882 38.1285 108.814 38.0599 108.676 38.0336C108.551 38.0077 108.424 37.9936 108.296 37.9914L100.277 38.1021ZM103.835 33.359C103.816 33.3578 103.798 33.3525 103.781 33.3434C103.765 33.3342 103.75 33.3216 103.74 33.3063C103.726 33.2831 103.719 33.2567 103.719 33.2299C103.719 33.2031 103.726 33.1767 103.74 33.1535L104.406 30.1179C104.437 29.9598 104.479 29.8808 104.532 29.8808C104.585 29.8808 104.617 29.9282 104.628 30.0231L105.531 33.1851C105.543 33.206 105.55 33.2296 105.55 33.2536C105.55 33.2777 105.543 33.3013 105.531 33.3221C105.505 33.359 105.478 33.3748 105.457 33.3748L103.835 33.359ZM103.153 28.2945C102.996 28.2884 102.839 28.3153 102.693 28.3735C102.562 28.4406 102.452 28.5428 102.376 28.6686C102.26 28.8555 102.171 29.0577 102.112 29.2694C102.032 29.5277 101.937 29.8597 101.837 30.2602L100.024 37.0797C100.024 37.1851 100.024 37.2484 100.024 37.2747C100.071 37.3088 100.13 37.3238 100.188 37.3169H102.238C102.308 37.3083 102.372 37.2746 102.418 37.222C102.485 37.1634 102.533 37.0864 102.556 37.0007L103.084 35.4196C103.126 35.2719 103.21 35.1399 103.327 35.0402C103.528 34.9465 103.751 34.9083 103.972 34.9295H105.589C105.703 34.9148 105.818 34.9369 105.917 34.9928C105.977 35.0599 106.017 35.1418 106.033 35.2299L106.525 37.0639C106.535 37.1113 106.562 37.1534 106.601 37.1825C106.64 37.2116 106.688 37.2256 106.736 37.222H108.592C108.677 37.2191 108.76 37.1956 108.835 37.1535C108.925 37.1008 108.962 37.0481 108.94 36.9849L106.921 28.8373C106.888 28.6738 106.807 28.5236 106.689 28.4051C106.495 28.3008 106.274 28.2568 106.055 28.2787L103.153 28.2945Z" fill="white"></path></mask><g mask="url(#mask2_2027_137)"><path d="M108.967 28.3049H99.9496V40.1099H108.967V28.3049Z" fill="url(#paint2_linear_2027_137)"></path></g><mask id="mask3_2027_137" style="mask-type:luminance" maskUnits="userSpaceOnUse" x="107" y="28" width="10" height="13"><path d="M114.231 28.305C114.084 28.2883 113.935 28.3217 113.809 28.3998C113.707 28.521 113.63 28.6606 113.581 28.8109L112.424 32.0098C112.376 32.1469 112.323 32.2154 112.244 32.2154C112.165 32.2154 112.149 32.1679 112.107 32.0731L111.028 28.8267C110.997 28.7282 110.959 28.6314 110.917 28.5369C110.893 28.4733 110.849 28.4195 110.79 28.384C110.731 28.3493 110.664 28.3294 110.595 28.3261C110.481 28.3159 110.366 28.3159 110.251 28.3261H108.238C108.068 28.3261 107.984 28.4315 107.984 28.6423C107.977 28.7194 107.977 28.797 107.984 28.8741C108.004 28.9755 108.04 29.0733 108.09 29.164L110.42 34.7556C110.517 34.9646 110.59 35.1838 110.637 35.4091C110.66 35.5432 110.672 35.6788 110.674 35.8149L110.785 39.72C110.785 39.7516 110.785 39.8043 110.785 39.8728C110.79 39.9425 110.802 40.0114 110.822 40.0784C110.845 40.1487 110.883 40.2133 110.933 40.2681C110.965 40.2982 111.002 40.3212 111.043 40.3358C111.084 40.3503 111.128 40.356 111.171 40.3524H112.794C112.894 40.3524 112.973 40.2839 113.021 40.1416C113.066 40.0154 113.096 39.8846 113.111 39.7516L113.269 35.72C113.282 35.5426 113.309 35.3664 113.349 35.193C113.414 34.9372 113.505 34.6884 113.618 34.4499L116.06 28.7793C116.085 28.7293 116.098 28.6743 116.098 28.6185C116.098 28.5628 116.085 28.5078 116.06 28.4578C116.034 28.4121 115.995 28.3748 115.948 28.3505C115.901 28.3262 115.848 28.3159 115.796 28.3208L114.231 28.305Z" fill="white"></path></mask><g mask="url(#mask3_2027_137)"><path d="M116.129 28.3049H107.963V40.3313H116.129V28.3049Z" fill="url(#paint3_linear_2027_137)"></path></g><mask id="mask4_2027_137" style="mask-type:luminance" maskUnits="userSpaceOnUse" x="115" y="28" width="10" height="13"><path d="M118.28 28.3788C117.807 28.5428 117.371 28.801 117.001 29.1377C116.663 29.4511 116.398 29.8342 116.224 30.2602C116.047 30.6955 115.957 31.1609 115.96 31.6305C115.938 32.1544 116.077 32.6725 116.356 33.1166C116.619 33.5067 116.955 33.843 117.345 34.1074C117.747 34.3837 118.177 34.6169 118.629 34.8031C119.094 34.9981 119.522 35.2036 119.913 35.4144C120.277 35.6046 120.608 35.85 120.896 36.1417C121.162 36.4276 121.304 36.8061 121.293 37.1957C121.303 37.5612 121.185 37.9188 120.96 38.2076C120.813 38.3631 120.632 38.4826 120.431 38.5567C120.231 38.6307 120.015 38.6574 119.802 38.6344C119.571 38.6325 119.346 38.5548 119.163 38.4131C118.96 38.2658 118.782 38.088 118.634 37.8861C118.475 37.6735 118.346 37.4393 118.254 37.1904C118.166 36.9741 118.118 36.7438 118.111 36.5106C118.111 36.1733 117.984 36.0099 117.746 36.0205L116.282 36.1311C116.222 36.1314 116.163 36.1483 116.111 36.1799C116.06 36.2116 116.019 36.2567 115.991 36.3103C115.92 36.4947 115.889 36.6926 115.902 36.89C115.896 37.3774 115.988 37.8611 116.171 38.3129C116.351 38.7429 116.623 39.128 116.969 39.4408C117.344 39.7687 117.78 40.0178 118.254 40.1733C118.811 40.3562 119.395 40.4452 119.982 40.4368C120.593 40.4475 121.202 40.3585 121.784 40.1733C122.256 40.0243 122.691 39.7804 123.063 39.4566C123.394 39.1571 123.651 38.7856 123.814 38.3709C123.982 37.9338 124.067 37.4689 124.062 37.0007C124.086 36.4473 123.951 35.8986 123.671 35.4197C123.42 35.0216 123.091 34.6776 122.704 34.4078C122.313 34.1378 121.893 33.9115 121.451 33.7332C121 33.5541 120.583 33.3696 120.199 33.1799C119.839 33.0124 119.511 32.7862 119.226 32.5106C119.097 32.3777 118.996 32.2199 118.929 32.0469C118.863 31.8738 118.833 31.6891 118.84 31.504C118.839 31.3101 118.851 31.1164 118.877 30.9243C118.901 30.7491 118.964 30.5815 119.062 30.4342C119.167 30.2846 119.309 30.1647 119.475 30.0863C119.705 29.9878 119.954 29.9427 120.204 29.9546C120.452 29.9413 120.7 29.9864 120.928 30.0863C121.091 30.1665 121.229 30.2906 121.325 30.4447C121.42 30.606 121.479 30.7857 121.499 30.9717C121.524 31.1604 121.537 31.3505 121.536 31.5409C121.526 31.75 121.587 31.9563 121.71 32.1259C121.772 32.2038 121.854 32.263 121.947 32.2965C122.041 32.3301 122.142 32.3367 122.239 32.3156L123.381 32.2207C123.698 32.1891 123.856 31.8887 123.856 31.3195C123.86 30.888 123.785 30.4594 123.634 30.0547C123.488 29.6653 123.253 29.3152 122.947 29.0323C122.611 28.7254 122.213 28.4936 121.779 28.3525C121.229 28.1778 120.654 28.0941 120.077 28.1048C119.479 28.0946 118.883 28.1891 118.317 28.3841" fill="white"></path></mask><g mask="url(#mask4_2027_137)"><path d="M124.041 28.0995H115.88V40.4421H124.041V28.0995Z" fill="url(#paint4_linear_2027_137)"></path></g><path d="M96.5881 11.2879C95.9596 11.705 95.2283 11.942 94.4739 11.973C93.7321 11.9813 93.0152 11.7059 92.4707 11.2036C91.8615 10.6341 91.4286 9.90258 91.2233 9.09552C90.9579 8.15767 90.8262 7.18724 90.8322 6.21278C90.7669 4.77109 91.1172 3.34092 91.8417 2.09158C92.1113 1.60747 92.507 1.20498 92.9871 0.926671C93.4672 0.648366 94.0138 0.504594 94.5691 0.510554C95.291 0.530943 95.9904 0.765836 96.5776 1.18513V2.47629C96.0691 1.91754 95.3699 1.56801 94.6166 1.49606C94.2044 1.50528 93.8032 1.63103 93.4598 1.85867C93.1164 2.08631 92.8449 2.40649 92.6768 2.78196C92.1363 3.91704 91.8892 5.16894 91.958 6.4236C91.9182 7.55444 92.1559 8.67786 92.6504 9.69632C92.8071 10.0712 93.069 10.393 93.4047 10.6229C93.7403 10.8529 94.1355 10.9814 94.5426 10.9928C95.3216 10.9207 96.0464 10.5641 96.5776 9.99145L96.5881 11.2879Z" fill="#686B6A"></path><path d="M101.514 7.87811C100.203 8.03621 99.4001 8.26283 99.0248 8.55268C98.8569 8.68385 98.7218 8.85207 98.63 9.0441C98.5383 9.23613 98.4925 9.44675 98.4962 9.6594C98.4902 9.8431 98.5207 10.0262 98.586 10.198C98.6514 10.3699 98.7502 10.5272 98.8768 10.6607C99.0018 10.7897 99.1523 10.8915 99.3188 10.9595C99.4853 11.0276 99.6642 11.0604 99.8441 11.056C100.077 11.0575 100.307 11.0033 100.515 10.8978C100.723 10.7924 100.903 10.6388 101.039 10.4499C101.371 9.99158 101.537 9.4339 101.509 8.86889L101.514 7.87811ZM98.0364 4.71606C98.6543 4.3214 99.3608 4.08598 100.092 4.03095C100.427 4.008 100.762 4.05786 101.075 4.17708C101.388 4.2963 101.672 4.48201 101.905 4.72133C102.337 5.25097 102.555 5.92151 102.519 6.60276V10.6344C102.519 10.9242 102.661 11.0718 102.936 11.0718C103.089 11.0687 103.238 11.027 103.37 10.9506V11.8096C103.125 11.9267 102.858 11.9879 102.587 11.9888C101.89 11.9888 101.53 11.583 101.53 10.7661C101.31 11.1316 101.012 11.4446 100.658 11.6831C100.343 11.886 99.9757 11.9923 99.6009 11.9888C99.3134 11.9943 99.028 11.9377 98.7644 11.8231C98.5008 11.7085 98.2651 11.5385 98.0734 11.3248C97.6635 10.8869 97.4432 10.3056 97.4603 9.70683C97.4521 9.38219 97.5177 9.05992 97.6523 8.76419C97.7868 8.46846 97.9868 8.20697 98.2372 7.99933C98.7658 7.55664 99.8229 7.25098 101.525 7.09287V6.43939C101.53 6.2447 101.496 6.05096 101.424 5.86982C101.352 5.68868 101.245 5.5239 101.107 5.38537C100.969 5.24695 100.804 5.1385 100.622 5.06684C100.441 4.99519 100.246 4.96188 100.05 4.96903C99.2998 5.03637 98.5924 5.34741 98.0364 5.8544V4.71606Z" fill="#686B6A"></path><path d="M105.537 5.32735C105.73 4.94813 106.005 4.61545 106.34 4.35238C106.618 4.14197 106.958 4.02897 107.307 4.03091C107.581 4.03295 107.851 4.09219 108.1 4.20481V5.14289C107.852 5.0397 107.587 4.98084 107.318 4.96898C107.064 4.97148 106.815 5.03743 106.593 5.16081C106.372 5.28419 106.185 5.46104 106.049 5.67517C105.701 6.14677 105.516 6.71812 105.521 7.30363V11.7938H104.538V4.20481H105.431L105.537 5.32735Z" fill="#686B6A"></path><path d="M110.077 4.20483H109.073V11.7938H110.077V4.20483Z" fill="#686B6A"></path><path d="M112.804 10.1864C113 10.442 113.24 10.6614 113.512 10.8346C113.735 10.9768 113.993 11.0535 114.258 11.0559C114.559 11.0531 114.855 10.9719 115.115 10.8203C115.376 10.6688 115.592 10.4521 115.743 10.1916C116.156 9.51561 116.356 8.73193 116.319 7.94132C116.342 7.20672 116.168 6.47928 115.817 5.83329C115.699 5.57699 115.511 5.35901 115.274 5.20429C115.038 5.04958 114.762 4.96438 114.48 4.95845C114.232 4.95983 113.988 5.02693 113.775 5.15286C113.561 5.27879 113.385 5.45904 113.264 5.67517C112.95 6.1772 112.79 6.75969 112.804 7.35106V10.1864ZM112.804 0.515747V5.29573C113.017 4.92133 113.309 4.59765 113.66 4.34712C113.96 4.13982 114.316 4.02942 114.681 4.03091C115.077 4.0319 115.466 4.13719 115.808 4.33615C116.151 4.5351 116.435 4.82066 116.631 5.16397C117.146 5.98576 117.405 6.94115 117.376 7.90969C117.414 8.94228 117.12 9.95989 116.536 10.8135C116.317 11.1624 116.015 11.4512 115.656 11.6537C115.296 11.8562 114.892 11.966 114.48 11.9729C114.203 11.9784 113.929 11.9169 113.682 11.7938C113.365 11.6079 113.071 11.3869 112.804 11.135L112.54 11.7938H111.8V0.515747H112.804Z" fill="#686B6A"></path><path d="M119.956 10.1864C120.152 10.442 120.392 10.6614 120.664 10.8346C120.886 10.9776 121.145 11.0543 121.409 11.0559C121.711 11.0531 122.006 10.9719 122.267 10.8203C122.527 10.6688 122.744 10.4521 122.894 10.1916C123.307 9.51561 123.508 8.73193 123.47 7.94132C123.485 7.20432 123.303 6.47674 122.942 5.83329C122.823 5.57737 122.635 5.35972 122.399 5.20508C122.162 5.05044 121.887 4.965 121.605 4.95845C121.356 4.95929 121.113 5.02615 120.899 5.15214C120.685 5.27813 120.509 5.45868 120.389 5.67517C120.075 6.1772 119.915 6.75969 119.929 7.35106L119.956 10.1864ZM119.956 0.515747V5.29573C120.167 4.92022 120.46 4.59623 120.812 4.34712C121.111 4.13982 121.467 4.02942 121.832 4.03091C122.228 4.0319 122.617 4.13719 122.96 4.33615C123.302 4.5351 123.586 4.82066 123.782 5.16397C124.297 5.98576 124.557 6.94115 124.528 7.90969C124.566 8.94228 124.271 9.95989 123.687 10.8135C123.469 11.1624 123.166 11.4512 122.807 11.6537C122.448 11.8562 122.044 11.966 121.631 11.9729C121.353 11.9778 121.077 11.9164 120.828 11.7938C120.514 11.6063 120.222 11.3854 119.956 11.135L119.691 11.7938H118.957V0.515747H119.956Z" fill="#686B6A"></path><path d="M130.141 6.83468C130.163 6.31803 129.989 5.812 129.654 5.41702C129.522 5.2688 129.359 5.15037 129.176 5.06952C128.994 4.98867 128.797 4.94724 128.597 4.94798C128.169 4.9529 127.759 5.12068 127.45 5.41702C127.061 5.80205 126.799 6.29678 126.7 6.83468H130.141ZM130.976 10.998C130.318 11.585 129.479 11.9292 128.597 11.973C128.17 11.9822 127.746 11.8877 127.363 11.6977C126.98 11.5077 126.649 11.2278 126.399 10.8821C125.807 10.06 125.511 9.06284 125.558 8.05207C125.51 7.01105 125.816 5.98429 126.425 5.13771C126.674 4.79049 127.004 4.50819 127.386 4.31464C127.767 4.1211 128.19 4.022 128.619 4.02571C128.982 4.01465 129.342 4.09075 129.67 4.24758C129.997 4.40441 130.282 4.63739 130.5 4.92691C130.994 5.57706 131.246 6.37805 131.214 7.19304V7.68316H126.594V8.07315C126.536 8.8684 126.755 9.65926 127.213 10.3129C127.379 10.5433 127.597 10.7318 127.849 10.8635C128.102 10.9952 128.381 11.0665 128.666 11.0718C129.431 11.0718 130.201 10.6485 130.976 9.80174V10.998Z" fill="#686B6A"></path><path d="M136.288 7.87811C134.977 8.03622 134.147 8.26283 133.798 8.55269C133.631 8.68385 133.495 8.85207 133.404 9.0441C133.312 9.23613 133.266 9.44675 133.27 9.65941C133.264 9.8431 133.294 10.0262 133.36 10.198C133.425 10.3699 133.524 10.5272 133.65 10.6607C133.775 10.7903 133.926 10.8924 134.092 10.9604C134.259 11.0285 134.438 11.0611 134.618 11.056C134.851 11.0575 135.081 11.0033 135.289 10.8978C135.497 10.7924 135.676 10.6388 135.812 10.4499C136.145 9.99158 136.311 9.43391 136.283 8.86889L136.288 7.87811ZM132.81 4.71606C133.428 4.3208 134.134 4.08533 134.866 4.03095C135.2 4.008 135.536 4.05786 135.849 4.17708C136.162 4.2963 136.445 4.48201 136.679 4.72133C137.108 5.25218 137.326 5.92184 137.292 6.60276V10.6344C137.292 10.9242 137.43 11.0718 137.71 11.0718C137.862 11.068 138.011 11.0264 138.143 10.9506V11.8096C137.897 11.9273 137.628 11.9885 137.356 11.9888C136.663 11.9888 136.299 11.583 136.299 10.7661C136.077 11.1304 135.779 11.4431 135.426 11.6831C135.112 11.886 134.744 11.9923 134.369 11.9888C134.082 11.9946 133.796 11.9383 133.533 11.8236C133.269 11.709 133.033 11.5388 132.842 11.3248C132.43 10.8877 132.208 10.3063 132.223 9.70684C132.218 9.38751 132.284 9.07102 132.417 8.78028C132.549 8.48953 132.745 8.23178 132.99 8.02568C133.518 7.58299 134.575 7.27732 136.277 7.11922V6.46573C136.282 6.27071 136.246 6.07685 136.174 5.89573C136.101 5.71462 135.993 5.54998 135.855 5.41171C135.717 5.27278 135.552 5.16398 135.37 5.09229C135.188 5.02059 134.993 4.98758 134.797 4.99537C134.047 5.06079 133.338 5.3721 132.784 5.88076L132.81 4.71606Z" fill="#686B6A"></path><path d="M139.237 4.20489H140.146L140.242 5.29053C140.466 4.90977 140.775 4.5853 141.145 4.34192C141.482 4.13585 141.871 4.02813 142.266 4.03098C142.552 4.01603 142.838 4.06723 143.101 4.18059C143.364 4.29394 143.598 4.46639 143.783 4.68447C144.161 5.18476 144.349 5.80323 144.311 6.42887V11.7938H143.307V6.41833C143.322 6.0365 143.198 5.66207 142.958 5.36431C142.845 5.23527 142.704 5.13291 142.545 5.06457C142.387 4.99624 142.216 4.96362 142.044 4.96906C141.792 4.97022 141.545 5.03104 141.321 5.1465C141.098 5.26196 140.905 5.42876 140.759 5.63309C140.409 6.06715 140.222 6.60966 140.231 7.16669V11.7991H139.227L139.237 4.20489Z" fill="#686B6A"></path><path d="M110.109 1.44336H108.999V2.55008H110.109V1.44336Z" fill="#686B6A"></path><path d="M93.4644 13.7015H91.4506V24.4841H93.4644V13.7015Z" fill="#686B6A"></path><path d="M100.949 24.479H98.9931V19.8571C98.9931 19.1509 98.7499 18.8031 98.269 18.8031C98.109 18.8027 97.9515 18.8426 97.811 18.9191C97.6706 18.9956 97.5518 19.1061 97.4656 19.2405C97.2441 19.5682 97.133 19.9576 97.1484 20.3525V24.4842H95.1981V17.1061H96.9952L97.1484 17.8492C97.3607 17.6013 97.6041 17.3817 97.8725 17.1957C98.1909 17.0052 98.5589 16.9135 98.9297 16.9322C99.2121 16.9194 99.4935 16.9728 99.7515 17.0881C100.009 17.2034 100.237 17.3774 100.415 17.5962C100.785 18.0866 100.972 18.6905 100.943 19.3037L100.949 24.479Z" fill="#686B6A"></path><path d="M108.216 24.4789H106.271V19.857C106.271 19.1543 106.028 18.803 105.542 18.803C105.382 18.8032 105.225 18.8433 105.084 18.9197C104.944 18.9961 104.825 19.1064 104.739 19.2404C104.521 19.5698 104.412 19.9585 104.427 20.3524V24.4842H102.471V17.106H104.268L104.427 17.8491C104.638 17.6 104.881 17.3803 105.151 17.1956C105.556 16.9685 106.027 16.8845 106.486 16.9572C106.946 17.0299 107.367 17.255 107.683 17.5962C108.053 18.0866 108.24 18.6905 108.211 19.3037L108.216 24.4789Z" fill="#686B6A"></path><path d="M113.993 20.6792C114.005 20.1917 113.893 19.7093 113.666 19.2773C113.589 19.1033 113.463 18.9551 113.304 18.8504C113.144 18.7458 112.958 18.689 112.767 18.6871C112.606 18.6792 112.445 18.7083 112.296 18.7723C112.148 18.8362 112.016 18.9333 111.911 19.056C111.707 19.3028 111.567 19.5961 111.504 19.9097C111.438 20.211 111.405 20.5184 111.404 20.8267C111.395 21.3267 111.505 21.8216 111.726 22.2707C111.8 22.4604 111.931 22.6232 112.099 22.7379C112.268 22.8527 112.468 22.9139 112.672 22.9137C112.889 22.9155 113.101 22.8507 113.28 22.7281C113.459 22.6056 113.595 22.4312 113.671 22.2286C113.894 21.7318 114.002 21.1916 113.988 20.6475M115.97 20.7477C115.988 21.4537 115.845 22.1545 115.553 22.7977C115.297 23.3501 114.888 23.8181 114.374 24.1469C113.855 24.4703 113.253 24.6368 112.64 24.6265C112.023 24.6417 111.416 24.4729 110.896 24.1416C110.404 23.8091 110.02 23.3401 109.791 22.7925C109.531 22.1739 109.403 21.5079 109.416 20.8373C109.422 20.2151 109.528 19.5978 109.728 19.0085C109.937 18.3584 110.365 17.8 110.938 17.4275C111.232 17.2258 111.563 17.0827 111.911 17.0059C112.17 16.948 112.433 16.9144 112.699 16.9058C113.277 16.8986 113.847 17.0479 114.348 17.3379C114.862 17.649 115.273 18.1034 115.532 18.6449C115.841 19.3036 115.992 20.0257 115.97 20.7529" fill="#686B6A"></path><path d="M122.662 17.1218L120.516 24.4789H118.55L116.457 17.1218H118.55L119.57 22.0441H119.602L120.616 17.1218H122.662Z" fill="#686B6A"></path><path d="M127.133 22.0757V21.0217C126.679 21.075 126.236 21.1958 125.817 21.3801C125.668 21.4548 125.544 21.5727 125.463 21.7184C125.382 21.8642 125.347 22.031 125.363 22.197C125.357 22.3166 125.376 22.436 125.418 22.5482C125.46 22.6605 125.524 22.7632 125.606 22.8504C125.684 22.9306 125.778 22.994 125.881 23.0366C125.985 23.0792 126.096 23.1001 126.208 23.0981C126.34 23.0975 126.47 23.0662 126.587 23.0068C126.705 22.9473 126.807 22.8613 126.885 22.7556C127.065 22.5668 127.164 22.3152 127.16 22.0547M129.612 24.4578H127.498C127.382 24.2519 127.303 24.0271 127.265 23.7938C127.083 24.0537 126.84 24.2659 126.557 24.4127C126.275 24.5594 125.961 24.6364 125.643 24.637C125.237 24.6401 124.839 24.5267 124.496 24.3103C124.159 24.0957 123.885 23.7956 123.703 23.4407C123.513 23.0742 123.415 22.6673 123.418 22.2549C123.41 21.7692 123.565 21.2948 123.856 20.9058C124.169 20.4966 124.598 20.1916 125.088 20.0309C125.375 19.9217 125.673 19.8405 125.976 19.7885C126.341 19.72 126.737 19.6515 127.176 19.583C127.144 19.4394 127.102 19.2984 127.049 19.1614C126.977 19.0101 126.866 18.8808 126.726 18.7872C126.53 18.6519 126.293 18.5869 126.055 18.6027C125.721 18.5984 125.391 18.6686 125.088 18.8083C124.767 18.962 124.458 19.1381 124.163 19.3353V17.5329C124.837 17.1679 125.589 16.9708 126.356 16.9585C126.866 16.945 127.37 17.0573 127.826 17.2852C128.227 17.487 128.559 17.8047 128.777 18.197C128.997 18.603 129.108 19.0585 129.1 19.5197V22.0389C129.095 22.4958 129.128 22.9524 129.2 23.4038C129.264 23.7869 129.399 24.1549 129.596 24.4894" fill="#686B6A"></path><path d="M134.063 24.4052C133.659 24.565 133.229 24.6507 132.794 24.6581C132.432 24.6698 132.071 24.6033 131.737 24.4631C131.454 24.3374 131.225 24.1176 131.087 23.8413C130.934 23.5113 130.86 23.1506 130.87 22.7873V18.6397H129.903V17.1377H130.987L131.219 14.9664H132.805V17.1377H134.057V18.6397H132.805V22.0916C132.783 22.3062 132.836 22.5217 132.953 22.7029C133.015 22.7673 133.091 22.8168 133.175 22.8479C133.26 22.8789 133.35 22.8906 133.439 22.8821C133.654 22.8765 133.865 22.8244 134.057 22.7293L134.063 24.4052Z" fill="#686B6A"></path><path d="M137.081 17.1218H135.136V24.4789H137.081V17.1218Z" fill="#686B6A"></path><path d="M142.932 20.6792C142.944 20.1918 142.831 19.7093 142.604 19.2774C142.527 19.1033 142.401 18.9552 142.242 18.8505C142.083 18.7458 141.897 18.6891 141.706 18.6871C141.544 18.6792 141.383 18.7084 141.235 18.7723C141.086 18.8363 140.954 18.9333 140.849 19.056C140.645 19.3029 140.506 19.5962 140.442 19.9098C140.377 20.2111 140.343 20.5184 140.342 20.8268C140.333 21.3268 140.444 21.8216 140.664 22.2708C140.741 22.4604 140.872 22.6231 141.041 22.7376C141.211 22.8522 141.411 22.9136 141.616 22.9137C141.831 22.9167 142.042 22.8543 142.22 22.7347C142.399 22.6151 142.536 22.4441 142.615 22.2444C142.838 21.7477 142.946 21.2074 142.932 20.6634M144.914 20.7635C144.932 21.4695 144.789 22.1703 144.497 22.8136C144.24 23.3659 143.831 23.834 143.318 24.1628C142.798 24.4861 142.196 24.6527 141.584 24.6423C140.969 24.6575 140.363 24.4886 139.845 24.1575C139.35 23.8269 138.963 23.3575 138.735 22.8083C138.475 22.1898 138.347 21.5238 138.36 20.8531C138.366 20.2309 138.471 19.6137 138.672 19.0244C138.883 18.3739 139.312 17.8156 139.887 17.4434C140.181 17.2408 140.511 17.0975 140.86 17.0218C141.117 16.9639 141.379 16.9303 141.642 16.9216C142.221 16.9145 142.791 17.0638 143.291 17.3538C143.806 17.6649 144.217 18.1192 144.475 18.6608C144.788 19.3186 144.938 20.0413 144.914 20.7688" fill="#686B6A"></path><path d="M151.875 24.4789H149.925V19.8571C149.925 19.1544 149.681 18.803 149.195 18.803C149.035 18.8027 148.878 18.8426 148.737 18.9191C148.597 18.9955 148.478 19.1061 148.392 19.2405C148.17 19.5681 148.059 19.9576 148.075 20.3525V24.4842H146.124V17.1061H147.921L148.075 17.8492C148.289 17.6012 148.534 17.3816 148.804 17.1957C149.122 17.0034 149.49 16.9115 149.861 16.9322C150.144 16.9193 150.425 16.9727 150.683 17.0881C150.941 17.2034 151.168 17.3774 151.346 17.5962C151.717 18.0866 151.904 18.6905 151.875 19.3037V24.4789Z" fill="#686B6A"></path><path d="M137.15 14.5817H135.072V16.6528H137.15V14.5817Z" fill="#686B6A"></path><mask id="mask5_2027_137" style="mask-type:luminance" maskUnits="userSpaceOnUse" x="58" y="0" width="25" height="41"><path d="M62.3008 0.684462H58.2468V2.35509H62.3008C67.105 2.35384 71.7161 4.24084 75.1343 7.60691C78.5524 10.973 80.502 15.5468 80.5605 20.3366C80.6189 25.1264 78.7814 29.7462 75.4464 33.1941C72.1113 36.6421 67.5476 38.6403 62.7448 38.7556H58.7013V40.4262H62.7606C68.0469 40.3948 73.1041 38.2708 76.8197 34.5215C80.5354 30.7723 82.6051 25.7049 82.5735 20.4341C82.542 15.1633 80.4118 10.1209 76.6515 6.41617C72.8913 2.7114 67.809 0.647739 62.5228 0.679187H62.2744" fill="white"></path></mask><g mask="url(#mask5_2027_137)"><path d="M82.6026 0.688599H58.2468V40.4356H82.6026V0.688599Z" fill="url(#paint5_linear_2027_137)"></path></g><mask id="mask6_2027_137" style="mask-type:luminance" maskUnits="userSpaceOnUse" x="58" y="7" width="18" height="27"><path d="M62.4012 7.7306H58.3314V9.40123H62.4012C63.8707 9.38358 65.3292 9.65468 66.6935 10.1991C68.0579 10.7434 69.3013 11.5504 70.3529 12.5739C71.4044 13.5975 72.2435 14.8175 72.8222 16.1643C73.4009 17.5112 73.7078 18.9585 73.7255 20.4236C73.7432 21.8888 73.4713 23.343 72.9253 24.7034C72.3794 26.0637 71.57 27.3035 70.5435 28.352C69.517 29.4005 68.2934 30.2371 66.9426 30.8141C65.5918 31.3911 64.1402 31.6971 62.6708 31.7148H58.6168V33.3854H62.6708C66.0399 33.3003 69.2412 31.9009 71.5868 29.4879C73.9323 27.0749 75.235 23.8407 75.2149 20.4804C75.1949 17.1201 73.8536 13.9017 71.4794 11.5167C69.1052 9.1317 65.8874 7.77042 62.5175 7.72534H62.4012" fill="white"></path></mask><g mask="url(#mask6_2027_137)"><path d="M75.4988 7.73523H58.3314V33.3953H75.4988V7.73523Z" fill="url(#paint6_linear_2027_137)"></path></g><mask id="mask7_2027_137" style="mask-type:luminance" maskUnits="userSpaceOnUse" x="58" y="4" width="22" height="33"><path d="M62.3431 4.21018H58.2891V5.88081H62.3431C66.2471 5.83329 70.0102 7.33406 72.8045 10.053C75.5988 12.7719 77.1954 16.4862 77.2431 20.3788C77.2907 24.2715 75.7855 28.0236 73.0587 30.8097C70.3318 33.5958 66.6066 35.1877 62.7025 35.2352H58.6432V36.9059H62.7025C67.0523 36.8793 71.2134 35.1309 74.2704 32.0453C77.3274 28.9598 79.0298 24.7897 79.0031 20.4526C78.9765 16.1155 77.223 11.9666 74.1284 8.91856C71.0337 5.87054 66.8515 4.17309 62.5016 4.19965H62.3008" fill="white"></path></mask><g mask="url(#mask7_2027_137)"><path d="M79.0507 4.20923H58.2891V36.9154H79.0507V4.20923Z" fill="url(#paint7_linear_2027_137)"></path></g><mask id="mask8_2027_137" style="mask-type:luminance" maskUnits="userSpaceOnUse" x="0" y="20" width="35" height="21"><path d="M0 20.537C0 31.4302 9.02773 40.2945 20.1221 40.2945C22.9121 40.2951 25.6724 39.7232 28.2312 38.6144C30.79 37.5055 33.0926 35.8835 34.9957 33.8492L28.394 29.2326C27.3173 30.3241 26.0293 31.186 24.6082 31.7658C23.1871 32.3456 21.6626 32.6313 20.1274 32.6055C10.7032 32.6055 2.55292 27.5251 0 20.2998V20.537Z" fill="white"></path></mask><g mask="url(#mask8_2027_137)"><path d="M34.9903 20.2998H0V40.2945H34.9903V20.2998Z" fill="url(#paint8_linear_2027_137)"></path></g><path d="M45.4874 40.5C44.3694 40.5327 43.2839 40.1224 42.4686 39.3588C41.6533 38.5953 41.1747 37.5409 41.1374 36.4262L40.7938 4.83733C40.8333 3.73457 41.297 2.68928 42.0887 1.91821C42.8803 1.14714 43.9393 0.709436 45.0459 0.695881C46.1525 0.682326 47.2219 1.09395 48.0323 1.8454C48.8428 2.59685 49.332 3.63046 49.3987 4.73192L49.7528 36.3208C49.7431 37.4326 49.2933 38.4955 48.5014 39.2782C47.7094 40.0609 46.6395 40.5001 45.5244 40.5" fill="#009296"></path></g><defs><linearGradient id="paint0_linear_2027_137" x1="1.79178" y1="13.1949" x2="33.7852" y2="13.1949" gradientUnits="userSpaceOnUse"><stop stop-color="#009295"></stop><stop offset="1" stop-color="#85B741"></stop></linearGradient><linearGradient id="paint1_linear_2027_137" x1="94.4121" y1="40.2892" x2="94.4121" y2="28.1996" gradientUnits="userSpaceOnUse"><stop stop-color="#009295"></stop><stop offset="1" stop-color="#85B741"></stop></linearGradient><linearGradient id="paint2_linear_2027_137" x1="103.397" y1="40.1152" x2="103.397" y2="28.3102" gradientUnits="userSpaceOnUse"><stop stop-color="#009295"></stop><stop offset="1" stop-color="#85B741"></stop></linearGradient><linearGradient id="paint3_linear_2027_137" x1="111.091" y1="40.3365" x2="111.091" y2="28.3102" gradientUnits="userSpaceOnUse"><stop stop-color="#009295"></stop><stop offset="1" stop-color="#85B741"></stop></linearGradient><linearGradient id="paint4_linear_2027_137" x1="118.982" y1="40.4473" x2="118.982" y2="28.1048" gradientUnits="userSpaceOnUse"><stop stop-color="#009295"></stop><stop offset="1" stop-color="#85B741"></stop></linearGradient><linearGradient id="paint5_linear_2027_137" x1="58.2468" y1="21.9931" x2="82.4757" y2="21.9931" gradientUnits="userSpaceOnUse"><stop stop-color="#009295"></stop><stop offset="1" stop-color="#85B741"></stop></linearGradient><linearGradient id="paint6_linear_2027_137" x1="58.3314" y1="22.0064" x2="75.4143" y2="22.0064" gradientUnits="userSpaceOnUse"><stop stop-color="#009295"></stop><stop offset="1" stop-color="#85B741"></stop></linearGradient><linearGradient id="paint7_linear_2027_137" x1="58.2891" y1="21.9654" x2="78.945" y2="21.9654" gradientUnits="userSpaceOnUse"><stop stop-color="#009295"></stop><stop offset="1" stop-color="#85B741"></stop></linearGradient><linearGradient id="paint8_linear_2027_137" x1="0" y1="29.2674" x2="34.9903" y2="29.2674" gradientUnits="userSpaceOnUse"><stop stop-color="#009295"></stop><stop offset="1" stop-color="#85B741"></stop></linearGradient><clipPath id="clip0_2027_137"><rect width="151.875" height="40" fill="white" transform="translate(0 0.5)"></rect></clipPath></defs></svg>