<svg xmlns="http://www.w3.org/2000/svg" width="1550" height="1130" viewBox="0 0 1550 1130" version="1.1"><path d="M 36.008 64.132 L 32.918 64.764 30.818 66.632 L 28.718 68.500 26.881 72.500 L 25.044 76.500 25.031 273.500 L 25.018 470.500 27.436 481.160 L 29.854 491.819 31.499 502.995 L 33.144 514.170 35.014 518.533 L 36.884 522.896 38.992 530.198 L 41.099 537.500 46.122 548 L 51.144 558.500 53.709 563.500 L 56.273 568.500 59.828 575 L 63.382 581.500 68.359 588.500 L 73.336 595.500 80.290 603.837 L 87.245 612.174 96.381 621.337 L 105.517 630.500 116.009 639.044 L 126.500 647.587 135.500 653.651 L 144.500 659.715 150.159 663.307 L 155.818 666.900 165.659 671.551 L 175.500 676.202 184.247 679.085 L 192.994 681.968 198.747 684.840 L 204.500 687.712 207 688.304 L 209.500 688.896 220.500 689.993 L 231.500 691.090 241.500 693.544 L 251.500 695.998 268.814 695.999 L 286.127 696 298.257 693.487 L 310.387 690.974 323.390 689.454 L 336.392 687.935 343.946 684.533 L 351.500 681.132 358.483 679.386 L 365.466 677.640 377.983 671.654 L 390.500 665.667 397.500 661.518 L 404.500 657.369 415.500 649.010 L 426.500 640.651 435.753 632.736 L 445.007 624.822 455.787 612.161 L 466.568 599.500 471.146 593.500 L 475.725 587.500 481.405 578.782 L 487.084 570.065 489.151 565.391 L 491.219 560.717 494.030 555.948 L 496.842 551.180 499.382 544.139 L 501.921 537.099 504.848 531.299 L 507.775 525.500 509.954 514.500 L 512.133 503.500 514.068 496.430 L 516.003 489.360 516.964 481.785 L 517.924 474.209 518.046 402.165 L 518.167 330.121 516.825 327.320 L 515.482 324.518 512.991 323.340 L 510.500 322.162 482.500 321.846 L 454.500 321.529 451.206 323.313 L 447.912 325.097 445.960 328.299 L 444.007 331.500 443.993 396.500 L 443.979 461.500 442.960 473.500 L 441.941 485.500 440.962 491 L 439.983 496.500 436.530 503.500 L 433.077 510.500 430.548 518.250 L 428.020 526.001 424.673 531.250 L 421.327 536.500 413.929 548 L 406.531 559.500 394.016 572.010 L 381.500 584.519 375.500 588.377 L 369.500 592.235 365.410 595.065 L 361.319 597.895 350.800 603.412 L 340.280 608.929 332.390 611.085 L 324.500 613.241 319.735 615.645 L 314.969 618.049 308.735 619.775 L 302.500 621.500 271 621.500 L 239.500 621.500 233.530 619.658 L 227.560 617.816 223.852 615.925 L 220.145 614.033 211.539 611.539 L 202.933 609.045 191.716 602.978 L 180.500 596.910 172.369 591.205 L 164.237 585.500 155.955 578 L 147.672 570.500 138.511 559 L 129.349 547.500 125.245 542 L 121.141 536.500 119.183 532 L 117.225 527.500 113.702 521.708 L 110.179 515.915 109.010 510.708 L 107.841 505.500 103.957 494 L 100.074 482.500 98.970 473 L 97.867 463.500 97.876 307.218 L 97.886 150.935 98.506 148.718 L 99.126 146.500 100.277 144.165 L 101.429 141.829 104.465 140.165 L 107.500 138.500 150 138 L 192.500 137.499 194.173 136.672 L 195.846 135.845 197.423 132.522 L 199 129.198 199 101.567 L 199 73.936 197.579 70.534 L 196.158 67.133 193.051 65.526 L 189.944 63.920 114.521 63.710 L 39.098 63.500 36.008 64.132" stroke="none" fill="#9c2484" fill-rule="evenodd"/><path d="M 633.675 63.123 L 627.899 63.746 625.478 66.020 L 623.058 68.294 621.976 71.571 L 620.895 74.848 621.426 136.052 L 621.957 197.256 622.599 200.878 L 623.240 204.500 627.259 214.500 L 631.279 224.500 635.860 231 L 640.441 237.500 644.470 241.913 L 648.500 246.326 657.224 252.074 L 665.948 257.822 671.224 259.550 L 676.500 261.278 682.145 264.100 L 687.789 266.922 694.145 267.954 L 700.500 268.985 719.500 268.985 L 738.500 268.985 744.855 267.954 L 751.211 266.922 756.855 264.100 L 762.500 261.278 767.687 259.580 L 772.874 257.881 779.053 253.887 L 785.232 249.893 790.384 245.022 L 795.535 240.150 801.261 231.806 L 806.987 223.462 810.426 211.481 L 813.865 199.500 815.676 195 L 817.488 190.500 817.763 132 L 818.038 73.500 816.269 70.034 L 814.500 66.568 811.258 64.697 L 808.016 62.825 785.161 62.785 L 762.306 62.744 759.440 64.122 L 756.575 65.500 754.287 68.898 L 752 72.296 751.966 120.398 L 751.933 168.500 751.021 178.500 L 750.109 188.500 748.609 192.720 L 747.110 196.941 742.884 202.537 L 738.659 208.133 734.580 210.304 L 730.500 212.474 719.500 212.477 L 708.500 212.481 705.351 210.767 L 702.201 209.053 697.625 203.821 L 693.048 198.589 691.456 194.045 L 689.864 189.500 688.969 177 L 688.074 164.500 688.037 119.218 L 688 73.936 686.584 70.546 L 685.167 67.156 682.382 65.328 L 679.597 63.500 659.524 63 L 639.451 62.500 633.675 63.123 M 913.719 64.777 L 910.937 66.500 908.719 71 L 906.500 75.500 906.808 164.500 L 907.116 253.500 908.866 257 L 910.616 260.500 915.020 262.750 L 919.424 265 935.962 264.980 L 952.500 264.960 958.895 264.035 L 965.290 263.111 968.665 259.841 L 972.039 256.570 973.107 252.602 L 974.176 248.634 973.516 241.067 L 972.856 233.500 973.847 229.140 L 974.837 224.780 977.628 221.866 L 980.419 218.953 985.391 217.476 L 990.363 216 1000.303 216 L 1010.244 216 1027.872 212.394 L 1045.500 208.789 1048.931 207.370 L 1052.361 205.951 1058.931 201.808 L 1065.500 197.665 1070.302 193.583 L 1075.104 189.500 1080.387 183 L 1085.671 176.500 1086.802 174.379 L 1087.933 172.257 1091.466 157.708 L 1095 143.158 1095 138.329 L 1095 133.500 1092.572 125 L 1090.143 116.500 1088.589 111 L 1087.035 105.500 1080.567 97.335 L 1074.099 89.171 1068.119 84.335 L 1062.139 79.500 1056.820 76.298 L 1051.500 73.097 1041 70.121 L 1030.500 67.145 1025 65.105 L 1019.500 63.065 968 63.059 L 916.500 63.053 913.719 64.777 M 244.500 65.167 L 242.500 66.273 240.155 68.387 L 237.810 70.500 236.398 73.214 L 234.986 75.927 234.880 244.214 L 234.774 412.500 234.123 428.160 L 233.473 443.819 231.489 446.012 L 229.505 448.205 226.502 449.852 L 223.500 451.499 200 451.787 L 176.500 452.074 173.799 453.138 L 171.097 454.202 169.299 456.851 L 167.500 459.500 167.500 486.177 L 167.500 512.853 169.590 515.677 L 171.680 518.500 174.590 520 L 177.500 521.500 269 521.813 L 360.500 522.127 365.599 521.025 L 370.699 519.924 373.599 516.898 L 376.500 513.873 376.779 489.686 L 377.059 465.500 375.763 461.096 L 374.468 456.692 371.664 454.596 L 368.860 452.500 343.180 451.967 L 317.500 451.435 314.465 449.803 L 311.429 448.171 309.965 445.425 L 308.500 442.679 308.684 368.796 L 308.867 294.912 310.684 291.811 L 312.500 288.709 315.167 286.721 L 317.834 284.734 327.167 285.059 L 336.500 285.385 384.115 285.396 L 431.730 285.407 434.344 283.694 L 436.958 281.981 438.729 278.741 L 440.500 275.500 440.810 249.361 L 441.119 223.222 439.643 219.689 L 438.167 216.156 435.378 214.328 L 432.589 212.500 375.125 212.243 L 317.662 211.987 314.581 210.193 L 311.500 208.399 310 205.450 L 308.500 202.500 308.500 174.955 L 308.500 147.411 310.264 144.719 L 312.028 142.028 314.723 140.264 L 317.419 138.500 413.459 138.486 L 509.500 138.473 512.642 136.767 L 515.783 135.061 516.892 131.881 L 518 128.702 518 101.499 L 518 74.296 515.730 70.898 L 513.460 67.500 509.980 65.752 L 506.500 64.003 376.500 64.032 L 246.500 64.061 244.500 65.167 M 984.741 118.357 L 980.981 119.771 979.425 121.063 L 977.868 122.354 976.434 125.128 L 975 127.901 975.022 138.700 L 975.044 149.500 976.895 153.576 L 978.746 157.652 982.349 159.361 L 985.951 161.071 992.226 161.654 L 998.500 162.237 1006 161.093 L 1013.500 159.949 1016 158.180 L 1018.500 156.411 1021.389 150.677 L 1024.277 144.942 1024.353 139.696 L 1024.429 134.450 1023.040 130.975 L 1021.651 127.500 1019.668 124.624 L 1017.684 121.748 1013.440 119.870 L 1009.196 117.993 998.848 117.468 L 988.500 116.944 984.741 118.357 M 949.723 461.065 L 939.946 462.001 934.723 463.934 L 929.500 465.866 921.489 469.183 L 913.478 472.500 905.050 477.500 L 896.622 482.500 891.136 487.500 L 885.650 492.500 879.373 499.846 L 873.096 507.193 868.446 516.846 L 863.795 526.500 862.475 533.500 L 861.155 540.500 859.449 552.827 L 857.743 565.153 858.391 570.327 L 859.039 575.500 860.953 587.953 L 862.867 600.406 866.678 607.916 L 870.490 615.425 877.569 624.963 L 884.649 634.500 889.705 639.046 L 894.762 643.591 905.069 650.497 L 915.376 657.403 931.396 662.785 L 947.417 668.167 973.458 667.813 L 999.500 667.459 1010.500 663.599 L 1021.500 659.739 1025 658.023 L 1028.500 656.308 1035.500 652.020 L 1042.500 647.731 1048.869 642.176 L 1055.238 636.622 1061.869 628.362 L 1068.500 620.102 1072.782 611.736 L 1077.064 603.371 1080.530 586.435 L 1083.996 569.500 1083.991 561.500 L 1083.986 553.500 1082.075 545.500 L 1080.164 537.500 1079.004 531 L 1077.844 524.500 1073.172 515.610 L 1068.500 506.720 1061.907 499.102 L 1055.313 491.483 1048.407 485.935 L 1041.500 480.386 1035 476.319 L 1028.500 472.251 1017.935 467.603 L 1007.370 462.955 1001.435 461.944 L 995.500 460.932 977.500 460.530 L 959.500 460.129 949.723 461.065 M 1180.500 462.788 L 1178.500 463.112 1175.820 464.148 L 1173.140 465.185 1171.320 468.842 L 1169.500 472.500 1169.220 562 L 1168.940 651.500 1170.585 655.835 L 1172.230 660.169 1175.365 662.081 L 1178.500 663.993 1201.102 663.996 L 1223.704 664 1227.010 661.750 L 1230.316 659.500 1232.224 656.923 L 1234.133 654.345 1235.043 650.423 L 1235.952 646.500 1235.978 634 L 1236.003 621.500 1237.752 618.022 L 1239.500 614.544 1242.693 613.644 L 1245.886 612.743 1250.359 615.365 L 1254.832 617.986 1258.499 622.243 L 1262.167 626.500 1267.797 635 L 1273.427 643.500 1278.831 650.745 L 1284.235 657.990 1290.842 661.245 L 1297.448 664.500 1321.800 664.815 L 1346.153 665.130 1348.621 663.513 L 1351.089 661.895 1352.030 659.420 L 1352.971 656.945 1351.670 653.170 L 1350.370 649.394 1342.639 638.661 L 1334.908 627.927 1329.348 619.308 L 1323.788 610.689 1322.817 607.906 L 1321.847 605.124 1323.570 601.493 L 1325.293 597.862 1331.632 592.193 L 1337.970 586.523 1342.968 579.950 L 1347.965 573.376 1352.153 562.438 L 1356.341 551.500 1356.421 541 L 1356.500 530.500 1352.130 517.637 L 1347.759 504.775 1343.266 498.137 L 1338.773 491.500 1335.637 488.191 L 1332.500 484.883 1325.284 479.985 L 1318.068 475.086 1314.784 473.378 L 1311.500 471.669 1298.500 468.301 L 1285.500 464.933 1267 464.005 L 1248.500 463.077 1215.500 462.771 L 1182.500 462.464 1180.500 462.788 M 632.684 464.450 L 628.868 465.810 626.925 467.568 L 624.983 469.326 623.943 472.913 L 622.904 476.500 623.202 566.332 L 623.500 656.164 626.711 659.033 L 629.922 661.902 633.711 662.882 L 637.500 663.862 659.041 664.181 L 680.581 664.500 683.277 662.736 L 685.972 660.972 687.736 658.283 L 689.500 655.594 690 631.868 L 690.500 608.142 692.590 605.321 L 694.680 602.500 697.590 601 L 700.500 599.500 732.172 599.500 L 763.844 599.500 766.672 597.429 L 769.500 595.358 771.248 591.929 L 772.997 588.500 772.922 576 L 772.846 563.500 771.671 559.606 L 770.496 555.713 767.678 553.606 L 764.860 551.500 732.180 551 L 699.500 550.500 696.171 548.684 L 692.842 546.867 691.421 543.466 L 690 540.064 690 532.680 L 690 525.296 692.253 521.952 L 694.507 518.608 698.003 516.554 L 701.500 514.500 732 514.291 L 762.500 514.082 768.867 513.568 L 775.233 513.053 779.531 510.535 L 783.828 508.016 785.549 503.510 L 787.270 499.004 786.793 486.615 L 786.316 474.225 784.408 470.967 L 782.500 467.709 779.740 465.652 L 776.979 463.594 706.740 463.342 L 636.500 463.091 632.684 464.450 M 963 514.435 L 959.500 515.729 951.696 519.435 L 943.893 523.142 937.411 531.321 L 930.929 539.500 929.531 544.500 L 928.132 549.500 927.496 557.500 L 926.859 565.500 927.987 574.486 L 929.115 583.471 931.059 587.865 L 933.002 592.259 941.281 600.538 L 949.559 608.816 955.433 610.524 L 961.307 612.231 973.404 611.803 L 985.500 611.375 990.335 609.206 L 995.169 607.038 1001.835 600.253 L 1008.500 593.468 1012.889 582.984 L 1017.278 572.500 1017.767 565.848 L 1018.255 559.196 1016.710 554.848 L 1015.165 550.500 1011.576 542.023 L 1007.987 533.545 1002.292 527.790 L 996.596 522.034 985.829 517.517 L 975.062 513 970.781 513.070 L 966.500 513.141 963 514.435 M 1244.020 518.752 L 1240.540 520.500 1238.186 524 L 1235.833 527.500 1236.166 540.178 L 1236.500 552.856 1238.571 555.678 L 1240.642 558.500 1244.071 560.319 L 1247.500 562.137 1259.128 561.717 L 1270.757 561.296 1275.298 559.098 L 1279.839 556.899 1282.271 553.700 L 1284.704 550.500 1286.352 547.300 L 1288 544.099 1288 540.018 L 1288 535.936 1286.625 532.645 L 1285.250 529.355 1281.977 525.626 L 1278.703 521.898 1276.060 520.531 L 1273.417 519.164 1265.636 518.082 L 1257.855 517 1252.678 517.002 L 1247.500 517.003 1244.020 518.752 M 266.820 713.952 L 245.140 714.500 242.320 716.605 L 239.500 718.709 237.641 721.884 L 235.781 725.059 235.905 732.280 L 236.028 739.500 236.264 895.500 L 236.500 1051.500 238.500 1055.500 L 240.500 1059.500 244 1061.256 L 247.500 1063.012 350.731 1062.756 L 453.962 1062.500 457.231 1059.231 L 460.500 1055.962 460.500 1028.054 L 460.500 1000.147 458.406 997.323 L 456.313 994.500 452.906 993.300 L 449.500 992.100 383.650 992.084 L 317.801 992.068 314.755 990.284 L 311.709 988.500 309.605 985.677 L 307.500 982.853 307.390 853.508 L 307.280 724.164 305.354 720.867 L 303.429 717.571 300.465 715.894 L 297.500 714.218 293 713.811 L 288.500 713.405 266.820 713.952 M 630.337 865.514 L 626.174 868.010 624.156 872.255 L 622.138 876.500 623.096 937 L 624.053 997.500 623.456 1024.500 L 622.858 1051.500 624.679 1054.995 L 626.500 1058.489 631 1060.995 L 635.500 1063.500 702.500 1063.500 L 769.500 1063.500 772.877 1062.076 L 776.253 1060.652 778.105 1056.576 L 779.956 1052.500 779.922 1038 L 779.887 1023.500 778.694 1020.094 L 777.500 1016.687 774.724 1014.629 L 771.948 1012.571 736.224 1012.535 L 700.500 1012.500 696.706 1010.615 L 692.912 1008.730 691.206 1005.615 L 689.500 1002.500 689.334 937.827 L 689.167 873.155 687.506 869.655 L 685.845 866.155 682.522 864.577 L 679.198 863 656.849 863.009 L 634.500 863.019 630.337 865.514 M 867.071 864.752 L 863.642 866.500 861.571 869.323 L 859.500 872.146 859.243 962.323 L 858.986 1052.500 860.743 1055.929 L 862.500 1059.358 865.324 1061.429 L 868.149 1063.500 891.324 1063.500 L 914.500 1063.500 917.765 1061.171 L 921.030 1058.842 922.765 1055.671 L 924.500 1052.500 924.500 964 L 924.500 875.500 921.784 870.880 L 919.068 866.260 915.633 864.630 L 912.198 863 891.349 863.002 L 870.500 863.003 867.071 864.752 M 1026.307 864.467 L 1023.114 865.855 1020.807 870.178 L 1018.500 874.500 1018.500 964 L 1018.500 1053.500 1020.267 1056.733 L 1022.034 1059.966 1025.267 1061.733 L 1028.500 1063.500 1049.500 1063.796 L 1070.500 1064.093 1074.942 1061.796 L 1079.384 1059.500 1081.437 1055.500 L 1083.490 1051.500 1083.995 1031 L 1084.500 1010.500 1086.534 1007 L 1088.568 1003.500 1092.034 1001.752 L 1095.500 1000.003 1125.500 999.925 L 1155.500 999.846 1159.394 998.671 L 1163.287 997.496 1165.394 994.674 L 1167.500 991.853 1167.500 974.449 L 1167.500 957.045 1164.729 954.273 L 1161.958 951.500 1128.050 951 L 1094.142 950.500 1091.383 948.438 L 1088.624 946.376 1086.579 943.637 L 1084.534 940.899 1084.167 933.644 L 1083.801 926.390 1086.604 923.059 L 1089.407 919.728 1092.953 918.219 L 1096.500 916.710 1133.440 916.408 L 1170.381 916.106 1172.940 914.232 L 1175.500 912.358 1177.248 908.929 L 1178.997 905.500 1178.976 890 L 1178.956 874.500 1177.105 870.424 L 1175.254 866.348 1171.726 864.674 L 1168.198 863 1098.849 863.039 L 1029.500 863.078 1026.307 864.467 M 1269.094 864.296 L 1265.687 865.500 1263.594 868.323 L 1261.500 871.146 1261.234 962.068 L 1260.969 1052.990 1262.448 1056.531 L 1263.928 1060.072 1267.714 1061.748 L 1271.500 1063.423 1343 1063.462 L 1414.500 1063.500 1417.631 1061.786 L 1420.762 1060.072 1423.449 1056.878 L 1426.136 1053.685 1425.818 1038.511 L 1425.500 1023.337 1422.709 1019.682 L 1419.919 1016.027 1417.738 1014.860 L 1415.556 1013.692 1377.028 1013.596 L 1338.500 1013.500 1335.398 1011.801 L 1332.297 1010.102 1330.482 1007.332 L 1328.667 1004.562 1328.667 1000.243 L 1328.667 995.923 1330.677 993.212 L 1332.687 990.500 1336.094 989.306 L 1339.500 988.113 1369.601 988.056 L 1399.702 988 1402.881 986.892 L 1406.061 985.783 1407.743 982.642 L 1409.426 979.500 1409.819 967.704 L 1410.213 955.908 1409.543 951.435 L 1408.872 946.963 1406.524 944.231 L 1404.177 941.500 1370.838 941 L 1337.500 940.500 1334.445 938.825 L 1331.389 937.150 1330.195 934.528 L 1329 931.906 1329 928.418 L 1329 924.930 1330.648 922.414 L 1332.297 919.898 1335.398 918.199 L 1338.500 916.500 1375.327 916.388 L 1412.153 916.276 1414.827 914.284 L 1417.500 912.291 1419.500 908.895 L 1421.500 905.500 1421.848 891.637 L 1422.197 877.775 1420.992 873.473 L 1419.788 869.171 1416.829 866.336 L 1413.869 863.500 1343.185 863.296 L 1272.500 863.093 1269.094 864.296" stroke="none" fill="#7c3494" fill-rule="evenodd"/></svg>