<svg xmlns="http://www.w3.org/2000/svg" width="478" height="163" viewBox="0 0 478 163" version="1.1"><path d="M 235.420 1.885 C 228.336 6.206, 222.055 17.146, 217.118 33.766 C 213.145 47.139, 209.795 67.372, 209.632 78.972 C 209.517 87.251, 209.720 88.489, 211.248 88.795 C 213.613 89.270, 225.543 77.954, 223.808 76.881 C 223.126 76.460, 221.970 76.610, 221.241 77.215 C 218.132 79.795, 218.001 76.225, 220.511 57.440 C 224.641 26.533, 230.011 8.788, 235.664 7.370 C 237.048 7.022, 240.004 7.284, 242.231 7.951 C 245.522 8.937, 246.439 8.915, 247.125 7.832 C 248.350 5.900, 248.187 2.587, 246.800 1.200 C 244.996 -0.604, 238.900 -0.237, 235.420 1.885 M 52.364 15.493 C 52.018 16.396, 52.214 17.614, 52.800 18.200 C 54.324 19.724, 57.210 18.331, 56.812 16.265 C 56.369 13.963, 53.165 13.407, 52.364 15.493 M 43.332 16.578 C 42.548 18.620, 45.380 21.452, 47.422 20.668 C 48.290 20.335, 49 18.924, 49 17.531 C 49 15.490, 48.510 15, 46.469 15 C 45.076 15, 43.665 15.710, 43.332 16.578 M 191.116 19.580 C 188.502 22.903, 188.473 24.137, 190.939 27.139 C 192.773 29.372, 193.031 29.417, 195.676 27.969 C 199.036 26.130, 200.909 21.671, 199.361 19.197 C 197.576 16.347, 193.511 16.535, 191.116 19.580 M 33.571 19.571 C 31.414 21.729, 31.602 23.608, 34.155 25.396 C 36.898 27.317, 40 25.868, 40 22.665 C 40 18.399, 36.452 16.691, 33.571 19.571 M 22.093 27.388 C 20.474 29.339, 21.069 34.028, 23.095 35.296 C 25.722 36.940, 29.886 35.301, 30.632 32.330 C 30.996 30.878, 30.845 28.973, 30.296 28.095 C 28.957 25.955, 23.661 25.498, 22.093 27.388 M 314.500 32.159 C 312.300 34.301, 307.702 37.954, 304.282 40.277 C 300.862 42.600, 298.049 44.953, 298.032 45.507 C 298.013 46.095, 299.935 46.360, 302.643 46.145 L 307.285 45.776 306.756 50.138 C 306.465 52.537, 305.173 61.581, 303.885 70.236 C 301.767 84.471, 301.692 86.120, 303.099 87.527 C 304.273 88.702, 305.267 88.849, 307.160 88.129 C 309.851 87.106, 319 78.446, 319 76.921 C 319 75.584, 317.660 75.790, 315.441 77.468 C 314.374 78.276, 313.163 78.951, 312.750 78.968 C 311.573 79.018, 311.865 72.013, 313.529 60.280 C 315.853 43.902, 315.088 45.306, 321.951 44.810 C 325.844 44.528, 328.627 43.743, 329.939 42.555 C 332.741 40.019, 331.691 39.050, 327.255 40.079 C 325.190 40.558, 322.073 40.693, 320.328 40.378 L 317.157 39.807 318.578 35.778 C 320.129 31.383, 320.433 27.924, 319.250 28.132 C 318.837 28.205, 316.700 30.017, 314.500 32.159 M 107 37.932 C 104.525 38.297, 100.837 39.402, 98.804 40.386 C 93.445 42.982, 86.329 51.073, 82.832 58.546 C 77.832 69.229, 76.629 84.787, 80.549 88.041 C 81.756 89.042, 82.809 88.939, 85.984 87.507 C 89.790 85.791, 100.802 75.139, 106.103 68.046 L 108.685 64.593 107.152 75.215 C 105.873 84.076, 105.840 86.102, 106.951 87.441 C 108.551 89.369, 111.171 88.724, 115.676 85.294 C 119.147 82.651, 122.481 78.148, 121.611 77.278 C 121.309 76.976, 119.852 77.522, 118.372 78.492 L 115.682 80.255 116.344 70.877 C 116.709 65.720, 117.923 57.675, 119.043 53 C 120.163 48.325, 121.345 42.813, 121.671 40.750 L 122.263 37 116.882 37.134 C 113.922 37.207, 109.475 37.566, 107 37.932 M 158.479 37.988 C 143.733 40.155, 132.444 53.950, 129.891 72.920 C 129.037 79.272, 129.052 82.231, 129.956 85.249 C 131.078 88.993, 131.324 89.185, 134.242 88.602 C 138.662 87.718, 147.001 80.944, 153.600 72.878 C 156.721 69.063, 159.456 66.122, 159.677 66.343 C 160.487 67.154, 154.857 99.458, 152.969 104.828 C 149.969 113.365, 146.513 117.885, 141.177 120.251 C 136.695 122.238, 136.249 122.259, 130.500 120.742 C 127.200 119.871, 123.723 118.854, 122.773 118.481 C 121.522 117.990, 120.719 118.522, 119.858 120.412 C 118.817 122.698, 118.968 123.340, 121.085 125.615 C 123.324 128.021, 123.985 128.176, 130.143 127.746 C 142.625 126.875, 152.862 119.191, 159.430 105.764 C 163.508 97.428, 165.015 90.854, 167.970 68.500 C 169.786 54.760, 171.381 46.362, 173.620 38.750 C 174.068 37.228, 173.441 37.016, 168.817 37.125 C 165.893 37.193, 161.241 37.582, 158.479 37.988 M 190.500 38.867 C 185.956 41.727, 180.674 47.663, 181.493 48.989 C 181.995 49.801, 182.899 49.504, 184.500 48 C 185.866 46.716, 187.042 46.258, 187.416 46.863 C 187.760 47.421, 186.657 55.598, 184.965 65.035 C 181.465 84.551, 181.421 88.346, 184.691 88.812 C 187.656 89.234, 191.481 86.560, 195.568 81.208 C 199.416 76.168, 199.203 73.904, 195.180 77.082 C 192.535 79.172, 192.496 79.174, 192.194 77.207 C 192.026 76.111, 193.069 67.970, 194.512 59.116 C 198.065 37.308, 197.501 34.461, 190.500 38.867 M 254.748 38.427 C 242.626 42.753, 234.245 56.900, 233.247 74.720 C 232.605 86.181, 233.904 89, 239.827 89 C 244.761 89, 252.571 85.048, 257.390 80.113 C 262.832 74.540, 261.088 73.094, 254.861 78.016 C 252.089 80.207, 249.156 82, 248.344 82 C 243.325 82, 241.268 77.017, 242.434 67.682 C 243.084 62.478, 243.166 62.370, 247.298 61.257 C 256.741 58.714, 266 49.843, 266 43.339 C 266 37.430, 262.196 35.769, 254.748 38.427 M 348.500 39.600 C 335.771 46.088, 329 58.471, 329 75.258 C 329 82.652, 329.186 83.340, 331.923 86.077 C 335.848 90.002, 340.741 89.990, 347.631 86.038 C 357.473 80.393, 363.978 70.305, 366.001 57.548 C 367.969 45.136, 364.231 36.963, 356.615 37.026 C 354.902 37.040, 351.250 38.198, 348.500 39.600 M 385.500 38.078 C 381.819 39.579, 373.619 47.574, 374.424 48.878 C 375.009 49.823, 375.764 49.730, 377.679 48.474 C 381.947 45.678, 381.981 44.424, 377.035 72.721 C 374.777 85.638, 375.149 89, 378.839 89 C 383.092 89, 392.317 81.134, 402.880 68.500 C 405.795 65.012, 406.156 64.820, 405.691 67 C 402.360 82.624, 402.736 89, 406.989 89 C 409.600 89, 420.559 78.713, 419.600 77.162 C 419.062 76.291, 418.129 76.542, 416.180 78.082 L 413.500 80.200 413.201 76.790 C 413.036 74.914, 414.259 65.329, 415.918 55.490 C 417.577 45.651, 418.733 37.400, 418.488 37.154 C 418.242 36.908, 416.294 37.863, 414.158 39.276 C 411.084 41.311, 410.031 42.821, 409.095 46.537 C 406.068 58.560, 390.980 81, 385.923 81 C 384.425 81, 384.846 75.817, 387.444 62.257 C 391.575 40.693, 391.179 35.763, 385.500 38.078 M 438.500 38.885 C 434.335 41.491, 427.474 48.808, 428.363 49.696 C 428.766 50.099, 429.862 49.880, 430.798 49.208 C 433.375 47.359, 435.029 46.696, 435.610 47.277 C 435.899 47.565, 434.772 56.939, 433.106 68.106 C 431.441 79.274, 430.242 88.575, 430.442 88.776 C 431.239 89.572, 439 84.870, 439 83.592 C 439 82.839, 440.150 78.236, 441.555 73.362 C 447.079 54.207, 454.043 44.443, 458.793 49.193 C 459.718 50.118, 460.664 49.738, 462.993 47.506 C 466.598 44.053, 467.047 39.631, 463.960 37.978 C 460.148 35.939, 453.588 41.784, 445.283 54.620 C 444.297 56.143, 444.182 54.940, 444.675 48.273 C 445.114 42.343, 444.931 39.622, 444.019 38.523 C 442.418 36.593, 442.132 36.612, 438.500 38.885 M 10.655 40.829 C 8.410 43.309, 8.570 47.570, 11 50 C 15.104 54.104, 22 51.345, 22 45.598 C 22 43.683, 21.237 41.619, 20.171 40.655 C 17.744 38.458, 12.717 38.550, 10.655 40.829 M 249.502 45.592 C 247.102 48.182, 243.334 57.667, 244.315 58.648 C 244.600 58.934, 246.864 58.269, 249.346 57.171 C 255.561 54.422, 259.037 47.437, 255.800 44.200 C 253.953 42.353, 252.130 42.756, 249.502 45.592 M 96.584 47.060 C 92.130 50.971, 89.365 58.333, 87.936 70.087 C 86.588 81.171, 87.303 82.532, 92.423 78.627 C 97.151 75.020, 104.307 64.806, 108.387 55.840 C 113.882 43.763, 113.921 44, 106.441 44 C 100.760 44, 99.692 44.331, 96.584 47.060 M 148.254 46.762 C 143.104 51.573, 140.712 57.891, 139.061 71.045 C 138.155 78.261, 138.442 81, 140.104 81 C 141.883 81, 149.314 73.429, 153.318 67.536 C 157.309 61.664, 163.963 47.765, 163.988 45.250 C 163.996 44.379, 162.061 44, 157.606 44 C 152.004 44, 150.845 44.342, 148.254 46.762 M 344.011 46.835 C 340.139 50.707, 338 58.581, 338 68.959 C 338 79.589, 339.291 82, 344.984 82 C 347.955 82, 349.327 81.400, 350.887 79.417 C 356.072 72.825, 359.601 55.278, 357.002 49.006 C 354.624 43.263, 348.591 42.256, 344.011 46.835 M 5.357 59.970 C -3.036 63.441, -0.679 76, 8.366 76 C 13.143 76, 17.458 71.038, 16.564 66.571 C 15.481 61.155, 10.123 57.999, 5.357 59.970 M 4.527 90.273 C 0.616 94.184, 0.078 97.317, 2.510 102.020 C 4.456 105.783, 6.842 107.005, 12.184 106.978 C 26.016 106.906, 26.388 88.812, 12.589 87.257 C 8.424 86.788, 7.766 87.034, 4.527 90.273 M 25.898 117.283 C 21.073 120.524, 19.114 126.385, 21.106 131.619 C 23.311 137.412, 28.157 140.286, 34.819 139.751 C 41.532 139.212, 45.868 135.400, 46.684 129.319 C 48.150 118.392, 35.312 110.958, 25.898 117.283 M 66.641 133.839 C 54.771 141.910, 58.530 160.427, 72.500 162.694 C 77.902 163.570, 84.585 160.585, 87.676 155.914 C 89.903 152.549, 90.185 151.230, 89.804 145.966 C 89.415 140.594, 88.946 139.480, 85.715 136.249 C 82.415 132.949, 81.464 132.565, 75.783 132.247 C 70.807 131.968, 68.905 132.299, 66.641 133.839" stroke="none" fill="#fffcfc" fill-rule="evenodd"/></svg>