<svg xmlns="http://www.w3.org/2000/svg" width="228" height="129" viewBox="0 0 228 129" version="1.1"><path d="M 110.378 2.931 C 109.212 3.431, 108.009 4.889, 107.706 6.170 C 105.955 13.572, 90.766 122.949, 91.297 124.332 C 91.849 125.770, 93.715 126, 104.846 126 C 113.981 126, 118.043 125.635, 118.740 124.750 C 119.282 124.063, 123.396 97.850, 127.882 66.500 C 132.367 35.150, 136.235 8.596, 136.477 7.492 C 137.414 3.214, 135.756 2.532, 123.792 2.269 C 117.581 2.132, 111.545 2.430, 110.378 2.931 M 49.500 29.583 C 0.600 43.759, 2 42.745, 2 63.982 C 2 85.576, 1.863 85.464, 42.805 97.216 C 65.877 103.839, 73.650 105.705, 74.662 104.866 C 76.165 103.619, 76.598 82.491, 75.167 80.236 C 74.573 79.300, 32.073 67, 29.433 67 C 29.195 67, 29 65.907, 29 64.571 C 29 61.824, 28.158 62.129, 55.500 54.958 C 64.300 52.649, 72.513 50.129, 73.750 49.357 C 75.867 48.037, 76 47.289, 76 36.677 C 76 25.697, 75.273 22.836, 72.550 23.103 C 71.972 23.159, 61.600 26.075, 49.500 29.583 M 151.667 23.667 C 150.740 24.593, 150.856 47.225, 151.795 48.702 C 152.215 49.363, 162.413 52.540, 174.459 55.763 C 196.224 61.586, 200.079 63.321, 197.338 66.062 C 196.723 66.677, 186.516 69.800, 174.654 73.004 C 162.792 76.207, 152.617 79.119, 152.043 79.473 C 150.412 80.482, 150.671 103.482, 152.330 104.859 C 153.997 106.242, 209.239 90.688, 215.935 86.950 C 223.680 82.626, 224.458 80.756, 224.789 65.681 C 225.275 43.500, 225.108 43.361, 183.827 31.515 C 152.799 22.611, 152.737 22.596, 151.667 23.667" stroke="none" fill="#fcfcfc" fill-rule="evenodd"/></svg>