<?xml version="1.0" encoding="UTF-8"?>
<svg id="Layer_1" xmlns="http://www.w3.org/2000/svg" version="1.1" viewBox="0 0 1000 1000">
  <!-- Generator: Adobe Illustrator 30.2.1, SVG Export Plug-In . SVG Version: 2.1.1 Build 1)  -->
  <defs>
    <style>
      .st0 {
        fill: #fff;
      }
    </style>
  </defs>
  <path class="st0" d="M644.84,470.57c-30.09-16.3-78.78-17.5-128.79-13.11,7.81-91.33,17.6-201.75,30.8-291.78,2.59-21.03-26.71-26.86-32.56-6.75l-1.34,5.19c-3.33,12.49-7,24.94-10.88,37.29-24.8,76.88-55.33,154.01-104.16,218.81-16.48,21.37-35.65,40.93-58.46,55.23-4.36,3.13-9.25,6.24-11.85,11.72-4.02,8.86,2.31,17.78,11.35,18.59,6.27.59,11.49-.53,17.3-1.43,13.37-2.3,31.55-6.84,44.79-9.74,21.7-4.78,50.15-11.72,80.54-17.8,9.97-2,20.15-3.9,30.37-5.6,49.43-8.24,99.78-11.78,131.83,1.49,6.76,3,13.16,7.16,18.07,12.93-4.26-6.27-10.34-11.28-17.01-15.04ZM377.57,478.19c50.14-39.71,88.02-103.62,116.04-165.01-4.49,42.33-6.85,104.1-9.09,147.69-.77.09-1.53.19-2.3.29-39.38,5.09-77.13,12.34-104.65,17.03Z"/>
  <path class="st0" d="M536.04,837.01c-32.39-42.72-43.22-111.01-49.39-163.52-3.13-28.54-4.88-57.22-5.71-85.91-.84-31.24-.76-62.18.1-93.39l29.68-6.46c-.37,5.17-.74,10.05-1.1,15.22-5.3,88.79-15.67,257.91,26.42,334.06Z"/>
  <line class="st0" x1="481.04" y1="493.89" x2="479.64" y2="494.19"/>
</svg>