<?xml version="1.0" encoding="UTF-8" standalone="no"?>
<svg preserveAspectRatio="xMidYMid slice" width="500px" height="497px" xmlns="http://www.w3.org/2000/svg" xmlns:xlink="http://www.w3.org/1999/xlink" xmlns:serif="http://www.serif.com/"   viewBox="0 0 629 625" version="1.1" xml:space="preserve" style="fill-rule:evenodd;clip-rule:evenodd;stroke-linejoin:round;stroke-miterlimit:2;">
    <g>
        <path d="M307.54,624.84C306.933,624.699 306.319,624.592 305.7,624.52C302.75,624.34 299.8,624.22 296.84,624.02C294.4,623.86 291.95,623.62 289.51,623.41C287.63,623.25 285.75,623.12 283.87,622.92C281.37,622.66 278.87,622.41 276.37,622.07C273.323,621.657 270.28,621.197 267.24,620.69C263.09,619.99 258.95,619.24 254.82,618.47C246.73,616.95 238.75,614.95 230.82,612.71C221.573,610.077 212.467,607.02 203.5,603.54C202.98,603.34 202.5,603.09 201.99,602.88C201.76,601.38 201.72,568.33 201.94,566.43C202.49,566.13 202.94,566.54 203.35,566.72C207.3,568.35 211.21,570.07 215.18,571.64C228.493,576.882 242.204,581.056 256.18,584.12C261.887,585.38 267.623,586.467 273.39,587.38C277.67,588.04 281.99,588.47 286.29,589.02C291.91,589.75 297.57,590.14 303.22,590.37C309.22,590.61 315.22,590.86 321.16,590.6C322.61,590.54 324.05,590.51 325.5,590.5C329.72,590.5 333.93,590.17 338.13,589.8C341.45,589.51 344.78,589.29 348.13,588.92C351.48,588.55 354.86,588.05 358.21,587.53C362.21,586.9 366.29,586.28 370.29,585.53C378.237,583.983 386.107,582.08 393.9,579.82C416.138,573.39 437.482,564.195 457.43,552.45L458.88,551.57C458.97,551.51 459.02,551.38 459.09,551.28C459.16,551.18 459.09,551 459.01,550.92C439.01,528.113 418.993,505.307 398.96,482.5C398.767,482.314 398.56,482.144 398.34,481.99C397.82,482.42 397.34,482.8 396.85,483.2C388.848,490.029 380.091,495.921 370.75,500.76C363.987,504.249 356.819,506.892 349.41,508.63C345.302,509.544 341.135,510.168 336.94,510.5C332.919,510.8 328.878,510.73 324.87,510.29C319.677,509.777 314.56,508.67 309.62,506.99C299.56,503.628 290.324,498.175 282.52,490.99C281.671,490.243 280.882,489.43 280.16,488.56C274.227,481.274 269.34,473.196 265.64,464.56C263.123,458.652 261.379,452.444 260.45,446.09C259.609,440.225 259.521,434.277 260.19,428.39C261.55,416.22 265.87,405.11 272.19,394.74C278.073,385.175 285.392,376.57 293.89,369.23C294.3,368.87 294.7,368.48 295.18,368.03L293.38,365.76C289.786,361.295 286.622,356.501 283.93,351.44C280.921,345.835 278.767,339.812 277.54,333.57C276.569,328.632 276.337,323.577 276.85,318.57C277.68,310.396 280.548,302.559 285.19,295.78C286.369,294.065 287.749,292.497 289.3,291.11C297.577,283.568 307.757,278.425 318.74,276.24C322.135,275.587 325.569,275.153 329.02,274.94C333.042,274.685 337.078,274.745 341.09,275.12C347.482,275.67 353.806,276.842 359.97,278.62C363.836,279.709 367.636,281.021 371.35,282.55L373.51,283.55C373.51,284.03 373.6,284.55 373.59,285.01C373.397,292.13 373.203,299.243 373.01,306.35C373.01,307.99 372.93,309.62 372.88,311.26C372.88,311.62 372.88,311.98 372.8,312.35C372.06,312.48 371.67,311.98 371.23,311.69C367.238,309.057 363.061,306.718 358.73,304.69C354.232,302.57 349.518,300.944 344.67,299.84C340.426,298.917 336.079,298.554 331.74,298.76C325.428,299.013 319.28,300.845 313.86,304.09C310.864,305.84 308.192,308.093 305.96,310.75C302.337,315.118 300.646,320.78 301.28,326.42C301.807,331.503 303.319,336.435 305.73,340.94C308.6,346.696 312.277,352.013 316.65,356.73L362.54,405.84L396.32,442C396.754,442.578 397.29,443.073 397.9,443.46C398.16,442.92 398.38,442.46 398.57,442.05C401.111,436.015 402.901,429.691 403.9,423.22C404.726,418.057 405.044,412.825 404.85,407.6C404.498,399.421 403.08,391.322 400.63,383.51C400.37,382.67 400.13,381.84 399.85,380.92C400.193,380.741 400.547,380.584 400.91,380.45C408.243,378.33 415.607,376.223 423,374.13C423.47,373.99 424,373.91 424.54,373.77C424.694,374.12 424.821,374.481 424.92,374.85C425.951,381.505 426.619,388.212 426.92,394.94C427.11,399.28 427.26,403.62 427.12,407.94C426.95,414.861 426.349,421.764 425.32,428.61C423.853,438.709 420.936,448.544 416.66,457.81C416.07,459.06 415.44,460.29 414.78,461.62C415.03,461.94 415.28,462.29 415.57,462.62L464.44,514.93C470.11,521 475.74,527.12 481.44,533.14C489.52,541.61 497.18,550.48 505.09,559.14C505.43,559.51 505.72,559.91 506.09,560.37C505.7,560.7 505.39,560.98 505.09,561.24C491.366,571.668 476.8,580.936 461.54,588.95C442.394,599.03 422.244,607.074 401.42,612.95C393.2,615.27 384.91,617.3 376.5,618.85C371.69,619.74 366.86,620.61 362.02,621.37C358.61,621.9 355.17,622.25 351.73,622.64C348.55,623 345.36,623.36 342.16,623.64C339.6,623.86 337.02,623.97 334.44,624.13C331.86,624.29 329.16,624.44 326.52,624.61C326.216,624.665 325.92,624.759 325.64,624.89L307.54,624.84ZM188.09,596.84C184.92,596.04 169.94,588.44 160.16,582.77C135.231,568.333 112.415,550.521 92.36,529.84C71.656,508.557 54.101,484.423 40.23,458.17C27.046,433.297 17.326,406.737 11.34,379.23C6.581,357.42 4.167,335.163 4.14,312.84C4.63,312.25 5.14,312.43 5.65,312.44C12.07,312.5 18.49,312.59 24.91,312.64L36.43,312.64C36.92,312.64 37.43,312.69 38.01,312.72C38.01,313.16 38.11,313.52 38.12,313.88C38.27,318.79 38.33,323.7 38.58,328.6C38.79,332.6 39.17,336.6 39.58,340.6C39.9,343.92 40.34,347.23 40.75,350.53C41.44,356.16 42.42,361.73 43.53,367.28C46.024,379.733 49.365,392.002 53.53,404C63.597,432.872 78.378,459.878 97.27,483.92C114.457,505.87 134.841,525.118 157.74,541.02L159.82,542.43C160.36,542.24 160.28,541.88 160.29,541.6L160.29,144.21C160.146,143.241 160.245,142.251 160.58,141.33L189.32,142.11C189.783,142.599 190.152,143.168 190.41,143.79L215.62,189.15L259.13,267.52C259.53,268.23 259.95,268.93 260.46,269.8C262.46,266.47 264.11,263.18 265.9,259.94C267.69,256.7 269.45,253.43 271.23,250.17L276.64,240.22L281.98,230.45L287.31,220.68L292.64,210.9L298.05,200.95L303.38,191.18C305.153,187.92 306.93,184.66 308.71,181.4C310.49,178.14 312.267,174.883 314.04,171.63C315.84,168.297 317.647,164.983 319.46,161.69L324.79,151.91L330.07,142.23C331.67,142.03 356.21,141.99 358.42,142.17C358.528,142.496 358.608,142.831 358.66,143.17L358.66,261.4C358.744,262.209 358.697,263.026 358.52,263.82C357.92,264.19 357.4,263.77 356.86,263.7L348.47,262.48C346.42,262.19 344.36,261.9 342.3,261.66C341.06,261.52 339.8,261.43 338.54,261.41L331.13,261.41C331.049,261.334 330.972,261.254 330.9,261.17C330.869,261.119 330.851,261.06 330.85,261L330.85,200.06C330.17,199.8 330.11,200.3 329.95,200.58L321.39,215.84C301.017,251.953 280.64,288.06 260.26,324.16C260.019,324.785 259.647,325.351 259.17,325.82C259.087,325.805 259.006,325.778 258.93,325.74C258.879,325.701 258.835,325.654 258.8,325.6L258.5,325.13L258.32,324.79L258.13,324.47L258.04,324.3L189.32,201.21L189.14,200.87C189.14,200.82 189.07,200.77 189.04,200.71L188.86,200.38C188.83,200.324 188.797,200.271 188.76,200.22C188.726,200.165 188.686,200.115 188.64,200.07C188.594,200.025 188.56,199.97 188.51,199.95C188.46,199.93 188.39,199.95 188.2,199.95C188.07,203.01 188.2,206.07 188.14,209.12C188.08,212.17 188.14,215.29 188.14,218.37L188.14,587.42L188.09,596.84ZM628.63,323C628.51,324.56 628.3,326.12 628.3,327.68C628.3,332.6 627.87,337.49 627.4,342.38C626.78,348.833 625.957,355.26 624.93,361.66C622.977,373.834 620.305,385.881 616.93,397.74C609.181,425.07 597.71,451.206 582.84,475.41C568.669,498.528 551.552,519.706 531.92,538.41C528.92,541.23 525.92,543.95 522.87,546.7C522.41,547.12 521.92,547.5 521.41,547.91C520.785,547.572 520.247,547.093 519.84,546.51C514.98,541.23 510.127,535.943 505.28,530.65L499.54,524.38C499.2,524.01 498.89,523.63 498.47,523.15C498.83,522.77 499.13,522.4 499.47,522.08C507.123,515.397 514.41,508.307 521.3,500.84C544.189,476.028 562.369,447.255 574.95,415.93C581.033,400.813 585.746,385.18 589.03,369.22C590.41,362.57 591.53,355.87 592.44,349.14C593.46,341.647 594.15,334.13 594.51,326.59C594.86,319.17 595.09,311.74 594.73,304.31C594.54,300.47 594.49,296.63 594.2,292.8C593.84,288.1 593.32,283.4 592.83,278.71C592.29,273.52 591.45,268.36 590.55,263.22C588.785,253.185 586.448,243.258 583.55,233.49C573.501,199.29 556.907,167.365 534.69,139.49C507.373,104.905 472.22,77.307 432.14,58.98L429.24,57.63L429.24,21.35C430,20.97 430.55,21.46 431.09,21.67C438.423,24.557 445.613,27.713 452.66,31.14C475.176,42.035 496.29,55.617 515.54,71.59C550.817,100.717 579.26,137.249 598.85,178.59C608.518,198.939 615.926,220.286 620.94,242.25C622.713,249.917 624.17,257.64 625.31,265.42C626.24,271.71 626.98,278.02 627.58,284.34C628.06,289.34 628.23,294.27 628.38,299.24C628.38,299.98 628.54,300.72 628.63,301.46L628.63,323ZM311.11,386.09C311.014,386.077 310.916,386.077 310.82,386.09C310.52,386.31 310.21,386.52 309.91,386.75C305.585,390.117 301.659,393.969 298.21,398.23C288.35,410.57 284.61,424.54 287.21,440.14C288.398,446.838 290.6,453.316 293.74,459.35C295.425,462.737 297.716,465.788 300.5,468.35C305.556,473.192 311.319,477.238 317.59,480.35C323.613,483.242 330.181,484.824 336.86,484.99C342.645,485.096 348.403,484.165 353.86,482.24C364.099,478.624 373.386,472.732 381.02,465.01C381.32,464.71 381.59,464.38 381.95,464.01L311.56,386.54C311.413,386.38 311.252,386.233 311.08,386.1L311.11,386.09ZM327.16,0C327.77,0.09 328.39,0.25 329.01,0.28C332.65,0.47 336.3,0.59 339.94,0.81C342.07,0.94 344.2,1.2 346.33,1.41C347.77,1.55 349.2,1.72 350.64,1.86C356.15,2.38 361.64,3.2 367.08,4.07C376.39,5.55 385.6,7.51 394.73,9.85C400.73,11.39 406.693,13.13 412.62,15.07C413.03,15.2 413.44,15.37 413.93,15.56C413.93,16.2 414,16.82 414,17.44C414,26.693 414.017,35.947 414.05,45.2L414.05,325.21C414.51,325.27 414.87,325.34 415.22,325.36L525.11,325.36C525.929,325.244 526.765,325.32 527.55,325.58C527.616,325.822 527.659,326.07 527.68,326.32L527.68,353.04C527.24,353.11 526.89,353.2 526.54,353.22C526.19,353.24 525.66,353.22 525.22,353.22L385.69,353.22C385.606,352.891 385.546,352.557 385.51,352.22L385.51,45.47C385.569,44.491 385.526,43.509 385.38,42.54C379.68,40.99 373.91,39.79 368.13,38.68C362.35,37.57 356.49,36.68 350.63,35.97C344.77,35.26 338.87,34.68 332.96,34.4C327.05,34.12 321.17,34 315.2,33.8C315.129,33.423 315.079,33.042 315.05,32.66C314.94,28.94 314.78,25.23 314.76,21.52C314.76,17.43 314.86,13.33 314.9,9.24L314.9,2.07C314.862,1.383 314.788,0.699 314.68,0.02L327.16,0ZM331.05,326.84C330.81,325.02 330.8,311.33 331.05,309.54C334.87,308.99 338.63,309.86 342.41,310.29C348.287,311.787 353.828,314.383 358.74,317.94L358.74,324.73C358.693,325.002 358.612,325.267 358.5,325.52C349.34,325.92 340.26,326.55 331.05,326.84Z" style="fill:url(#_Linear1);fill-rule:nonzero;"></path>
        <path d="M0,293.53C0.06,293.53 0.14,293.53 0.17,293.46C4.127,289.415 8.339,285.628 12.78,282.12C14.86,280.38 17.01,278.74 19.13,277.05L20.38,276.05C20.05,275.56 19.76,275.1 19.44,274.66C15.08,268.72 10.92,262.647 6.96,256.44C6.55,255.81 6.16,255.16 5.78,254.51C5.615,254.243 5.48,253.958 5.38,253.66C4.93,252.24 5.67,251.46 7.14,251.81C10.74,252.68 14.33,253.58 17.93,254.46L37.13,259.19C37.744,259.319 38.352,259.48 38.95,259.67C39.387,259.79 39.671,260.221 39.61,260.67C39.5,261.41 39.37,262.16 39.19,262.89C39.079,263.272 38.69,263.508 38.3,263.43C37.798,263.382 37.3,263.298 36.81,263.18L13.54,257.74C13.109,257.681 12.675,257.651 12.24,257.65C12.67,258.37 12.96,258.92 13.31,259.43C16.643,264.31 19.977,269.187 23.31,274.06C23.7,274.63 24.13,275.17 24.47,275.78C24.945,276.495 24.782,277.468 24.1,277.99C23.638,278.417 23.151,278.814 22.64,279.18C18.1,282.68 13.687,286.347 9.4,290.18C9.05,290.49 8.74,290.86 8.26,291.37C10.68,291.9 12.94,291.98 15.15,292.3C17.36,292.62 19.64,292.86 21.89,293.13L28.44,293.9C30.676,294.06 32.9,294.354 35.1,294.78C35.533,295.957 35.501,297.256 35.01,298.41C33.762,298.597 32.491,298.574 31.25,298.34C29.18,298.16 27.12,297.92 25.06,297.7L19.81,297.12C18.37,296.96 16.94,296.78 15.5,296.64C11.31,296.22 7.11,295.8 2.92,295.42C1.859,295.332 0.842,294.955 -0.02,294.33L0,293.53ZM42.02,247.37C41.765,247.405 41.505,247.405 41.25,247.37L9.31,238C8.77,236.57 9.37,235.42 9.81,234.28C9.89,234.08 10.32,233.92 10.59,233.92C10.961,233.968 11.324,234.066 11.67,234.21L41.38,243.33C43.11,243.87 43.18,244 42.77,245.72C42.726,246.342 42.46,246.928 42.02,247.37ZM12.54,224.68C12.49,224.51 12.37,224.33 12.39,224.17C12.64,221.85 13.39,220.08 15.94,219.17C20.26,217.66 24.48,215.85 28.74,214.17C29.25,213.97 29.74,213.75 30.23,213.55C30.38,212.82 29.92,212.4 29.67,211.92C27.33,207.4 24.95,202.92 22.61,198.37C21.29,195.83 21.53,196.08 22.44,193.6C22.663,193.109 22.92,192.635 23.21,192.18C23.54,192.47 23.83,192.61 23.96,192.85C24.31,193.45 24.58,194.09 24.89,194.7C27.557,199.98 30.223,205.253 32.89,210.52C33.17,211.07 33.5,211.6 33.89,212.23C34.45,212.07 34.98,211.95 35.5,211.77C41.19,209.77 46.95,208.02 52.77,206.48C53.459,206.135 54.265,206.102 54.98,206.39C54.919,207.531 54.534,208.631 53.87,209.56C53.494,209.975 52.997,210.262 52.45,210.38C50.72,210.93 48.95,211.38 47.22,211.92C43.75,213.02 40.29,214.15 36.83,215.28C36.55,215.37 36.28,215.52 35.9,215.69C36.23,216.33 36.48,216.89 36.79,217.41C39.33,221.603 41.88,225.793 44.44,229.98C44.616,230.313 44.82,230.631 45.05,230.93C46.52,232.67 45.99,234.41 45.05,236.15C45.05,236.2 44.94,236.22 44.79,236.32C44.545,236.189 44.32,236.024 44.12,235.83C43.807,235.439 43.52,235.028 43.26,234.6L33.54,218.84C33.18,218.26 32.83,217.66 32.42,216.96C31.93,217.11 31.42,217.23 31.01,217.39C25.423,219.47 19.913,221.75 14.48,224.23C13.901,224.591 13.219,224.75 12.54,224.68ZM46.76,156.48C46.897,157.188 47.195,157.855 47.63,158.43C52.383,166.87 57.437,175.127 62.79,183.2C63.14,183.72 63.48,184.25 63.79,184.78C64.222,185.365 64.261,186.155 63.89,186.78C63.65,187.22 63.47,187.69 63.21,188.12C63.089,188.381 62.826,188.549 62.539,188.549C62.314,188.549 62.1,188.446 61.96,188.27C61.56,187.78 61.2,187.27 60.85,186.74C56.62,180.49 52.55,174.14 48.73,167.64C46.47,163.79 44.27,159.9 42.07,156.02C41.692,155.369 41.387,154.678 41.16,153.96C41.104,153.833 41.075,153.696 41.075,153.557C41.075,153.037 41.481,152.599 42,152.56C42.614,152.43 43.243,152.38 43.87,152.41C47.95,152.62 52.03,152.81 56.11,153.11C59.55,153.36 62.99,153.74 66.43,154.11C69.05,154.383 71.67,154.677 74.29,154.99C76.16,155.21 78.02,155.49 79.89,155.76C80.133,155.806 80.367,155.894 80.58,156.02C80.809,156.099 80.964,156.316 80.964,156.559C80.964,156.642 80.945,156.724 80.91,156.8C80.497,157.564 80.022,158.293 79.49,158.98C79.119,159.344 78.584,159.488 78.08,159.36C76.08,159.09 73.98,158.81 71.92,158.55C70.18,158.34 68.43,158.14 66.68,157.96C64.68,157.74 62.68,157.54 60.68,157.36C58.99,157.2 57.3,157.05 55.61,156.93C53.04,156.76 50.46,156.61 47.89,156.47C47.513,156.451 47.136,156.455 46.76,156.48ZM86.95,147.97C86.514,149.067 85.771,150.015 84.81,150.7C84.38,150.43 83.95,150.19 83.55,149.89C75.097,143.43 66.653,136.963 58.22,130.49C57.814,130.192 57.435,129.857 57.09,129.49C56.891,129.286 56.779,129.012 56.779,128.727C56.779,128.369 56.955,128.033 57.25,127.83C57.546,127.598 57.887,127.428 58.25,127.33C58.856,127.167 59.475,127.053 60.1,126.99C63.67,126.61 67.23,126.22 70.8,125.91C73.49,125.68 76.2,125.61 78.9,125.42C84.24,125.05 89.59,125.05 94.9,125.06C95.12,125.06 95.35,125.01 95.76,124.96C95.389,124.396 94.926,123.899 94.39,123.49L77.32,107.74C76.85,107.31 76.38,106.89 75.94,106.45C75.34,105.84 75.27,105.45 75.76,104.79C76.25,104.13 76.93,103.5 77.44,102.94C78.44,102.94 78.81,103.57 79.3,104.03C83.06,107.563 86.817,111.103 90.57,114.65L102.09,125.55C102.519,125.92 102.917,126.325 103.28,126.76C103.465,126.971 103.566,127.243 103.566,127.523C103.566,128.094 103.145,128.584 102.58,128.67C102.087,128.77 101.583,128.811 101.08,128.79C99.32,128.79 97.56,128.73 95.79,128.74C91.79,128.74 87.86,128.74 83.9,128.85C80.69,128.95 77.49,129.23 74.29,129.45C72.16,129.6 70.02,129.77 67.89,129.96C66.97,130.04 66.05,130.2 64.89,130.36C65.45,130.86 65.79,131.21 66.16,131.5L85.31,146.56C85.85,146.98 86.35,147.45 86.95,147.97ZM111.54,118.29C111.08,117.92 110.73,117.67 110.42,117.37C105.07,112.18 88.01,94.54 86.87,92.99C87.028,92.631 87.233,92.295 87.48,91.99C90.89,88.64 94.23,85.21 97.78,81.99C100.756,79.243 104.43,77.364 108.4,76.56C113.76,75.49 118.52,76.65 122.4,80.56C125.631,83.713 127.581,87.955 127.87,92.46C128.008,95.045 127.592,97.629 126.65,100.04C125.329,103.529 123.284,106.699 120.65,109.34C117.93,112.15 115.13,114.86 112.36,117.61C112.104,117.857 111.83,118.084 111.54,118.29ZM111.74,113.29C111.944,113.185 112.139,113.061 112.32,112.92C114.32,110.92 116.38,108.92 118.32,106.92C120.007,105.218 121.414,103.261 122.49,101.12C123.468,99.213 124.053,97.128 124.21,94.99C124.4,91.498 123.3,88.055 121.12,85.32C117.997,80.867 112.269,78.997 107.12,80.75C104.05,81.721 101.235,83.364 98.88,85.56C96.7,87.56 94.61,89.66 92.5,91.73C92.315,91.949 92.154,92.187 92.02,92.44C92.9,93.63 110.07,111.75 111.78,113.25L111.74,113.29Z" style="fill:white;"></path>
        <path d="M157.15,76.42C157.7,76.1 158.25,75.82 158.77,75.5C162.98,72.99 167.2,70.5 171.4,67.96C173.6,66.63 173.72,67.17 174.61,68.96C174.678,69.121 174.732,69.289 174.77,69.46C174.58,70.3 173.84,70.46 173.26,70.81C170.12,72.67 166.96,74.48 163.83,76.36C161.73,77.62 159.69,78.99 157.62,80.3C157.1,80.63 156.55,80.91 156.1,81.17C155.17,80.8 154.91,80.04 154.5,79.42C150.413,73.16 146.33,66.887 142.25,60.6L137.42,53.16C137.09,52.65 136.8,52.1 136.51,51.58C137.129,50.666 138.017,49.967 139.05,49.58C139.403,49.414 139.829,49.529 140.05,49.85C140.38,50.31 140.69,50.78 140.99,51.26L155.84,74.69C156.181,75.334 156.623,75.918 157.15,76.42ZM166.67,34C167.54,32.85 168.74,32.62 169.67,32.15C170.6,32.47 170.78,33.15 171.08,33.79C172.78,37.22 174.46,40.66 176.16,44.1C179.1,50.1 182.047,56.067 185,62C185.3,62.61 185.56,63.24 185.81,63.82C185.212,64.607 184.348,65.151 183.38,65.35C183.006,65.505 182.57,65.348 182.38,64.99C182.15,64.62 181.94,64.23 181.74,63.84C176.953,54.44 172.17,45.037 167.39,35.63C167.14,35.14 166.94,34.61 166.67,34ZM215.69,21.08C215.165,21.131 214.635,21.131 214.11,21.08C211.337,20.482 208.479,20.38 205.67,20.78C201.01,21.334 196.68,23.474 193.41,26.84C186.33,34.39 189.67,44.41 195.91,48.56C199.429,50.971 203.764,51.892 207.96,51.12C212.488,50.279 216.754,48.38 220.41,45.58C220.754,45.291 221.071,44.974 221.36,44.63C220.53,42.14 219.72,39.7 218.9,37.26C218.63,36.42 218.33,35.59 218.08,34.75C218.021,34.633 217.99,34.504 217.99,34.373C217.99,33.976 218.272,33.63 218.66,33.55C219.51,33.06 220.498,32.866 221.47,33C221.7,33.419 221.9,33.853 222.07,34.3C223.13,37.59 224.07,40.9 225.25,44.17C225.641,45.052 225.314,46.098 224.49,46.6C219.72,50.6 214.41,53.53 208.25,54.6C202.798,55.707 197.126,54.424 192.68,51.08C187.511,47.416 184.763,41.187 185.54,34.9C185.892,31.748 187.161,28.768 189.19,26.33C191.97,22.892 195.656,20.298 199.83,18.84C204.834,16.893 210.311,16.503 215.54,17.72C215.787,17.766 216.03,17.826 216.27,17.9C216.612,18.002 216.848,18.319 216.848,18.676C216.848,18.769 216.832,18.862 216.8,18.95C216.704,19.249 216.577,19.538 216.42,19.81C216.22,20.25 215.95,20.66 215.69,21.08ZM236.85,45.16C236.698,44.894 236.568,44.617 236.46,44.33C233.44,33.563 230.423,22.79 227.41,12.01C227.375,11.755 227.375,11.495 227.41,11.24C228.297,10.633 229.336,10.287 230.41,10.24C230.87,10.172 231.31,10.475 231.41,10.93C231.62,11.52 231.77,12.14 231.93,12.74L234.93,24.04C235,24.33 235.11,24.62 235.2,24.9C235.899,25.053 236.627,25.004 237.3,24.76C243.23,23.36 249.22,22.27 255.22,21.21C256.33,21.02 257.44,20.86 258.66,20.67C258.691,20.287 258.691,19.903 258.66,19.52C257.88,15.31 257.08,11.11 256.29,6.91C256.21,6.49 256.21,6.05 256.17,5.61C257.36,4.61 258.67,4.87 259.96,4.9C260.355,5.419 260.579,6.048 260.6,6.7C262.36,16.8 264.11,26.9 265.85,37C265.97,37.68 266.08,38.36 266.14,39.05C266.179,39.448 265.911,39.816 265.52,39.9C264.782,40.055 264.033,40.155 263.28,40.2C262.884,40.215 262.53,39.945 262.44,39.56C262.333,39.202 262.247,38.838 262.18,38.47C261.4,34.26 260.63,30.06 259.84,25.85C259.74,25.31 259.58,24.77 259.45,24.22C258.75,24.054 258.02,24.054 257.32,24.22C247.87,25.69 238.38,27.68 236.32,28.62C236.347,29.304 236.482,29.979 236.72,30.62C237.807,34.76 238.903,38.893 240.01,43.02C240.128,43.31 240.195,43.618 240.21,43.93C240.21,44.21 240.01,44.62 239.81,44.7C238.86,45.03 237.95,45.54 236.85,45.16ZM288.54,5.66C288.61,6.99 288.64,8.11 288.73,9.23C289.077,13.363 289.433,17.497 289.8,21.63C290.12,25.2 290.45,28.77 290.8,32.34C290.92,33.71 291.04,35.09 291.13,36.47C291.18,37.29 290.85,37.71 290.08,37.73C287.56,37.81 287.32,38.13 287.08,35.28C286.59,29.58 285.93,23.9 285.36,18.21C285.05,15.08 284.78,11.95 284.47,8.82C284.38,7.89 284.24,6.96 284.11,5.97C283.725,5.891 283.333,5.844 282.94,5.83C279.993,6.017 277.043,6.22 274.09,6.44C273.03,6.52 271.97,6.72 270.91,6.77C269.3,6.86 269.1,6.64 268.97,4.99L268.97,4.61C268.963,4.564 268.96,4.517 268.96,4.47C268.96,3.921 269.412,3.47 269.96,3.47C269.963,3.47 269.967,3.47 269.97,3.47C271.4,3.31 272.84,3.16 274.28,3.05L282.74,2.42C283.06,2.42 283.37,2.36 283.69,2.35C289.59,2.18 295.5,1.78 301.41,1.91L301.6,1.91C303.38,1.91 304.05,2.82 303.6,4.56C303.533,4.948 303.194,5.236 302.8,5.24L301.1,5.24C297.65,5.3 294.19,5.36 290.73,5.44C290.02,5.49 289.4,5.58 288.54,5.66Z" style="fill:url(#_Linear2);"></path>
    </g>
    <defs>
        <linearGradient id="_Linear1" x1="0" y1="0" x2="1" y2="0" gradientUnits="userSpaceOnUse" gradientTransform="matrix(391.557,448.3,-448.587,391.808,127.896,105.114)"><stop offset="0" style="stop-color:rgb(242,12,121);stop-opacity:1"></stop><stop offset="1" style="stop-color:rgb(253,189,33);stop-opacity:1"></stop></linearGradient>
        <linearGradient id="_Linear2" x1="0" y1="0" x2="1" y2="0" gradientUnits="userSpaceOnUse" gradientTransform="matrix(158.041,-46.4629,46.4629,158.041,145.694,62.9136)"><stop offset="0" style="stop-color:rgb(242,12,121);stop-opacity:1"></stop><stop offset="1" style="stop-color:rgb(253,189,33);stop-opacity:1"></stop></linearGradient>
    </defs>
</svg>
