<?xml version="1.0" encoding="UTF-8"?>
<svg xmlns="http://www.w3.org/2000/svg" viewBox="0 0 1561.6 2000">
	<g fill="#ffffff">
		<path d="M316.3,1999c-108,0-208.7,0-316.3,0C211.1,1330.1,420.8,666.1,631.1-0.2c99.1,0,196.3,0,298.5,0 c210,664.6,420.4,1330.3,631.9,1999.7c-107.2,0-209.7,0-316.5,0C1091.6,1490.9,937.9,981.7,784.3,472.4c-2.7,0.4-5.6,0.9-8.3,1.4 C622.9,981.9,469.7,1489.9,316.3,1999z"/>
		<path d="M785.1,886.8c106.7,369.6,213.5,739.4,321.4,1113c-64.5,0-121.7,0-186.7,0 c-44.9-183.2-90.2-368.5-135.6-553.8c-2.5,0.2-5.1,0.4-7.7,0.6c-44.5,182.7-89.1,365.3-134.5,551.6c-60.5,0-120.7,0-187.1,0 c107.2-371.2,213.8-739.9,320.4-1108.6C778.5,888.8,781.7,887.9,785.1,886.8z"/>
	</g>
</svg>
