<?xml version="1.0" encoding="UTF-8"?>
<svg id="Layer_1" data-name="Layer 1" xmlns="http://www.w3.org/2000/svg" viewBox="0 0 3217.83 1080">
  <defs>
    <style>
      .cls-1 {
        fill: #e0b96f;
      }

      .cls-2 {
        fill: #dab46c;
      }
    </style>
  </defs>
  <polygon class="cls-1" points="1358.56 748.37 1217.31 748.56 1126.8 353.01 1128.74 748.25 1003.15 748.4 1003.13 6.5 1151.67 6.19 1235.27 368.51 1232.82 6.31 1358.55 6.39 1358.56 748.37"/>
  <path class="cls-1" d="M1770.69,593.86c0,63.98-23.04,121.81-84.24,143.61-20.17,6.87-40.15,10.84-62.07,10.86l-214.04.21-.03-742.18,209.96-.05c23.77,0,45.38,3.57,67.15,11.37,60.31,21.71,83.22,80.22,83.23,141.24l.04,434.94ZM1625.09,584.65l-.11-416.47c0-18.73-13.89-32.02-30.41-33.87-13.16-1.47-25.19-1.45-38.66-.15v486.19c11.49,1.79,21.49.52,32.59.56,19.99.06,36.61-13.19,36.6-36.27Z"/>
  <path class="cls-1" d="M223.75,754.68l-95.39.02c-51.06,0-99.27-21.21-117.37-71.62-6.89-18.88-10.23-38.11-10.26-58.39l-.18-110.52,142.12-.14.47,93.69c.98,11.65,8.3,20.44,20.09,21.53,8.88.63,17.48,1.04,26.44-.31,10.18-1.53,18.21-9.99,18.23-20.77l.18-95.59c.03-16.97-7.4-32.57-20.87-42.84l-140.66-107.3C17.21,340.06,1.31,308.18,1.19,271.1l-.47-139.91C.54,78.91,21.02,28.33,73.3,9.6,90.24,3.53,107.64.06,126.04.05L222.55,0c50.43-.03,99.01,21.97,116.62,71.79,6.92,19,10.23,38.54,10.24,59.16v90.17s-141.63.06-141.63.06l-.92-74.15c-.15-12.21-8.9-20.74-20.77-21.67-7.28-.57-13.98-.6-21.33.05-11.51,1.01-20.41,9.51-20.44,21.63l-.19,75.89c-.04,17.42,7.57,32.86,21.35,43.37l140.7,107.35c29.15,22.24,44.74,53.75,44.83,90.79l.4,160.67c.05,21.26-3.82,41.33-11.28,60.59-18.6,48.05-65.19,68.96-116.39,68.97Z"/>
  <polygon class="cls-1" points="835.32 748.62 664.36 178.63 493.54 748.57 377.53 748.29 609.75 6.47 718.95 6.46 951.35 748.28 835.32 748.62"/>
  <polygon class="cls-1" points="2507.26 749.04 2336.23 177.92 2165.51 748.16 2049.32 748.03 2281.69 6.14 2390.7 6.45 2623.05 747.95 2507.26 749.04"/>
  <polygon class="cls-1" points="2080.03 312.65 2080.1 445.2 1966 445.61 1965.87 748.52 1820.44 748.52 1820.37 6.36 2085.28 6.2 2085.33 138.47 1966.1 138.94 1965.96 312.33 2080.03 312.65"/>
  <polygon class="cls-1" points="3213.76 616.01 3213.85 748.64 2963.52 748.29 2963.52 6.34 3109.08 6.31 3109.08 615.52 3213.76 616.01"/>
  <polygon class="cls-1" points="2924.87 616 2925.08 748.57 2674.91 748.51 2674.91 6.41 2820.35 6.13 2820.49 615.63 2924.87 616"/>
  <polygon class="cls-1" points="664.57 538.73 613.23 748.17 544.58 747.88 664.57 330.39 784.28 748.07 715.67 748.4 664.57 538.73"/>
  <polygon class="cls-1" points="2336.19 538.76 2284.95 748.35 2216.37 748.13 2336.29 330.16 2456.04 748.01 2387.66 748.61 2336.19 538.76"/>
  <path class="cls-2" d="M391.93,1076.68c-6.52,3.01-12.48,1.66-19.97.9l-144.69-182.03-.69,181.82c-7.64,1.42-14.18,1.46-21.95-.04v-222.68c3.69-1.87,14.62-4.59,18.45.25l146.13,184.47.6-185.5c8.02-1.46,14.59-1.38,22.02.19l.1,222.62Z"/>
  <path class="cls-2" d="M1347.68,1077.99l-52.32-82.48-65.91-.21-.39,82.13c-7.57,1.29-14.24,1.39-21.96-.06l.03-224.59c35.3,2.23,69.91-3.39,104.78,1.73,44.45,6.53,66.45,57.64,50.71,97.01-7.8,20.4-21.99,34.18-44.08,40.06l53.46,85.29c-7.1,3.13-14.42.78-24.32,1.12ZM1343.5,939.62c7.37-27.73-6.37-60.72-35.76-65.46-25.92-4.19-51.66.2-78.38-1.46v102.57c27.64-1.07,53.73,1.8,80.24-1.17,17.64-1.97,28.5-17.57,33.9-34.48Z"/>
  <path class="cls-2" d="M1020.94,972.09l-108.85.62-.05,85.51,126.86.32c1.85,6.21,2.19,13.09.08,19.67l-149.2-.14v-225.08s146.71-.12,146.71-.12c1.69,6.76,1.53,13.32-.19,19.69l-124.25.4.04,80.62,108.16.37c2.07,5.8,1.15,11.27.67,18.14Z"/>
  <path class="cls-2" d="M3198.32,972.09l-108.85.62-.05,85.51,126.86.32c1.85,6.21,2.19,13.09.08,19.67l-149.2-.14v-225.08s146.71-.12,146.71-.12c1.69,6.76,1.53,13.32-.19,19.69l-124.25.4.04,80.62,108.16.37c2.07,5.8,1.15,11.27.67,18.14Z"/>
  <path class="cls-2" d="M1664.8,1008.5l-100.41-.7-29.03,70.06c-8.16.44-14.99,1.05-23.56-.2l92.82-223.65c7.18-1.85,12.9-1.98,19.76,0l91.78,222.58c-7.41,3.33-15.36,1.78-23.35.72l-28-68.8ZM1658.65,989.27l-44.22-109.09-45.44,109.43,89.67-.34Z"/>
  <path class="cls-2" d="M1898.4,1031.12c18.08,21.61,42.35,31.3,69.18,28.27,24.08-2.72,47.06-17.23,59.3-40.64,6.92,2.67,12.28,4.78,18.03,9.73-24.46,51.03-98.62,69.2-146.43,31.3-48.36-38.33-60.78-106.96-28.11-159.34,21.89-35.1,59.86-52.82,100.64-48.29,30.24,3.36,56.91,20.34,69.42,48.17-5.72,5.23-10.64,8.37-17.32,10.39-11.02-20.93-29.79-34.31-53.09-37.96-28.96-4.54-57.09,5.85-74.96,29.71-28.53,38.1-27.86,91.36,3.35,128.67Z"/>
  <path class="cls-2" d="M2885.05,854.13c8.32-2.23,15.1-1.58,23.43-.63l-92.57,223.8c-7.31,1.52-12.97,1.55-20.23-.03l-92.62-223.87c8.37-.98,15-.85,23.15-.06l79.63,196.22,79.21-195.43Z"/>
  <path class="cls-2" d="M651.7,1076.84c-7.31,2.48-14.32,1.82-22.28.65l-.06-204.38-78.34-.52c-2.1-5.73-1.63-12.1-.65-19.58l180.04-.17c1.69,6.67.91,11.91.4,19.31l-79.04.95-.08,203.74Z"/>
  <path class="cls-2" d="M2284.17,1076.84c-7.31,2.48-14.32,1.82-22.28.65l-.06-204.38-78.34-.52c-2.1-5.73-1.63-12.1-.64-19.58l180.04-.17c1.69,6.67.91,11.91.4,19.31l-79.04.95-.08,203.74Z"/>
  <path class="cls-2" d="M22.16,1076.82c-7.52,2.64-14.43,1.75-22.16.47v-223.53c7.72-1.51,14.38-1.51,22.08,0l.09,223.07Z"/>
  <path class="cls-2" d="M2546.73,1076.82c-7.52,2.64-14.43,1.75-22.16.47v-223.53c7.72-1.51,14.38-1.51,22.08,0l.09,223.07Z"/>
</svg>