<svg xmlns="http://www.w3.org/2000/svg" width="433" height="463" viewBox="0 0 433 463" version="1.1"><path d="M 28.139 11.164 C 21.558 13.691, 15.561 19.506, 12.475 26.352 L 10.155 31.500 9.960 87 C 9.853 117.525, 9.817 204.638, 9.880 280.585 L 9.995 418.670 13.068 424.821 C 16.641 431.971, 21.371 436.244, 28.788 439.020 L 34.075 441 215 441 L 395.925 441 401.212 439.020 C 408.629 436.244, 413.359 431.971, 416.932 424.821 L 420.005 418.670 420.120 280.585 C 420.183 204.638, 420.158 117.525, 420.064 87 L 419.894 31.500 416.902 25.286 C 413.434 18.082, 408.732 13.795, 401.212 10.980 L 395.925 9 214.712 9.052 L 33.500 9.104 28.139 11.164 M 31.385 14.617 C 25.991 16.530, 19.484 22.182, 16.716 27.357 L 14.500 31.500 14.213 78.250 C 13.955 120.089, 14.089 125, 15.487 125 C 18.316 125, 19 129.888, 19 150.111 L 19 170.091 16.500 172.591 L 14 175.091 14 191.938 C 14 212.369, 9.077 210, 51.536 210 L 85.909 210 83.521 207.612 C 79.898 203.989, 79.891 203.800, 80.206 122.668 L 80.500 46.835 83.766 43.918 L 87.032 41 215 41 L 342.968 41 346.234 43.918 L 349.500 46.835 349.768 123.978 C 350.059 207.664, 350.149 206.159, 344.697 208.810 C 343.103 209.585, 352.518 209.827, 379 209.689 L 415.500 209.500 415.773 192.319 L 416.047 175.138 413.523 172.614 L 411 170.091 411 149.500 L 411 128.909 413.538 126.371 L 416.075 123.834 415.788 77.667 L 415.500 31.500 413.322 27.432 C 410.164 21.531, 403.967 16.365, 397.878 14.556 C 390.191 12.274, 37.828 12.332, 31.385 14.617 M 211.500 16.945 C 208.167 18.310, 205.860 21.627, 205.290 25.874 C 203.993 35.546, 218.722 40.135, 223.260 31.472 C 224.480 29.145, 224.779 29.028, 225.939 30.426 C 227.619 32.451, 232.405 32.452, 234.429 30.429 C 236.948 27.909, 236.417 23.319, 233.375 21.326 L 230.751 19.607 227.741 21.334 L 224.731 23.061 223.305 21.025 C 220.538 17.074, 215.467 15.322, 211.500 16.945 M 125 21 C 120.540 25.460, 124.153 34, 130.500 34 C 136.761 34, 140.693 24.747, 136.171 20.655 C 133.605 18.332, 127.478 18.522, 125 21 M 294 21 C 289.540 25.460, 293.153 34, 299.500 34 C 306.041 34, 309.908 24.150, 304.777 20.557 C 301.656 18.370, 296.414 18.586, 294 21 M 127.571 23.571 C 125.712 25.431, 125.696 25.564, 127.035 28.066 C 128.875 31.504, 135 29.636, 135 25.637 C 135 24.592, 131.793 22, 130.500 22 C 129.754 22, 128.436 22.707, 127.571 23.571 M 296.571 23.571 C 294.712 25.431, 294.696 25.564, 296.035 28.066 C 297.875 31.504, 304 29.636, 304 25.637 C 304 24.592, 300.793 22, 299.500 22 C 298.754 22, 297.436 22.707, 296.571 23.571 M 212.667 23.667 C 211.424 24.909, 211.991 28.783, 213.500 29.362 C 215.917 30.289, 218 28.964, 218 26.500 C 218 23.778, 214.444 21.889, 212.667 23.667 M 228.667 24.667 C 227.553 25.780, 227.919 27.755, 229.341 28.300 C 231.366 29.078, 233.151 27.556, 232.427 25.670 C 231.774 23.969, 229.872 23.462, 228.667 24.667 M 85.073 46.635 L 83 49.270 83 125.201 C 83 201.397, 83.111 204.039, 86.400 206.235 C 87.005 206.639, 144.987 206.976, 215.250 206.985 L 343 207 345 205 L 347 203 347 125.955 L 347 48.909 344.545 46.455 L 342.091 44 214.618 44 L 87.145 44 85.073 46.635 M 88.462 50.246 C 88.198 50.936, 88.099 85.250, 88.241 126.500 L 88.500 201.500 215 201.500 L 341.500 201.500 341.500 125.500 L 341.500 49.500 215.220 49.246 C 114.724 49.044, 88.842 49.248, 88.462 50.246 M 92 125.500 L 92 199 215 199 L 338 199 338 125.500 L 338 52 215 52 L 92 52 92 125.500 M 43.571 84.571 C 41.029 87.114, 42.717 91, 46.363 91 C 47.193 91, 50 87.913, 50 87 C 50 85.889, 47.111 83, 46 83 C 45.529 83, 44.436 83.707, 43.571 84.571 M 381.571 84.571 C 379.029 87.114, 380.717 91, 384.363 91 C 385.193 91, 388 87.913, 388 87 C 388 85.889, 385.111 83, 384 83 C 383.529 83, 382.436 83.707, 381.571 84.571 M 31.384 96.442 C 30.319 99.217, 31.456 101.500, 33.905 101.500 C 37.059 101.500, 38.846 98.724, 37.070 96.584 C 35.428 94.606, 32.120 94.523, 31.384 96.442 M 43.039 96.928 C 41.611 99.596, 42.770 102, 45.485 102 C 48.748 102, 50.427 99.666, 49.034 97.064 C 47.644 94.467, 44.395 94.393, 43.039 96.928 M 55.080 96.404 C 52.957 98.961, 54.170 101.500, 57.514 101.500 C 60.165 101.500, 60.500 101.164, 60.500 98.500 C 60.500 95.064, 57.238 93.803, 55.080 96.404 M 369.384 96.442 C 368.319 99.217, 369.456 101.500, 371.905 101.500 C 375.059 101.500, 376.846 98.724, 375.070 96.584 C 373.428 94.606, 370.120 94.523, 369.384 96.442 M 381.039 96.928 C 379.611 99.596, 380.770 102, 383.485 102 C 386.748 102, 388.427 99.666, 387.034 97.064 C 385.644 94.467, 382.395 94.393, 381.039 96.928 M 393.040 96.452 C 390.953 98.966, 392.195 101.500, 395.514 101.500 C 397.900 101.500, 398.568 101.021, 398.837 99.113 C 399.358 95.434, 395.395 93.615, 393.040 96.452 M 42.930 108.584 C 41.980 109.729, 41.905 110.630, 42.660 111.834 C 45.077 115.691, 50.876 113.334, 49.515 109.048 C 48.728 106.569, 44.831 106.294, 42.930 108.584 M 380.930 108.584 C 379.980 109.729, 379.905 110.630, 380.660 111.834 C 383.077 115.691, 388.876 113.334, 387.515 109.048 C 386.728 106.569, 382.831 106.294, 380.930 108.584 M 13 133.441 C 13 136.498, 13.450 139, 14 139 C 14.550 139, 15 136.777, 15 134.059 C 15 131.341, 14.550 128.840, 14 128.500 C 13.379 128.116, 13 129.990, 13 133.441 M 415.667 128.667 C 414.599 129.734, 414.898 139, 416 139 C 416.550 139, 417 136.525, 417 133.500 C 417 127.938, 416.869 127.464, 415.667 128.667 M 14.395 156.500 C 14.396 164.200, 14.553 167.218, 14.743 163.206 C 14.934 159.195, 14.932 152.895, 14.741 149.206 C 14.549 145.518, 14.393 148.800, 14.395 156.500 M 415.395 156.500 C 415.396 164.200, 415.553 167.218, 415.743 163.206 C 415.934 159.195, 415.932 152.895, 415.741 149.206 C 415.549 145.518, 415.393 148.800, 415.395 156.500 M 18.229 214.669 C 12.596 216.936, 12.847 234.192, 18.545 236.379 C 19.435 236.720, 27.327 237, 36.082 237 L 52 237 52 225.500 L 52 214 35.750 214.079 C 26.813 214.122, 18.928 214.388, 18.229 214.669 M 56 225.500 L 56 237 215 237 L 374 237 374 225.500 L 374 214 215 214 L 56 214 56 225.500 M 378 225.500 L 378 237 393.918 237 C 402.673 237, 410.565 236.720, 411.455 236.379 C 416.426 234.471, 417.675 222.144, 413.411 217.077 L 410.822 214 394.411 214 L 378 214 378 225.500 M 394.054 221.435 C 393.399 222.224, 393.007 224.361, 393.182 226.185 C 393.725 231.843, 402 231.153, 402 225.449 C 402 220.967, 396.675 218.277, 394.054 221.435 M 396 225 C 396 226.111, 396.667 227, 397.500 227 C 398.333 227, 399 226.111, 399 225 C 399 223.889, 398.333 223, 397.500 223 C 396.667 223, 396 223.889, 396 225 M 14.229 328.110 L 14.500 418.500 16.716 422.643 C 19.583 428.005, 26.036 433.484, 31.795 435.446 C 38.671 437.789, 111.582 437.796, 108.238 435.454 C 107.024 434.604, 104.786 431.791, 103.265 429.204 L 100.500 424.500 100.500 333 L 100.500 241.500 58.902 241 C 25.422 240.598, 16.978 240.229, 15.632 239.110 L 13.958 237.721 14.229 328.110 M 412.500 239.631 C 410.237 240.595, 399.668 240.921, 369.500 240.955 L 329.500 241 329.793 329.250 C 330.108 424.079, 330.108 424.089, 326.478 429.437 L 324.060 433 326.124 433 C 327.346 433, 328.400 433.815, 328.710 435 C 329.180 436.797, 330.074 437, 337.500 437 C 344.926 437, 345.820 436.797, 346.290 435 C 346.612 433.769, 347.654 433, 349 433 C 350.346 433, 351.388 433.769, 351.710 435 C 352.180 436.797, 353.074 437, 360.500 437 C 367.926 437, 368.820 436.797, 369.290 435 C 369.612 433.769, 370.654 433, 372 433 C 373.346 433, 374.388 433.769, 374.710 435 C 375.944 439.716, 397.790 437.330, 405.213 431.668 C 416.541 423.028, 416.051 427.925, 415.755 326.299 L 415.500 238.352 412.500 239.631 M 104.671 241.662 C 103.495 242.838, 103.879 421.549, 105.064 424.685 C 106.491 428.462, 110.685 432.764, 115.210 435.092 L 118.920 437 207.344 437 L 295.767 437 296.290 435 C 297.009 432.250, 301.012 432.330, 301.739 435.110 C 303.336 441.216, 319.909 434.951, 323.884 426.739 L 326.011 422.346 325.755 331.923 L 325.500 241.500 215.421 241.246 C 154.878 241.106, 105.040 241.293, 104.671 241.662 M 114 328.005 L 114 404.010 214.750 403.755 L 315.500 403.500 315.756 327.750 L 316.013 252 215.006 252 L 114 252 114 328.005 M 340.763 255.565 C 330.529 261.118, 334.780 277, 346.500 277 C 350.512 277, 351.698 276.502, 354.600 273.600 C 364.049 264.151, 352.553 249.168, 340.763 255.565 M 118 328 L 118 401 215 401 L 312 401 312 328 L 312 255 215 255 L 118 255 118 328 M 50.384 258.436 C 12.472 267.456, 18.582 322.455, 57.500 322.491 L 66.500 322.500 73 318.921 C 99.496 304.333, 93.223 262.471, 63.943 258.480 C 61.499 258.147, 58.600 257.727, 57.500 257.546 C 56.400 257.366, 53.198 257.767, 50.384 258.436 M 341.039 260.189 C 336.951 264.576, 339.254 272.238, 345.042 273.509 C 350.310 274.666, 355.823 269.417, 354.573 264.435 C 353.052 258.375, 345.063 255.869, 341.039 260.189 M 51.500 260.905 C 16.381 270.220, 21.427 319.486, 57.500 319.486 C 89.665 319.486, 98.878 276.753, 69.586 263.425 C 63.850 260.815, 55.976 259.718, 51.500 260.905 M 48.444 269.886 C 34.039 276.429, 30.783 294.809, 42.028 306.104 C 56.912 321.052, 82.516 308.369, 79.651 287.468 C 77.624 272.685, 61.850 263.797, 48.444 269.886 M 53.275 272.061 C 45.468 273.698, 39.810 280.477, 39.199 288.926 C 38.133 303.662, 52.080 313.304, 65.500 307.110 C 85.350 297.949, 74.750 267.558, 53.275 272.061 M 364.898 282.280 C 357.639 287.151, 357.658 297.831, 364.933 302.734 C 372.986 308.161, 384.048 302.279, 383.965 292.615 C 383.875 282.194, 373.449 276.542, 364.898 282.280 M 367.849 284.833 C 362.345 287.590, 361.503 293.942, 366 298.770 C 370.985 304.121, 382.018 298.838, 380.605 291.776 C 379.303 285.263, 373.402 282.051, 367.849 284.833 M 343.225 304.004 C 334.773 309.158, 336.762 322.786, 346.432 325.978 C 350.705 327.388, 354.754 326.436, 358.227 323.206 C 369.486 312.735, 356.392 295.976, 343.225 304.004 M 385.566 305.076 C 375.088 314.276, 385.449 331.017, 398.298 325.649 C 404.908 322.887, 407.882 314.541, 404.551 308.099 C 401.018 301.267, 391.611 299.769, 385.566 305.076 M 345.345 306.888 C 341.386 309.356, 340.254 313.657, 342.447 317.897 C 345.482 323.767, 351.435 324.719, 356.077 320.077 C 363.566 312.588, 354.357 301.272, 345.345 306.888 M 391 305.706 C 384.424 308.110, 382.853 316.015, 388.077 320.411 C 391.950 323.670, 395.933 323.719, 399.354 320.548 C 405.972 314.414, 399.352 302.653, 391 305.706 M 367.500 323.954 C 362.367 326.077, 358.559 333.134, 359.588 338.616 C 361.537 349.008, 377.634 351.410, 382.483 342.033 C 387.778 331.793, 377.763 319.709, 367.500 323.954 M 365.589 330.077 C 362.284 334.004, 362.218 338.309, 365.414 341.505 C 370.339 346.430, 377.432 345.201, 380.010 338.975 C 383.625 330.249, 371.658 322.864, 365.589 330.077 M 48.022 335.965 C 46.995 336.615, 46.428 339.203, 46.163 344.450 L 45.781 352 38.962 352 C 29.739 352, 29 352.844, 29 363.371 C 29 373.565, 29.397 374, 38.700 374 L 46 374 46 381.443 C 46 390.918, 47.202 392, 57.723 392 C 67.582 392, 69 390.617, 69 381 L 69 374 76.300 374 C 85.603 374, 86 373.565, 86 363.371 C 86 352.820, 85.274 352, 75.929 352 L 69 352 69 345.071 C 69 335.775, 56.739 330.453, 48.022 335.965 M 50 345.929 C 50 355.031, 49.031 356, 39.929 356 L 33 356 33 363.500 L 33 371 40.300 371 C 49.462 371, 50 371.538, 50 380.700 L 50 388 57.500 388 L 65 388 65 380.700 C 65 371.538, 65.538 371, 74.700 371 L 82 371 82 363.500 L 82 356 74.700 356 C 65.538 356, 65 355.462, 65 346.300 L 65 339 57.500 339 L 50 339 50 345.929 M 340.635 377.073 C 336.437 380.374, 337.106 386.969, 341.889 389.443 C 347.464 392.325, 353 388.755, 353 382.277 C 353 375.726, 346.060 372.805, 340.635 377.073 M 342.200 380.200 C 340.516 381.884, 340.704 383.422, 342.829 385.345 C 345.436 387.704, 347.864 387.392, 349.168 384.530 C 351.118 380.251, 345.586 376.814, 342.200 380.200 M 340.635 401.073 C 335.106 405.422, 338.334 414, 345.500 414 C 347.667 414, 349.762 413.238, 351 412 C 357.885 405.115, 348.318 395.029, 340.635 401.073 M 342.200 404.200 C 340.516 405.884, 340.704 407.422, 342.829 409.345 C 345.436 411.704, 347.864 411.392, 349.168 408.530 C 351.118 404.251, 345.586 400.814, 342.200 404.200 M 205.270 413.703 C 199.250 414.866, 196.828 424.919, 201.455 429.545 L 203.909 432 214.020 432 C 227.212 432, 230.902 430.081, 230.968 423.184 C 231.050 414.670, 220.471 410.767, 205.270 413.703 M 203.413 419.493 C 198.724 426.649, 214.565 432.983, 224.316 427.850 C 233.345 423.098, 227.841 417, 214.523 417 L 205.046 417 203.413 419.493 M 320.500 436 C 320.160 436.550, 320.584 437, 321.441 437 C 322.298 437, 323 436.550, 323 436 C 323 435.450, 322.577 435, 322.059 435 C 321.541 435, 320.840 435.450, 320.500 436" stroke="none" fill="#fcfcfc" fill-rule="evenodd"/></svg>