<svg xmlns="http://www.w3.org/2000/svg" width="97" height="69" viewBox="0 0 97 69" version="1.1"><path d="M 43.250 1.708 C 41.211 2.456, 41.655 11.377, 43.829 13.345 C 48.541 17.609, 54.054 14.493, 54.758 7.168 C 55.242 2.129, 55.189 2, 52.627 2 C 50.174 2, 50 2.303, 50 6.573 C 50 12.782, 46.677 12.711, 46.183 6.492 C 45.836 2.122, 45.155 1.010, 43.250 1.708 M 61 8 C 61 14.333, 61.190 15, 63 15 C 64.100 15, 65 14.374, 65 13.608 C 65 12.843, 66.235 11.907, 67.744 11.528 C 76.364 9.365, 74.006 1, 64.777 1 L 61 1 61 8 M 3.042 16.750 C 3.107 39.593, 14.298 50.381, 27.615 40.438 C 34.885 35.010, 38.618 19, 32.613 19 C 30.115 19, 30 19.240, 30 24.453 C 30 33.671, 26.267 38, 18.318 38 C 9.637 38, 7 33.235, 7 17.550 L 7 6 10.500 6 C 13.333 6, 14 5.619, 14 4 C 14 2.242, 13.333 2, 8.500 2 L 3 2 3.042 16.750 M 16 14.500 C 16 26.333, 15.893 27, 14 27 C 12.524 27, 12 27.667, 12 29.546 C 12 32.051, 12.107 32.087, 18.750 31.796 C 25.782 31.488, 29.163 28.020, 23.250 27.180 C 21.232 26.894, 21 26.301, 21 21.430 L 21 16 25.570 16 C 32.204 16, 31.917 11.675, 25.250 11.193 C 16.772 10.579, 19.197 6, 28 6 C 34.333 6, 35 5.810, 35 4 C 35 2.140, 34.333 2, 25.500 2 L 16 2 16 14.500 M 65 6.500 C 65 7.530, 65.655 8.020, 66.750 7.810 C 68.858 7.404, 68.725 5.629, 66.553 5.177 C 65.647 4.988, 65 5.539, 65 6.500 M 42 34.500 C 42 41.176, 44.920 44.239, 46.290 39 C 46.648 37.631, 47.654 37, 49.480 37 C 51.483 37, 52.062 36.565, 51.805 35.250 C 51.602 34.214, 50.560 33.500, 49.251 33.500 C 45.734 33.500, 46.159 31.533, 49.750 31.187 C 55.642 30.619, 53.794 28, 47.500 28 L 42 28 42 34.500 M 59.796 29.750 C 55.468 34.753, 58.311 41, 64.918 41 C 71.286 41, 74.659 33.717, 70.171 29.655 C 67.741 27.455, 61.734 27.510, 59.796 29.750 M 78 34.500 C 78 40.333, 78.205 41, 80 41 C 81.111 41, 82 40.333, 82 39.500 C 82 38.675, 82.464 38, 83.031 38 C 83.599 38, 84.322 38.675, 84.638 39.500 C 84.955 40.325, 86.307 41, 87.642 41 C 89.735 41, 89.927 40.732, 89.032 39.061 C 88.342 37.771, 88.330 36.914, 88.997 36.502 C 93.410 33.775, 88.702 28, 82.066 28 L 78 28 78 34.500 M 63.040 32.452 C 61.293 34.557, 62.176 37.451, 64.674 37.808 C 67.279 38.181, 68.785 34.651, 66.960 32.452 C 65.442 30.622, 64.558 30.622, 63.040 32.452 M 82.446 32.087 C 82.077 32.685, 82.166 33.566, 82.645 34.045 C 83.828 35.228, 86.431 33.507, 85.569 32.112 C 84.696 30.698, 83.311 30.687, 82.446 32.087 M 17 55.500 C 17 61.275, 16.887 66.338, 16.750 66.750 C 16.613 67.162, 19.762 67.632, 23.750 67.794 C 30.927 68.085, 31 68.062, 31 65.544 C 31 63.158, 30.690 63, 26 63 L 21 63 21 54 C 21 45.667, 20.852 45, 19 45 C 17.127 45, 17 45.667, 17 55.500 M 42 61.500 L 42 68 47 68 C 51.333 68, 52 67.733, 52 66 C 52 64.444, 51.333 64, 49 64 C 46.111 64, 46 63.833, 46 59.500 C 46 55.667, 45.704 55, 44 55 C 42.205 55, 42 55.667, 42 61.500 M 58 61.500 C 58 67.333, 58.205 68, 60 68 C 61.795 68, 62 67.333, 62 61.500 C 62 55.667, 61.795 55, 60 55 C 58.205 55, 58 55.667, 58 61.500 M 68 61.500 C 68 68.249, 71.343 71.648, 72.180 65.750 C 72.409 64.139, 73.281 63.410, 75.250 63.184 C 79.095 62.741, 78.880 60, 75 60 C 73.350 60, 72 59.550, 72 59 C 72 58.450, 73.575 58, 75.500 58 C 77.944 58, 79 57.548, 79 56.500 C 79 55.348, 77.722 55, 73.500 55 L 68 55 68 61.500 M 84.202 61.250 L 84.500 67.500 89.750 67.802 C 94.481 68.075, 98.321 65.282, 93.750 64.894 C 93.063 64.835, 91.718 64.723, 90.763 64.644 C 89.807 64.565, 89.040 64.050, 89.058 63.500 C 89.076 62.950, 89.931 62.634, 90.957 62.798 C 94.820 63.415, 94.862 60.244, 91 59.500 C 87.252 58.778, 87.424 58, 91.333 58 C 93.926 58, 95 57.561, 95 56.500 C 95 55.347, 93.717 55, 89.452 55 L 83.905 55 84.202 61.250" stroke="none" fill="#fcfcfc" fill-rule="evenodd"/></svg>