<svg xmlns="http://www.w3.org/2000/svg" width="1000" height="300" viewBox="0 0 1000 300" version="1.1"><path d="M 832.500 25.617 C 821.913 27.242, 812.534 29.594, 806.198 32.212 C 802.182 33.872, 799.064 35.397, 799.268 35.601 C 799.472 35.805, 802.856 35.081, 806.787 33.992 C 826.586 28.505, 850.220 27.095, 867.275 30.382 C 914.395 39.465, 951.325 74.794, 963.043 122 C 966.053 134.125, 966.777 156.328, 964.576 168.961 C 950.640 248.933, 865.064 293.117, 792.367 257.874 C 782.393 253.038, 776.617 248.717, 777.281 246.585 C 777.467 245.988, 779.055 244.856, 780.809 244.070 C 782.564 243.283, 784 242.278, 784 241.836 C 784 240.692, 774.158 235.818, 770 234.903 C 768.075 234.480, 764.361 233.375, 761.747 232.447 C 757.794 231.045, 756.727 230.982, 755.410 232.074 C 753.363 233.774, 754.204 238.259, 757.350 242.416 C 758.633 244.112, 759.976 246.690, 760.334 248.145 C 760.692 249.600, 762.922 252.930, 765.290 255.545 L 769.594 260.299 770.864 256.058 C 772.401 250.930, 773.358 251.001, 783.613 256.995 C 800.834 267.060, 817.991 271.913, 839.231 272.725 C 857.320 273.418, 868.918 272.016, 882.644 267.479 C 903.073 260.727, 918.746 251.129, 933.261 236.482 C 956.639 212.893, 969 182.809, 969 149.500 C 969 115.360, 956.846 85.782, 933.032 61.968 C 915.577 44.513, 895.331 33.361, 871.271 27.949 C 862.718 26.025, 839.097 24.604, 832.500 25.617 M 586 147 L 586 258 591.500 258 L 597 258 597 147 L 597 36 591.500 36 L 586 36 586 147 M 26 152.500 L 26 216 94 216 L 162 216 162 152.500 L 162 89 94 89 L 26 89 26 152.500 M 184 152.500 L 184 216 252 216 L 320 216 320 152.500 L 320 89 252 89 L 184 89 184 152.500 M 341 152.500 L 341 216 409 216 L 477 216 477 152.500 L 477 89 409 89 L 341 89 341 152.500 M 714 109.416 L 714 129 716.500 129 C 718.789 129, 719 128.628, 719 124.582 C 719 117.468, 719.440 117, 726.128 117 C 732.026 117, 732.050 117.012, 735.271 121.617 C 737.047 124.156, 738.972 126.895, 739.549 127.703 C 740.165 128.565, 741.744 129.033, 743.372 128.836 L 746.145 128.500 741.962 122.672 L 737.779 116.845 741.309 113.611 C 745.672 109.614, 746.929 104.376, 744.899 98.638 C 742.484 91.808, 739.668 90.551, 725.931 90.166 L 714 89.833 714 109.416 M 753 109.500 L 753 129 767.500 129 C 781.333 129, 782 128.908, 782 127 C 782 125.116, 781.333 125, 770.500 125 L 759 125 759 118.536 L 759 112.072 768.750 111.786 C 777.999 111.515, 778.516 111.384, 778.820 109.250 C 779.133 107.044, 778.940 107, 769.070 107 L 759 107 759 100.500 L 759 94 770 94 C 780.333 94, 781 93.879, 781 92 C 781 90.095, 780.333 90, 767 90 L 753 90 753 109.500 M 788 109.579 L 788 129.159 800.828 128.829 C 812.874 128.520, 813.909 128.332, 817.808 125.749 C 825.307 120.780, 828.188 110.174, 824.462 101.254 C 820.735 92.335, 815.712 90.052, 799.750 90.022 L 788 90 788 109.579 M 719.607 95.582 C 718.682 97.991, 718.913 110.314, 719.912 111.892 C 721.401 114.243, 734.478 112.839, 737.495 110.005 C 742.548 105.258, 741.150 97.294, 734.881 95.108 C 729.897 93.371, 720.342 93.667, 719.607 95.582 M 793.667 94.667 C 793.300 95.033, 793 101.503, 793 109.044 C 793 125.721, 792.866 125.526, 803.700 124.706 C 812.091 124.072, 814.933 122.619, 818.750 117.010 C 823.415 110.156, 820.332 99.791, 812.500 96 C 808.415 94.023, 795.243 93.090, 793.667 94.667 M 406.464 105.043 C 378.838 108.655, 359.321 130.648, 361.264 155.977 C 362.696 174.639, 376.081 190.844, 395.252 197.125 C 401.424 199.147, 404.430 199.493, 415.500 199.450 C 429.058 199.398, 433.034 198.687, 444.250 194.314 L 451 191.682 451 182.392 L 451 173.101 443.530 176.922 C 418.776 189.581, 391.452 184.840, 382.351 166.307 C 379.938 161.391, 379.500 159.272, 379.500 152.500 C 379.500 145.755, 379.941 143.602, 382.311 138.776 C 389.399 124.341, 406.216 117.569, 425.540 121.365 C 430.376 122.316, 437.696 124.647, 441.807 126.546 C 445.918 128.446, 449.443 130, 449.641 130 C 449.838 130, 450 125.971, 450 121.047 L 450 112.094 440.640 109.096 C 432.727 106.561, 417.061 103.690, 413.526 104.127 C 412.962 104.197, 409.784 104.609, 406.464 105.043 M 61 152.595 L 61 199.190 83.750 198.782 C 108.517 198.337, 112.308 197.635, 120.538 191.974 C 124.756 189.072, 129.278 181.902, 130.482 176.206 C 131.449 171.631, 129.362 163.800, 125.905 159.027 C 124.307 156.821, 120.535 153.626, 117.522 151.925 L 112.044 148.834 115.164 146.208 C 125.129 137.824, 124.100 120.662, 113.130 112.276 C 106.185 106.967, 101.054 106, 79.818 106 L 61 106 61 152.595 M 219 152.500 L 219 199 238.553 199 C 260.656 199, 268.939 197.693, 276.261 193.050 C 292.777 182.575, 291.666 160.255, 274.186 151.373 C 272.159 150.343, 270.300 149.375, 270.057 149.223 C 269.813 149.071, 271.003 147.676, 272.703 146.124 C 278.783 140.571, 280.957 133.159, 278.954 124.810 C 277.964 120.680, 276.613 118.490, 272.598 114.499 C 265.006 106.953, 261.115 106, 237.885 106 L 219 106 219 152.500 M 79 132.500 L 79 144 83.951 144 C 96.704 144, 104 139.804, 104 132.470 C 104 124.250, 99.035 121, 86.480 121 L 79 121 79 132.500 M 236 132.522 L 236 144.282 244.313 143.763 C 249.208 143.458, 253.969 142.550, 255.892 141.556 C 262.608 138.083, 263.645 128.026, 257.738 123.642 C 255.535 122.007, 253.054 121.507, 245.488 121.176 L 236 120.761 236 132.522 M 795.668 157.459 C 790.351 169.261, 786 179.417, 786 180.028 C 786 180.639, 787.013 180.995, 788.250 180.820 C 789.806 180.599, 791.200 179.035, 792.769 175.750 L 795.039 171 805.769 171.003 L 816.500 171.006 819 175.753 C 820.678 178.939, 822.240 180.605, 823.750 180.820 C 824.987 180.995, 826 180.700, 826 180.163 C 826 179.627, 822.583 171.608, 818.407 162.344 C 814.231 153.080, 809.896 143.363, 808.774 140.750 C 807.651 138.137, 806.419 136, 806.035 136 C 805.651 136, 800.986 145.656, 795.668 157.459 M 832.230 158.750 C 832.491 179.743, 832.570 180.500, 834.500 180.500 C 836.393 180.500, 836.515 179.741, 836.777 166.250 C 836.930 158.412, 837.380 152.007, 837.777 152.016 C 838.175 152.024, 844.350 159.416, 851.500 168.441 C 858.650 177.466, 864.837 184.884, 865.250 184.925 C 865.663 184.966, 866 175.100, 866 163 L 866 141 863.500 141 L 861 141 860.985 154.250 C 860.976 161.537, 860.639 167.993, 860.235 168.596 C 859.796 169.251, 854.270 163.141, 846.500 153.407 C 839.350 144.450, 833.154 137.094, 832.730 137.061 C 832.307 137.027, 832.082 146.787, 832.230 158.750 M 714.229 160.750 C 714.498 180.377, 714.514 180.502, 716.750 180.820 C 718.844 181.117, 719 180.766, 719 175.770 C 719 172.816, 719.540 169.860, 720.200 169.200 C 720.921 168.479, 724.416 167.999, 728.950 167.996 C 734.673 167.993, 737.275 167.520, 739.701 166.040 C 748.342 160.772, 748.006 147.594, 739.115 143.059 C 735.795 141.365, 733.207 141, 724.519 141 L 713.958 141 714.229 160.750 M 753.472 142.212 C 753.187 142.956, 753.076 151.875, 753.227 162.032 L 753.500 180.500 766.500 180.500 C 779.220 180.500, 779.507 180.452, 779.820 178.250 C 780.134 176.039, 779.958 176, 769.593 176 L 759.047 176 758.774 158.750 C 758.503 141.707, 758.473 141.496, 756.246 141.180 C 755.006 141.004, 753.758 141.468, 753.472 142.212 M 873.229 160.750 L 873.500 180.500 887.500 180.500 C 901.197 180.500, 901.507 180.452, 901.815 178.282 C 902.124 176.113, 901.875 176.058, 890.315 175.782 L 878.500 175.500 878.500 169.500 L 878.500 163.500 888.500 163 C 898.369 162.507, 898.671 162.383, 898.150 159.036 C 898.067 158.506, 893.612 157.944, 888.250 157.786 L 878.500 157.500 878.180 153.595 C 877.486 145.112, 877.641 145, 890.019 145 C 900.333 145, 901 144.879, 901 143 C 901 141.095, 900.333 141, 886.979 141 L 872.958 141 873.229 160.750 M 908 142.930 C 908 144.677, 908.790 144.943, 914.750 145.204 L 921.500 145.500 921.773 163.250 L 922.046 181 924.500 181 L 926.954 181 927.227 163.250 L 927.500 145.500 934.314 145.203 C 940.105 144.950, 941.079 144.650, 940.802 143.203 C 940.512 141.696, 938.604 141.468, 924.237 141.225 C 908.631 140.961, 908 141.027, 908 142.930 M 719.654 146.458 C 718.830 148.605, 718.796 160.304, 719.607 162.418 C 720.478 164.689, 731.348 164.576, 735.978 162.248 C 742.022 159.210, 742.310 151.215, 736.513 147.417 C 735.017 146.436, 731.080 145.524, 727.123 145.241 C 721.343 144.827, 720.209 145.012, 719.654 146.458 M 804.071 150.250 C 803.587 151.488, 801.835 155.499, 800.176 159.164 C 798.518 162.829, 797.425 166.091, 797.747 166.414 C 798.742 167.408, 812.845 167.060, 813.485 166.025 C 814.229 164.821, 807.111 148, 805.857 148 C 805.358 148, 804.555 149.012, 804.071 150.250 M 79 171 L 79 183 90.250 182.978 C 106.953 182.945, 112.273 179.962, 112.273 170.627 C 112.273 162.747, 104.274 159, 87.451 159 L 79 159 79 171 M 236 170.863 L 236 183 247.532 183 C 260.329 183, 264.355 181.906, 267.832 177.486 C 271.980 172.214, 269.825 164.568, 263.322 161.483 C 260.628 160.204, 256.204 159.558, 247.778 159.211 L 236 158.725 236 170.863 M 714 200 C 714 205.333, 714.407 209, 715 209 C 715.550 209, 716 207.200, 716 205 C 716 201.373, 716.239 201, 718.566 201 C 722.437 201, 725 199.222, 725 196.536 C 725 193.020, 722.419 191, 717.929 191 L 714 191 714 200 M 744 200 C 744 205.333, 744.407 209, 745 209 C 745.593 209, 746 205.333, 746 200 C 746 194.667, 745.593 191, 745 191 C 744.407 191, 744 194.667, 744 200 M 768.712 193.012 C 763.368 197.216, 764.404 205.540, 770.639 208.499 C 774.442 210.304, 779.074 209.821, 781.073 207.412 C 782.570 205.608, 781.417 204.183, 779.783 205.817 C 779.133 206.468, 776.923 207, 774.873 207 C 772.012 207, 770.650 206.371, 769.016 204.293 C 763.796 197.657, 772.701 189.600, 779.777 194.557 C 781.752 195.939, 782 195.943, 782 194.592 C 782 190.807, 772.891 189.724, 768.712 193.012 M 800.500 192 C 800.160 192.550, 800.809 193, 801.941 193 C 803.848 193, 804 193.590, 804 201 C 804 205.667, 804.417 209, 805 209 C 805.579 209, 806 205.802, 806 201.406 C 806 194.654, 806.222 193.755, 808 193.290 C 809.100 193.002, 810 192.369, 810 191.883 C 810 190.660, 801.262 190.767, 800.500 192 M 829 198.943 C 829 206.018, 829.243 207.057, 831.223 208.443 C 834.272 210.579, 835.685 210.406, 838.545 207.545 C 840.687 205.404, 841 204.192, 841 198.045 C 841 194.015, 840.572 191, 840 191 C 839.450 191, 839 193.446, 839 196.435 C 839 204.313, 837.674 207.210, 834.250 206.816 C 831.543 206.505, 831.495 206.378, 831.208 198.750 C 830.824 188.550, 829 188.710, 829 198.943 M 861 200 C 861 209.096, 862.624 212.613, 863.193 204.750 L 863.500 200.500 866.500 204.729 C 868.150 207.054, 870.063 208.967, 870.750 208.979 C 872.575 209.010, 872.307 208.153, 869.415 204.717 L 866.830 201.645 869.415 200.290 C 871.300 199.303, 872 198.141, 872 196.003 C 872 192.534, 869.720 191, 864.566 191 L 861 191 861 200 M 892 200 L 892 209 897 209 C 899.750 209, 902 208.550, 902 208 C 902 207.450, 900.200 207, 898 207 C 894.240 207, 894 206.823, 894 204.060 C 894 201.397, 894.346 201.092, 897.673 200.810 C 902.948 200.365, 903.294 198, 898.083 198 C 894.394 198, 894 197.759, 894 195.500 C 894 193.250, 894.400 193, 898 193 C 900.200 193, 902 192.550, 902 192 C 902 191.450, 899.750 191, 897 191 L 892 191 892 200 M 921.035 192.934 C 919.561 195.688, 919.585 195.746, 923.967 200.084 C 926.406 202.499, 927.712 204.586, 927.360 205.505 C 926.712 207.192, 923.442 207.524, 922.500 206 C 921.560 204.479, 920 204.806, 920 206.525 C 920 209.062, 924.861 210.321, 927.635 208.504 C 930.961 206.324, 930.577 203.299, 926.500 199.564 C 922.908 196.273, 921.881 193, 924.441 193 C 925.234 193, 926.160 193.450, 926.500 194 C 927.408 195.468, 929 195.218, 929 193.607 C 929 190.604, 922.573 190.061, 921.035 192.934 M 716 196 C 716 198.492, 716.402 199, 718.378 199 C 719.685 199, 721.315 198.325, 722 197.500 C 723.668 195.491, 721.663 193, 718.378 193 C 716.402 193, 716 193.508, 716 196 M 863 196 C 863 198.674, 863.330 199, 866.031 199 C 869.447 199, 870.898 196.787, 868.989 194.487 C 868.311 193.669, 866.685 193, 865.378 193 C 863.402 193, 863 193.508, 863 196 M 756 235.410 C 756 237.008, 762.242 245.089, 766.728 249.298 L 769.709 252.095 772.855 248.513 C 774.585 246.543, 776 244.518, 776 244.013 C 776 243.509, 773.970 241.699, 771.489 239.992 C 763.577 234.549, 756 232.307, 756 235.410 M 774 240 C 776.655 242.077, 779 242.592, 779 241.098 C 779 240.602, 777.583 239.702, 775.851 239.098 C 771.471 237.571, 771.116 237.744, 774 240 M 764 249.734 C 764 250.309, 764.885 251.841, 765.967 253.139 C 767.461 254.933, 767.941 255.117, 767.967 253.905 C 767.985 253.028, 767.100 251.495, 766 250.500 C 764.900 249.505, 764 249.160, 764 249.734" stroke="none" fill="#fcfcfc" fill-rule="evenodd"/></svg>