<svg viewBox="0 0 300 200" xmlns="http://www.w3.org/2000/svg">
  <defs>
    <linearGradient id="mapGradient" x1="0%" y1="0%" x2="100%" y2="100%">
      <stop offset="0%" style="stop-color:#E94E1A;stop-opacity:0.8" />
      <stop offset="100%" style="stop-color:#ff6b3d;stop-opacity:0.6" />
    </linearGradient>
    <linearGradient id="waterGradient" x1="0%" y1="0%" x2="100%" y2="100%">
      <stop offset="0%" style="stop-color:#1a1a2e;stop-opacity:0.3" />
      <stop offset="100%" style="stop-color:#16213e;stop-opacity:0.5" />
    </linearGradient>
    <filter id="glow">
      <feGaussianBlur stdDeviation="3" result="coloredBlur"/>
      <feMerge> 
        <feMergeNode in="coloredBlur"/>
        <feMergeNode in="SourceGraphic"/>
      </feMerge>
    </filter>
  </defs>
  
  <!-- Eau/Océan -->
  <rect width="300" height="200" fill="url(#waterGradient)" opacity="0.3"/>
  
  <!-- Basse-Terre (île principale gauche) -->
  <path d="M60,70 Q65,60 80,65 Q90,68 95,75 Q100,85 95,95 Q90,105 85,110 Q75,115 65,112 Q50,108 45,95 Q40,85 45,75 Q50,68 60,70 Z" 
        fill="url(#mapGradient)" 
        stroke="rgba(255,255,255,0.6)" 
        stroke-width="1.5" 
        filter="url(#glow)"/>
  
  <!-- Grande-Terre (île principale droite) -->
  <path d="M120,80 Q125,70 140,75 Q150,78 155,85 Q160,95 155,105 Q150,115 145,120 Q135,125 125,122 Q110,118 105,105 Q100,95 105,85 Q110,78 120,80 Z" 
        fill="url(#mapGradient)" 
        stroke="rgba(255,255,255,0.6)" 
        stroke-width="1.5" 
        filter="url(#glow)"/>
  
  <!-- Marie-Galante (petite île en bas) -->
  <circle cx="140" cy="140" r="8" 
          fill="url(#mapGradient)" 
          stroke="rgba(255,255,255,0.6)" 
          stroke-width="1" 
          filter="url(#glow)"/>
  
  <!-- Les Saintes (petites îles) -->
  <circle cx="90" cy="130" r="4" 
          fill="url(#mapGradient)" 
          stroke="rgba(255,255,255,0.6)" 
          stroke-width="1" 
          filter="url(#glow)"/>
  <circle cx="100" cy="135" r="3" 
          fill="url(#mapGradient)" 
          stroke="rgba(255,255,255,0.6)" 
          stroke-width="1" 
          filter="url(#glow)"/>
  
  <!-- La Désirade (petite île à droite) -->
  <ellipse cx="180" cy="90" rx="12" ry="4" 
           fill="url(#mapGradient)" 
           stroke="rgba(255,255,255,0.6)" 
           stroke-width="1" 
           filter="url(#glow)"/>
  
  <!-- Marqueur de position (Pointe-à-Pitre approximativement) -->
  <circle cx="130" cy="95" r="4" fill="#ffffff" stroke="#E94E1A" stroke-width="2" filter="url(#glow)">
    <animate attributeName="opacity" values="0.7;1;0.7" dur="2s" repeatCount="indefinite"/>
  </circle>
  
  <!-- Nom de l'archipel -->
  <text x="150" y="40" font-family="Arial, sans-serif" font-size="14" font-weight="bold" 
        fill="rgba(255,255,255,0.8)" text-anchor="middle">GUADELOUPE</text>
  <text x="150" y="56" font-family="Arial, sans-serif" font-size="10" 
        fill="rgba(255,255,255,0.6)" text-anchor="middle">Archipel des Antilles françaises</text>
  
  <!-- Coordonnées -->
  <text x="150" y="175" font-family="Arial, sans-serif" font-size="9" 
        fill="rgba(255,255,255,0.5)" text-anchor="middle">16.2650° N, 61.5510° W</text>
</svg>
