<svg xmlns="http://www.w3.org/2000/svg" viewBox="0 0 377.5 149.45" class="inline-block text-black">
  <title>NYSE Logo</title>
  <path class="fill-current" d="M52.33 121.54 14.26 68.42 0 68.42 0 147.48 15.23 147.48 15.23 94.32 53.3 147.48 67.56 147.48 67.56 68.42 52.33 68.42 52.33 121.54M155.8 68.42 137.33 68.42 117.28 101.09 96.66 68.42 77.22 68.42 108 115.41 108 147.48 124.53 147.48 124.53 115.62 155.8 68.42"/>
  <path class="fill-current" d="M199.1 101.2l-9.25-2.11c-10.85-2.43-13.15-4.38-13.15-9.09 0-4.55 4.7-8.77 13.63-8.77a32.48 32.48 0 0 1 21.6 7.8l9.58-12.67c-8.93-7.3-20.3-9.9-30.53-9.9-18.51 0-31.5 10.88-31.5 25.33 0 11.36 7.64 18.67 23.22 21.75l9.1 1.79c10.55 2.11 14.44 6 14.44 10.55 0 6.33-5.35 9.26-14.28 9.42-8.61.16-16.89-2.92-24.36-10.55l-9.9 12c7.63 8.77 21.11 12.67 33.77 12.67 19.32 0 31.34-9.42 31.34-24.68 0-13.13-8.28-19.95-23.71-23.53z"/>
  <path class="fill-current" d="M249.56 114.92c2.56 11.9 11.71 19.76 23.75 19.76 8.75 0 15.72-4.05 20.74-11l11.5 9.73a39 39 0 0 1-32.24 16c-25.11 0-41.31-18-41.31-41.48s16.07-41.48 39.08-41.48c17.23 0 40.8 12 36.9 48.45zm42.79-12.8c-1.76-16.19-12.23-21.07-19.35-21.07-12.11 0-20.88 7.61-23.69 21.07z"/>
  <path class="text-ice-blue fill-current" style="fill:#70c4e8;fill-opacity:1" d="M299.63 23.85h53.99v53.99h23.86V0h-77.85v23.85z"/>
</svg>
