<svg xmlns="http://www.w3.org/2000/svg" width="121" height="63" viewBox="0 0 121 63" version="1.1"><path d="M 21 5.476 C 18.525 6.278, 14.853 8.298, 12.840 9.966 C 10.827 11.633, 8.239 14.940, 7.090 17.315 C 5.929 19.713, 5.002 23.602, 5.005 26.066 C 5.008 28.887, 5.827 31.850, 7.256 34.210 C 8.491 36.250, 11.044 39.057, 12.929 40.448 C 14.814 41.839, 16.474 42.860, 16.617 42.717 C 16.759 42.574, 16.166 40.301, 15.299 37.665 C 14.025 33.795, 13.940 32.142, 14.860 29.072 C 15.487 26.981, 16.975 24.030, 18.167 22.514 C 19.360 20.998, 21.821 19.137, 23.636 18.379 C 25.451 17.620, 28.773 17, 31.018 17 C 33.263 17, 36.480 17.714, 38.168 18.587 C 41.208 20.159, 41.275 20.138, 45.119 16.384 C 47.253 14.300, 49 12.044, 49 11.371 C 49 10.698, 46.527 8.937, 43.505 7.459 C 39.858 5.674, 35.907 4.644, 31.755 4.395 C 27.981 4.168, 23.715 4.597, 21 5.476 M 62 6 C 60.116 7.884, 60 9.333, 60 30.935 C 60 43.549, 60.428 54.997, 60.952 56.374 C 61.476 57.751, 62.843 59.381, 63.990 59.995 C 65.137 60.609, 66.971 60.827, 68.064 60.480 C 69.158 60.132, 70.649 58.870, 71.376 57.674 C 72.412 55.972, 72.597 50.322, 72.231 31.632 C 71.807 9.961, 71.590 7.590, 69.882 5.882 C 68.847 4.847, 67.100 4, 66 4 C 64.900 4, 63.100 4.900, 62 6 M 85 4.858 C 85 5.329, 87.742 6.002, 91.093 6.352 C 94.444 6.702, 99.062 7.818, 101.354 8.833 C 103.647 9.847, 106.997 12.151, 108.800 13.954 C 110.602 15.756, 112.917 18.877, 113.943 20.889 C 114.970 22.901, 116.122 26.630, 116.504 29.177 C 116.982 32.366, 116.674 35.626, 115.513 39.653 C 114.182 44.271, 112.742 46.555, 108.664 50.521 C 105.512 53.586, 101.896 56.021, 99.384 56.771 C 97.120 57.447, 93.209 58, 90.693 58 C 88.177 58, 85.869 58.403, 85.565 58.895 C 85.260 59.388, 85.571 59.999, 86.256 60.254 C 86.940 60.509, 90.211 60.392, 93.524 59.994 C 96.837 59.597, 101.395 58.329, 103.652 57.177 C 105.909 56.026, 109.620 52.967, 111.898 50.379 C 114.535 47.383, 116.620 43.675, 117.639 40.170 C 118.685 36.573, 119.033 32.926, 118.644 29.644 C 118.317 26.881, 116.877 22.224, 115.443 19.294 C 113.790 15.915, 111.165 12.691, 108.266 10.477 C 105.752 8.558, 101.432 6.315, 98.666 5.494 C 95.900 4.672, 91.694 4, 89.318 4 C 86.943 4, 85 4.386, 85 4.858 M 85 10 C 85 10.550, 86.463 11.011, 88.250 11.024 C 90.037 11.037, 93.211 11.445, 95.301 11.930 C 97.392 12.415, 100.583 13.827, 102.391 15.066 C 104.200 16.306, 106.695 18.801, 107.935 20.611 C 109.176 22.421, 110.621 25.816, 111.146 28.155 C 111.792 31.028, 111.740 33.915, 110.987 37.053 C 110.374 39.608, 108.508 43.354, 106.840 45.378 C 105.171 47.402, 102.068 49.945, 99.943 51.029 C 97.455 52.299, 94.079 53, 90.457 53 C 86.396 53, 84.953 53.347, 85.263 54.250 C 85.545 55.072, 87.369 55.411, 90.596 55.240 C 93.293 55.097, 97.001 54.487, 98.836 53.884 C 100.670 53.281, 103.734 51.416, 105.645 49.739 C 107.555 48.062, 109.979 45.001, 111.032 42.936 C 112.085 40.872, 113.232 37.399, 113.581 35.218 C 113.978 32.736, 113.617 29.194, 112.616 25.753 C 111.502 21.919, 109.770 19.005, 106.897 16.132 C 104.174 13.409, 101.056 11.500, 97.706 10.505 C 94.918 9.677, 90.919 9, 88.818 9 C 86.718 9, 85 9.450, 85 10 M 85 14.860 C 85 15.333, 87.460 15.974, 90.468 16.285 C 93.475 16.595, 97.208 17.601, 98.763 18.519 C 100.319 19.438, 102.696 21.803, 104.046 23.775 C 105.906 26.492, 106.488 28.621, 106.449 32.574 C 106.409 36.674, 105.810 38.560, 103.647 41.396 C 102.134 43.379, 99.592 45.677, 97.998 46.501 C 96.404 47.325, 92.827 48, 90.050 48 C 87.272 48, 85 48.450, 85 49 C 85 49.550, 87.362 49.993, 90.250 49.984 C 93.830 49.972, 96.766 49.250, 99.480 47.713 C 101.711 46.449, 104.449 43.711, 105.713 41.480 C 107.172 38.903, 107.973 35.811, 107.984 32.710 C 107.993 29.953, 107.197 26.346, 106.106 24.210 C 105.065 22.170, 103.295 19.670, 102.173 18.655 C 101.050 17.640, 98.415 16.197, 96.316 15.449 C 94.217 14.700, 90.813 14.068, 88.750 14.044 C 86.688 14.020, 85 14.387, 85 14.860 M 2.663 37 C 3.008 38.925, 4.333 42.587, 5.606 45.138 C 6.878 47.689, 9.801 51.386, 12.101 53.354 C 14.400 55.322, 18.528 57.679, 21.274 58.591 C 24.781 59.756, 28.289 60.105, 33.059 59.764 C 37.918 59.416, 41.104 58.543, 44.255 56.697 C 46.677 55.277, 49.219 53.441, 49.903 52.617 C 50.944 51.362, 50.461 50.622, 46.932 48.065 C 42.717 45.012, 42.717 45.012, 39.108 47.251 C 36.314 48.986, 34.146 49.458, 29.500 49.347 C 26.168 49.266, 21.017 48.263, 17.916 47.091 C 14.745 45.893, 10.749 43.364, 8.668 41.240 C 6.652 39.183, 4.336 36.600, 3.519 35.500 C 2.133 33.631, 2.076 33.729, 2.663 37" stroke="none" fill="#fcfcfc" fill-rule="evenodd"/></svg>