<?xml version="1.0" encoding="utf-8"?>
<!-- Generator: Adobe Illustrator 28.2.0, SVG Export Plug-In . SVG Version: 6.00 Build 0)  -->
<svg version="1.1" id="Layer_1" xmlns="http://www.w3.org/2000/svg" xmlns:xlink="http://www.w3.org/1999/xlink" x="0px" y="0px"
	 viewBox="0 0 1561.6 2000" style="enable-background:new 0 0 1561.6 2000;" xml:space="preserve">
<style type="text/css">
	.st0{fill:#E3BB70;}
</style>
<g>
	<g>
		<path class="st0" d="M316.3,1999.2c-108,0-208.7,0-316.3,0C211.1,1330.3,420.8,666.3,631.1,0c99.1,0,196.3,0,298.5,0
			c210,664.6,420.4,1330.3,631.9,1999.7c-107.2,0-209.7,0-316.5,0C1091.6,1491.1,937.9,981.8,784.3,472.6c-2.7,0.4-5.6,0.9-8.3,1.4
			C622.9,982,469.7,1490,316.3,1999.2z"/>
		<path class="st0" d="M785.1,887c106.7,369.6,213.5,739.4,321.4,1113c-64.5,0-121.7,0-186.7,0c-44.9-183.2-90.2-368.5-135.6-553.8
			c-2.5,0.2-5.1,0.4-7.7,0.6c-44.5,182.7-89.1,365.3-134.5,551.6c-60.5,0-120.7,0-187.1,0c107.2-371.2,213.8-739.9,320.4-1108.6
			C778.5,889,781.7,888,785.1,887z"/>
	</g>
</g>
</svg>
