<?xml version="1.0" encoding="utf-8"?>
<!-- Generator: Adobe Illustrator 28.2.0, SVG Export Plug-In . SVG Version: 6.00 Build 0)  -->
<svg version="1.1" id="Layer_1" xmlns="http://www.w3.org/2000/svg" xmlns:xlink="http://www.w3.org/1999/xlink" x="0px" y="0px"
	 viewBox="0 0 2000 665.34" style="enable-background:new 0 0 2000 665.34;" xml:space="preserve">
<g>
	<g>
		<path fill="#E3BB70" d="M828.87,458.73c-16.78,0-32.85,0-48.92,0c-8.96,0-17.94-0.29-26.89,0.11c-5.71,0.25-8.4-1.28-9.75-7.39
			c-14.18-63.78-28.7-127.48-43.14-191.19c-2.87-12.69-5.79-25.36-9.52-37.95c0,78.32,0,156.62,0,235.86
			c-1.92,0.17-4.32,0.54-6.72,0.54c-19.76,0.04-39.54-0.14-59.3,0.12c-5.45,0.07-7.61-1.19-7.61-7.18
			c0.15-143.41,0.12-286.83,0.14-430.24c0-2,0.29-4.01,0.48-6.39c2.39-0.15,4.4-0.37,6.4-0.37c24.82-0.03,49.65,0.15,74.47-0.14
			c5.47-0.07,7.25,1.75,8.44,7.01c15.32,67.99,30.92,135.91,46.47,203.84c0.48,2.12,1.23,4.18,2.28,7.7c0-73.61,0-145.59,0-217.99
			c24.3,0,48.52,0,73.15,0C828.87,162.77,828.87,310.18,828.87,458.73z"/>
		<path fill="#E3BB70" d="M861.73,15c2.21-0.15,3.99-0.37,5.76-0.37c41.12,0,82.26-0.39,123.39,0.32c11.29,0.19,22.95,2.36,33.7,5.89
			c31.25,10.27,45.8,34.26,50.12,65.45c1.21,8.83,1.53,17.85,1.54,26.78c0.11,82.5,0.25,164.98-0.12,247.47
			c-0.06,13.2-1.23,26.7-4.23,39.51c-7.74,32.93-30.02,50.97-62.72,56.64c-8.1,1.41-16.44,1.92-24.67,1.96
			c-38.37,0.19-76.75-0.03-115.11,0.21c-6.11,0.04-8.19-1.46-8.19-7.98c0.19-142.93,0.14-285.84,0.17-428.77
			C861.35,19.85,861.6,17.61,861.73,15z M948.35,90.24c0,98.12,0,195.37,0,292.78c7.52,0,14.43,0.33,21.28-0.07
			c11.96-0.7,19.33-8.32,20.16-20.31c0.21-2.98,0.15-5.97,0.15-8.96c0-77.89,0-155.78,0-233.67c0-2.76,0.03-5.52-0.1-8.27
			c-0.58-12.18-7.28-20.08-19.22-21.35C963.39,89.61,956.02,90.24,948.35,90.24z"/>
		<path fill="#E3BB70" d="M16.56,319.6c27.87,0,55.14,0,83.38,0c0,8.08,0,15.8,0,23.54c0,9.87-0.22,19.76,0.1,29.64
			c0.34,10.52,5.6,15.4,16.02,15.67c20.77,0.51,24.19-2.79,24.19-23.39c0-14.7-0.14-29.42,0.04-44.12
			c0.15-13.16-4.94-23.43-15.49-31.33c-24.99-18.74-49.54-38.09-74.81-56.43c-23.21-16.82-34.77-38.78-34.24-67.52
			c0.51-28.02-0.21-56.07,0.66-84.08c0.3-9.67,2.62-19.64,5.93-28.78c8.14-22.44,25.17-35.5,48.28-39.37
			c31.21-5.21,62.87-4.8,94.05-0.79c32.53,4.18,51.6,22.45,56.53,55.04c3.67,24.29,2.7,49.26,3.82,74.29
			c-3.3,0.28-4.84,0.52-6.4,0.52c-24.12,0.03-48.25-0.12-72.37,0.12c-5.19,0.06-6.83-1.57-6.7-6.67
			c0.28-11.25,0.14-22.52-0.01-33.77c-0.08-6.66-1.06-13.49-8.47-15.79c-8.69-2.69-17.94-3.76-25.58,2.5
			c-2.58,2.11-4.19,6.77-4.29,10.32c-0.41,16.07-0.44,32.16,0.03,48.24c0.3,10.59,6.27,18.4,14.54,24.63
			c26.01,19.68,52.05,39.33,77.96,59.13c12.99,9.93,24.15,21.51,27.98,38.06c1.9,8.22,3.3,16.74,3.41,25.14
			c0.4,30.09,0.4,60.2,0.01,90.29c-0.11,8.65-1.23,17.47-3.28,25.87c-7.85,32.16-31.91,50.83-66.87,51.7
			c-22.73,0.57-45.5,0.54-68.24,0.04c-40.65-0.88-67.53-25.82-70.17-66.48c-1.57-24.26-0.55-48.68-0.65-73.04
			C15.9,321.88,16.25,321.02,16.56,319.6z"/>
		<path fill="#E3BB70" d="M584.4,458.73c-11.14,0-21.21,0-31.26,0c-10.11,0-20.23-0.32-30.33,0.12c-5.43,0.23-7.42-1.89-8.9-6.87
			c-29.28-98.41-58.72-196.77-88.15-295.13c-3.83-12.83-7.71-25.64-13.1-38.53c-0.8,2.26-1.71,4.5-2.4,6.79
			c-32.27,108.04-64.6,216.06-96.59,324.18c-2.22,7.53-5.36,9.98-13.23,9.65c-16.74-0.7-33.54-0.21-50.31-0.23
			c-2.45,0-4.9-0.22-8.15-0.39c5.78-18.45,11.31-36.12,16.84-53.78c39.95-127.51,79.93-255,119.72-382.55
			c1.68-5.38,3.65-7.71,9.74-7.53c17.22,0.48,34.46,0.33,51.69,0.07c4.51-0.07,6.22,1.54,7.53,5.72
			c44.92,143.73,89.97,287.4,134.98,431.1C583.09,453.25,583.51,455.25,584.4,458.73z"/>
		<path fill="#E3BB70" d="M1587.18,458.69c-22.38,0-43.5,0.17-64.61-0.28c-1.97-0.04-4.88-3.6-5.63-6.05c-11.76-38.59-23.21-77.27-34.77-115.92
			c-21.09-70.5-42.2-140.98-63.3-211.47c-0.65-2.18-1.38-4.33-2.69-8.47c-1.5,4.04-2.54,6.37-3.25,8.78
			c-32.3,108.06-64.65,216.1-96.63,324.25c-2.18,7.38-5.3,9.57-12.73,9.38c-19.25-0.52-38.53-0.18-58.87-0.18
			c3.6-11.76,6.85-22.63,10.25-33.46c42.16-134.53,84.36-269.04,126.38-403.61c1.61-5.16,3.5-7.36,9.34-7.2
			c16.99,0.47,34.01,0.4,51.01,0.03c5.38-0.11,7.32,1.79,8.88,6.77c40.59,129.98,81.35,259.9,122.08,389.82
			c4.25,13.56,8.45,27.14,12.66,40.71C1585.88,453.72,1586.37,455.7,1587.18,458.69z"/>
		<path fill="#E3BB70" d="M1107.64,15c52.27,0,104.34,0,156.95,0c0,25.69,0,51.27,0,77.97c-2.9,0-5.78,0-8.66,0c-18.62,0-37.23,0.03-55.84-0.01
			c-3.67-0.01-6.73-0.07-6.7,5.2c0.18,32.39,0.12,64.8,0.18,97.21c0,0.63,0.36,1.27,0.77,2.65c22.29,0,44.68,0,67.48,0
			c0,26.41,0,52.05,0,78.55c-2.55,0.19-5.17,0.57-7.81,0.57c-17.69,0.06-35.4,0.3-53.08-0.12c-6.26-0.15-7.61,1.92-7.6,7.83
			c0.21,54.93,0.12,109.84,0.12,164.77c0,2.69,0,5.39,0,8.59c-28.93,0-57.09,0-85.81,0C1107.64,310.7,1107.64,163.29,1107.64,15z"/>
		<path fill="#E3BB70" d="M1792.63,14.97c29.02,0,57.18,0,86.18,0c0,121.5,0,242.72,0,364.81c21.33,0,41.87,0,62.87,0c0,26.46,0,52.07,0,78.37
			c-2.18,0.19-4.37,0.54-6.56,0.54c-45.05,0.03-90.09-0.06-135.15,0.12c-5.54,0.03-7.47-1.34-7.47-7.25
			c0.17-143.42,0.12-286.83,0.12-430.26C1792.63,19.5,1792.63,17.69,1792.63,14.97z"/>
		<path fill="#E3BB70" d="M1619.82,14.99c29.08,0,57.25,0,86.1,0c0,121.48,0,242.74,0,364.81c20.98,0,41.29,0,62.28,0
			c0.22,2.95,0.52,5.14,0.54,7.34c0.04,21.38-0.22,42.75,0.17,64.11c0.11,6.34-2.17,7.61-7.94,7.58
			c-44.35-0.19-88.72-0.26-133.07,0.06c-6.98,0.06-8.21-2.37-8.19-8.7c0.18-109.17,0.12-218.33,0.12-327.5c0-32.86,0-65.73,0-98.6
			C1619.82,21.33,1619.82,18.59,1619.82,14.99z"/>
		<path fill="#E3BB70" d="M1487.34,458.65c-12.94,0-25.07,0.29-37.15-0.32c-1.77-0.08-4.21-4.16-4.85-6.77c-6.77-27.35-13.24-54.78-19.82-82.18
			c-2.83-11.78-5.74-23.54-9.86-35.48c-0.95,3.12-2.05,6.21-2.83,9.38c-8.78,36.3-17.64,72.58-26.12,108.95
			c-1.19,5.05-3.19,6.76-8.25,6.59c-10.74-0.33-21.5-0.1-33.7-0.1c23.75-82.91,47.16-164.67,70.59-246.44
			c0.44-0.06,0.88-0.1,1.32-0.15C1440.14,293.99,1463.6,375.83,1487.34,458.65z"/>
		<path fill="#E3BB70" d="M342.03,458.73c23.79-83.02,47.12-164.45,70.46-245.9c0.52-0.08,1.06-0.17,1.59-0.26
			c23.4,81.65,46.82,163.31,70.53,246.04c-13.03,0-25.33,0.21-37.61-0.28c-1.49-0.06-3.57-3.61-4.12-5.86
			c-8.58-34.95-16.95-69.95-25.36-104.92c-1.06-4.43-2.18-8.85-3.75-15.18c-1.21,3.13-1.99,4.58-2.36,6.12
			c-9.18,37.87-18.42,75.71-27.37,113.64c-1.16,4.9-2.95,6.9-8.16,6.72C365.13,458.47,354.36,458.73,342.03,458.73z"/>
		<path fill="#E3BB70" d="M150.63,656.45c-4.61,0-8.21,0-12.3,0c0-44.63,0-89.06,0-133.47c5.96-1.94,9.81-0.28,13.63,4.65
			c26.11,33.53,52.54,66.79,78.87,100.13c1.41,1.79,2.87,3.54,5.54,6.83c0-38.21,0-74.68,0-110.89c11.86-3.12,12.87-2.37,12.87,8.5
			c0,38.37,0,76.73,0,115.1c0,2.91,0,5.83,0,8.51c-7.07,2.17-11.31,0.57-15.5-4.81c-25.4-32.61-51.23-64.9-76.92-97.29
			c-1.5-1.89-3.13-3.67-6.19-7.23C150.63,584.45,150.63,620.3,150.63,656.45z"/>
		<path fill="#E3BB70" d="M805.22,605.34c10.61,16.91,21.04,33.55,31.58,50.35c-12.14,2.61-12.36,2.5-18.52-7.27
			c-7.85-12.43-15.67-24.86-23.68-37.19c-1.13-1.74-3.2-4-4.88-4.05c-12.34-0.34-24.7-0.18-37.95-0.18c0,16.87,0,33.04,0,49.47
			c-4.52,0-8.12,0-12.19,0c0-44.72,0-89.16,0-133.95c20.38,0,40.41-1.09,60.24,0.32c18.38,1.31,32.48,17.85,34.82,37.35
			c2.25,18.74-8.23,36.34-25.76,43.36C807.83,603.96,806.86,604.52,805.22,605.34z M751.79,595.15c17.06,0,33.28,0.1,49.49-0.11
			c2.12-0.03,4.36-1.38,6.33-2.5c11.14-6.33,17.09-22.04,13.79-36.15c-3.17-13.58-14.04-22.67-28.01-23.14
			c-6.88-0.23-13.78-0.17-20.66-0.03c-6.61,0.14-15.98-1.97-19.09,1.48c-3.53,3.92-1.71,12.88-1.79,19.67
			C751.67,567.84,751.79,581.31,751.79,595.15z"/>
		<path fill="#E3BB70" d="M561.81,532.94c0,17.25,0,33.04,0,49.65c21.43,0,42.65,0,64.4,0c0,3.85,0,6.9,0,10.74c-21.43,0-42.67,0-64.31,0
			c0,17.67,0,34.56,0,52.4c25.18,0,50.1,0,75.55,0c0,4.01,0,7.07,0,10.58c-29.26,0-58.35,0-88.04,0c0-44.34,0-88.74,0-133.6
			c28.67,0,57.26,0,86.41,0c0,3.02,0,6.1,0,10.23C611.5,532.94,587.08,532.94,561.81,532.94z"/>
		<path fill="#E3BB70" d="M1855.24,522.58c29.07,0,57.67,0,86.7,0c0,3.42,0,6.5,0,10.59c-24.77,0-49.22,0-74.06,0c0,16.96,0,32.9,0,49.66
			c21.64,0,42.88,0,64.46,0c0,3.71,0,6.62,0,10.32c-21.35,0-42.6,0-64.89,0c0,7.09,0,13.42,0,19.75c0,8.5,0.41,17.03-0.14,25.49
			c-0.41,6.34,2.07,7.71,7.89,7.61c19.75-0.3,39.51-0.11,59.27-0.11c2.73,0,5.45,0,8.96,0c0.19,3.63,0.36,6.67,0.55,10.32
			c-29.82,0-59.05,0-88.76,0C1855.24,611.7,1855.24,567.28,1855.24,522.58z"/>
		<path fill="#E3BB70" d="M1043.29,656.25c-12.29,1.12-12.26,1.12-16.38-8.95c-3.9-9.54-7.63-19.18-11.98-28.52c-0.97-2.07-4.19-4.33-6.41-4.37
			c-16.99-0.36-33.99-0.1-50.98-0.28c-3.97-0.04-5.67,1.75-6.96,5.12c-3.56,9.2-7.36,18.29-11.06,27.43
			c-4.33,10.69-4.32,10.69-17.2,9.67c3.72-9.05,7.34-17.87,10.99-26.68c14.07-33.87,28.17-67.73,42.16-101.62
			c1.49-3.61,2.84-6.05,7.63-5.99c4.63,0.07,6.19,2.1,7.75,5.89c16.69,40.72,33.54,81.38,50.32,122.06
			C1041.94,651.84,1042.47,653.8,1043.29,656.25z M983.97,538.73c-0.59-0.01-1.19-0.01-1.78-0.03
			c-8.88,21.65-17.76,43.32-26.88,65.56c18.81,0,36.45,0,55.12,0C1001.39,581.85,992.68,560.3,983.97,538.73z"/>
		<path fill="#E3BB70" d="M1238.99,550.08c-4.21,2.63-6.9,4.3-9.82,6.12c-0.87-1.09-1.61-1.92-2.23-2.81c-18.36-26.55-54.98-27.91-75.31-2.79
			c-19.31,23.87-16.77,61.8,5.53,82.85c21.75,20.53,55.04,16.62,71.68-8.41c0.61-0.92,1.27-1.81,2.17-3.09
			c3.23,1.6,6.22,3.09,10.54,5.24c-3.35,4.56-5.82,8.92-9.2,12.38c-23.66,24.24-61.23,24.27-85.13,0.25
			c-33.1-33.25-25.93-90.6,13.94-111.57c21.76-11.45,50.25-8.23,66.73,7.87C1231.89,540.05,1234.94,544.93,1238.99,550.08z"/>
		<path fill="#E3BB70" d="M1758.65,522.58c-8.84,21.39-17.39,42.13-25.97,62.84c-9.2,22.23-18.49,44.43-27.53,66.72c-1.43,3.54-3.25,4.98-7.07,4.68
			c-3.23-0.26-5.94,0.04-7.57-3.97c-17.43-42.63-35.07-85.19-52.63-127.76c-0.25-0.62-0.3-1.31-0.54-2.44c4.11,0,8.05,0,12.33,0
			c15.78,38.92,31.58,77.93,47.95,118.32c1.65-3.63,2.77-5.82,3.7-8.1c13.54-33.58,27.06-67.16,40.57-100.74
			C1746.05,521.81,1746.05,521.81,1758.65,522.58z"/>
		<path fill="#E3BB70" d="M392.82,533.2c-13.74,0-26.31,0.01-38.89,0c-9.36-0.01-9.63-0.36-8.01-10.43c35.33,0,70.76,0,106.57,0
			c0,3.23,0,6.3,0,10.44c-12.38,0-24.48,0-36.56,0c-10.83,0-10.83,0.01-10.84,10.76c0,34.44,0,68.87,0,103.31c0,2.91,0,5.82,0,9.1
			c-4.52,0-8.05,0-12.26,0C392.82,615.54,392.82,575,392.82,533.2z"/>
		<path fill="#E3BB70" d="M1431.63,522.73c0,3.3,0,6.37,0,10.47c-12.45,0-24.55,0-36.64,0c-10.77,0-10.77,0.01-10.77,10.83
			c0,34.44,0.01,68.87-0.01,103.31c0,2.91-0.25,5.82-0.4,9.06c-4.15,0-7.68,0-11.87,0c0-40.89,0-81.43,0-123.19
			c-9.47,0-18.34,0-27.21,0c-3.9,0-7.81,0.01-11.71,0c-9.32-0.04-9.6-0.4-7.94-10.45C1360.41,522.73,1395.83,522.73,1431.63,522.73z
			"/>
		<path fill="#E3BB70" d="M15.55,656.31c0-44.72,0-89.1,0-133.78c4.05,0,7.65,0,11.74,0c0,44.57,0,88.96,0,133.78
			C23.52,656.31,19.95,656.31,15.55,656.31z"/>
		<path fill="#E3BB70" d="M1541.56,656.42c-4.03,0-7.63,0-11.74,0c0-44.49,0-88.87,0-133.71c3.88,0,7.61,0,11.74,0
			C1541.56,567.33,1541.56,611.71,1541.56,656.42z"/>
	</g>
</g>
</svg>
