<?xml version="1.0" encoding="UTF-8" standalone="no"?>
<!-- Generator: Adobe Illustrator 16.0.0, SVG Export Plug-In . SVG Version: 6.00 Build 0)  -->

<svg
   xmlns:dc="http://purl.org/dc/elements/1.1/"
   xmlns:cc="http://creativecommons.org/ns#"
   xmlns:rdf="http://www.w3.org/1999/02/22-rdf-syntax-ns#"
   xmlns:svg="http://www.w3.org/2000/svg"
   xmlns="http://www.w3.org/2000/svg"
   xmlns:sodipodi="http://sodipodi.sourceforge.net/DTD/sodipodi-0.dtd"
   xmlns:inkscape="http://www.inkscape.org/namespaces/inkscape"
   version="1.1"
   id="Layer_1"
   x="0px"
   y="0px"
   width="100"
   height="80"
   viewBox="43.167 126.5 100 80"
   enable-background="new 43.167 126.5 260.667 122.667"
   xml:space="preserve"
   sodipodi:docname="Discovery Inc logo.svg"
   inkscape:version="0.92.4 (5da689c313, 2019-01-14)"><title
   id="title42">Tokyo Stock Exchange logo</title><metadata
   id="metadata45"><rdf:RDF><cc:Work
       rdf:about=""><dc:format>image/svg+xml</dc:format><dc:type
         rdf:resource="http://purl.org/dc/dcmitype/StillImage" /><dc:title>Tokyo Stock Exchange logo</dc:title><cc:license
         rdf:resource="http://scripts.sil.org/OFL" /><dc:date>11 ago 2019</dc:date></cc:Work><cc:License
       rdf:about="http://scripts.sil.org/OFL"><cc:permits
         rdf:resource="http://scripts.sil.org/pub/OFL/Reproduction" /><cc:permits
         rdf:resource="http://scripts.sil.org/pub/OFL/Distribution" /><cc:permits
         rdf:resource="http://scripts.sil.org/pub/OFL/Embedding" /><cc:permits
         rdf:resource="http://scripts.sil.org/pub/OFL/DerivativeWorks" /><cc:requires
         rdf:resource="http://scripts.sil.org/pub/OFL/Notice" /><cc:requires
         rdf:resource="http://scripts.sil.org/pub/OFL/Attribution" /><cc:requires
         rdf:resource="http://scripts.sil.org/pub/OFL/ShareAlike" /><cc:requires
         rdf:resource="http://scripts.sil.org/pub/OFL/DerivativeRenaming" /><cc:requires
         rdf:resource="http://scripts.sil.org/pub/OFL/BundlingWhenSelling" /></cc:License></rdf:RDF></metadata><defs
   id="defs43" /><sodipodi:namedview
   pagecolor="#ffffff"
   bordercolor="#666666"
   borderopacity="1"
   objecttolerance="10"
   gridtolerance="10"
   guidetolerance="10"
   inkscape:pageopacity="0"
   inkscape:pageshadow="2"
   inkscape:window-width="1366"
   inkscape:window-height="705"
   id="namedview41"
   showgrid="false"
   inkscape:showpageshadow="false"
   inkscape:zoom="1"
   inkscape:cx="67.377973"
   inkscape:cy="47.023387"
   inkscape:window-x="-8"
   inkscape:window-y="-8"
   inkscape:window-maximized="1"
   inkscape:current-layer="Layer_1" />

<g
   id="g3070"
   transform="matrix(1.9543706,0,0,1.9543706,-639.24173,-873.84267)"><g
     id="g3271"
     transform="matrix(1.25,0,0,-1.25,357.67661,536.31218)"><path
       style="fill:#231f20;fill-opacity:1;fill-rule:nonzero;stroke:none;stroke-width:3.98741436"
       d="m 52.414062,69.916016 c -6.001057,0 -12.154296,5.067707 -12.154296,15.558593 0,11.571477 6.193113,16.140621 12.154296,16.140621 5.24345,0 12.154297,-3.756345 12.154297,-15.822261 0,-11.579452 -6.416407,-15.876953 -12.154297,-15.876953 z m 79.716798,0 c -6.00903,0 -12.16211,5.067707 -12.16211,15.558593 0,11.571477 6.19694,16.140621 12.16211,16.140621 5.23149,0 12.15234,-3.756345 12.15234,-15.822261 0,-11.579452 -6.41844,-15.876953 -12.15234,-15.876953 z M 17.802734,70.337891 v 5.314453 h 7.050782 v 25.541016 h 6.998046 V 75.652344 h 7.041016 v -5.314453 z m 52.09961,0 v 30.855469 h 7.005859 V 86.283203 h 0.08789 l 8.851562,14.910157 h 7.820313 L 84.039062,85.015625 91.722656,70.337891 h -7.001953 l -7.724609,14.949218 h -0.08789 V 70.337891 Z m 24.283203,0 8.548833,16.763671 v 14.091798 h 7.18164 V 87.101562 l 7.7207,-16.763671 h -7.44531 l -3.84766,9.490234 -4.66211,-9.490234 z m -41.771485,5.642578 c 4.154886,0 5.019532,4.430464 5.019532,9.765625 0,7.408616 -1.765801,9.804687 -5.019532,9.804687 -3.843866,0 -5.011718,-3.652107 -5.011718,-9.804687 0,-6.056883 1.215701,-9.765625 5.011718,-9.765625 z m 79.716798,0 c 4.15489,0 5.01172,4.430464 5.01172,9.765625 0,7.408616 -1.76198,9.804687 -5.01172,9.804687 -3.84387,0 -5.02149,-3.652107 -5.02148,-9.804687 0,-6.056883 1.22546,-9.765625 5.02148,-9.765625 z M 24.302734,109.24414 c -1.969782,0 -3.341797,1.55074 -3.341796,3.75977 -10e-7,3.36537 3.537109,7.05393 3.537109,9.58593 0,0.89318 -0.714406,1.59766 -1.599609,1.59766 -0.614062,0 -1.259554,-0.34191 -1.845704,-0.91211 v 2.18945 c 0.717735,0.44659 1.356079,0.64063 2.09375,0.64063 2.017632,0 3.388672,-1.55416 3.388672,-3.78711 0,-3.44114 -3.533203,-6.97817 -3.533203,-9.58594 0,-1.05666 0.562963,-1.57031 1.595703,-1.57031 0.490452,0 0.836623,0.14683 1.47461,0.51367 v -1.99414 c -0.69381,-0.31501 -1.183382,-0.4375 -1.769532,-0.4375 z m 15.945313,0 c -3.225818,0 -4.398438,4.42046 -4.398438,8.42383 0,5.45877 1.914279,8.43359 4.398438,8.43359 2.260864,0 4.402344,-2.67975 4.402344,-8.43359 0,-4.50179 -1.479569,-8.42383 -4.402344,-8.42383 z m 10.833984,0 c -3.173982,0 -4.478515,3.78232 -4.478515,8.52734 0,5.33118 1.604563,8.33008 4.43164,8.33008 0.913118,0 1.646531,-0.26582 2.507813,-0.92773 v -2.21875 c -1.032741,0.91312 -1.556352,1.18164 -2.242188,1.18164 -1.838198,0 -2.480469,-2.06665 -2.480469,-6.46875 0,-4.12698 0.540143,-6.46289 2.40625,-6.46289 0.693811,0 1.479202,0.39513 2.117188,1.03711 v -2.13281 c -0.761596,-0.54628 -1.623732,-0.86524 -2.261719,-0.86524 z m 39.080078,0 c -3.169994,0 -4.476562,3.78232 -4.476562,8.52734 0,5.33118 1.602773,8.33008 4.421875,8.33008 0.913118,0 1.650518,-0.26582 2.507812,-0.92773 v -2.21875 c -1.036727,0.91312 -1.546505,1.18164 -2.236328,1.18164 -1.83421,0 -2.484375,-2.06665 -2.484375,-6.46875 0,-4.12698 0.546,-6.46289 2.41211,-6.46289 0.689822,0 1.475295,0.39513 2.113281,1.03711 v -2.13281 c -0.761596,-0.54628 -1.623814,-0.86524 -2.257813,-0.86524 z m 38.730471,0 c -3.16202,0 -5.16406,3.29333 -5.16406,8.45703 0,5.40295 2.13447,8.40039 5.4121,8.40039 0.9849,0 1.8456,-0.29463 2.90626,-0.98047 v -8.05859 h -3.57227 v 1.96484 h 1.45117 v 5.03321 l -0.73047,0.0762 c -2.36453,0 -3.35351,-2.30857 -3.35351,-6.43555 0,-4.33033 0.96528,-6.61914 3.15039,-6.61914 0.96096,0 1.72289,0.4173 3.05469,1.60156 v -2.26757 c -1.28395,-0.85331 -2.1734,-1.17188 -3.1543,-1.17188 z m -21.98633,0.11914 -3.09375,16.52344 h 2.04102 l 0.64257,-3.64063 h 3.04493 l 0.58984,3.64063 h 2.04297 l -3.07422,-16.52344 z m -30.273438,0.0957 2.488282,7.69922 -2.875,8.72461 h 2.257812 l 1.845703,-6.09765 h 0.04492 l 1.896485,6.09765 h 2.257812 l -2.898437,-8.72461 2.478515,-7.69922 h -2.255859 l -1.478516,5.4336 h -0.04492 l -1.451171,-5.4336 z m -49.060546,0.004 v 1.96875 h 2.535156 v 14.45508 h 2.113281 v -14.45508 h 2.537109 v -1.96875 z m 28.058593,0 v 16.42383 h 2.113282 v -16.42383 z m 4.501953,0 -2.3125,8.08594 2.927735,8.33789 h 2.185547 l -3.21875,-8.60938 2.583984,-7.81445 z m 8.238282,0 v 16.42383 h 6.048828 v -1.9668 h -3.935547 v -5.60547 h 3.417969 v -1.96484 h -3.417969 v -4.91797 h 3.740234 v -1.96875 z m 26.318359,0 v 16.42383 h 2.117188 v -7.22852 h 3.117187 v 7.22852 h 2.117192 v -16.42383 h -2.117192 v 7.22852 h -3.117187 v -7.22852 z m 19.253907,0 v 16.42383 h 1.94141 V 115.6543 h 0.0488 l 3.63672,10.23242 h 1.72266 v -16.42383 h -1.93359 v 10.13086 h -0.0527 l -3.63672,-10.13086 z m 20.7832,0 v 16.42383 h 6.04492 v -1.9668 h -3.92773 v -5.60547 h 3.41211 v -1.96484 h -3.41211 v -4.91797 h 3.73242 v -1.96875 z m -94.501951,1.74219 c 1.399583,0 2.212891,2.33591 2.212891,6.46289 0,4.05919 -0.814282,6.46875 -2.166016,6.46875 -1.423507,0 -2.21289,-2.3338 -2.21289,-6.46875 0,-2.94271 0.443452,-6.46289 2.166015,-6.46289 z m 67.742191,2.19336 h 0.0469 l 1.15235,6.88281 h -2.35547 z"
       transform="matrix(0.25078908,0,0,-0.25078908,-6.2328373,18.973001)"
       id="path3273"
       inkscape:connector-curvature="0" /></g><g
     id="g3275"
     transform="matrix(1.25,0,0,-1.25,356.48536,551.24093)" /><g
     id="g3279"
     transform="matrix(1.25,0,0,-1.25,359.32411,547.52843)" /><g
     id="g3283"
     transform="matrix(1.25,0,0,-1.25,361.12411,549.48343)" /><g
     id="g3287"
     transform="matrix(1.25,0,0,-1.25,366.67036,551.83593)" /><g
     id="g3291"
     transform="matrix(1.25,0,0,-1.25,395.05911,521.47593)"><path
       style="fill:#ed1c24;fill-opacity:1;fill-rule:nonzero;stroke:none;stroke-width:3.98741436"
       d="m 119.86914,0 -0.29883,0.30664062 c -0.57419,-0.0558238 -1.37193,-0.23965068 -1.90625,0.0195313 l -0.49414,0.5625 c -0.0917,0.70577228 -0.5983,-0.13147762 -0.5664,0.47460928 -0.99287,1.0686271 0.98508,1.1770661 0.5664,2.3613282 l 1.94922,1.9453125 0.35547,0.171875 c 1.78237,1.0128032 0.48607,0.9493828 1.74609,2.4765625 0.68983,0.1794336 1.43631,0.6858162 1.87891,1.1523437 0.54628,1.2121739 1.07612,0.9199889 1.6543,2.1640629 0.68184,0.143547 1.26735,0.813337 1.66211,1.251953 l -0.43555,0.294922 c -2.46994,0.540149 -5.30125,0.106179 -7.83399,-0.386719 -1.16033,0.171459 -2.38133,-0.114991 -3.60546,-0.126953 -0.47849,-0.618049 -1.37047,0.354204 -1.88086,-0.447266 -0.48647,0.358867 -1.22407,0.0599 -1.73047,0.0918 l -0.70313,-0.130859 c -0.74963,0.131584 -1.3944,0.271052 -2.07226,-0.1875 -0.95698,0.741659 -1.68609,-0.578896 -2.71485,0.226562 -1.15236,-0.171459 -2.08274,0.01994 -3.19922,0 -0.69779,0.259182 -1.54356,-0.604626 -2.08984,-0.07031 -0.5702,-0.05184 -1.2226,0.318982 -1.705078,-0.191407 -1.447431,-0.0638 -2.744629,0.597798 -4.255859,0.207032 -0.67786,-0.458553 -1.180611,0.226384 -1.710937,-0.05274 -1.355721,-0.135572 -2.463288,0.315087 -3.78711,-0.0039 -0.239245,-0.008 -0.884781,0.403459 -1.171875,-0.03516 l -0.765625,-0.0078 c -0.701785,0.546276 -1.639768,-5.5e-5 -2.353515,0.482422 -0.841345,-0.350892 -1.494756,0.327212 -2.328125,-0.01172 -1.060653,0.307031 -2.012831,0.341716 -3.013672,0.345703 -0.721722,-0.115635 -1.488242,0.167731 -2.257813,0.275391 -2.057506,-0.558238 -4.006704,1.221144 -6.076172,0.335938 -0.458552,0.805457 -1.307478,0.04275 -1.746093,0.4375 -0.933055,-0.47849 -1.5645,0.913209 -2.425782,0.1875 -0.913118,0.33893 -1.669238,0.212581 -2.566406,0.515625 -1.969783,0.01595 -3.864359,0.788895 -5.730469,0.701172 -0.813432,0.777545 -1.72392,-0.219683 -2.52539,0.59375 -1.008816,-0.159497 -1.861867,0.410739 -2.794922,0.669921 -0.610075,-0.0638 -0.983595,-0.01131 -1.597656,-0.03125 -1.307872,0.741659 -2.597075,0.230018 -3.873047,0.923829 -1.702626,0.203358 -3.384042,0.53054 -5.050782,0.949218 -1.128438,0.119623 -2.2538,0.339291 -3.314453,0.654297 -0.733684,-0.283106 -1.255814,0.338373 -1.929687,0.21875 -1.232111,0.765584 -2.452787,0.342818 -3.716797,1.15625 -0.299056,0.307031 -0.789727,-0.270155 -1.044922,0.240235 -1.283947,-0.311019 -2.398819,0.674487 -3.435547,0.833984 -0.733684,-0.251207 -1.424843,0.418222 -2.142578,0.597656 -1.024765,-0.179434 -1.810523,0.748539 -2.867187,0.820313 -0.582163,-0.374817 -0.824742,0.6271 -1.470703,0.332031 -0.35488,0.318993 -1.116559,0.610349 -1.53125,0.5625 l -0.605469,0.08398 -0.5625,0.390625 c -0.845332,0.195384 -1.694543,0.534426 -2.5,0.570313 l -2.158203,0.980468 c -1.036728,0.15551 -1.949276,0.940022 -3.001954,0.91211 l -0.537109,0.49414 c -0.382792,-0.115635 -0.747342,0.634106 -1.261719,0.47461 -0.889193,0.725709 -2.3243462,0.323707 -3.1816402,1.404297 -0.8413445,-0.311019 -1.9096296,0.944765 -2.703125,1.355469 l -0.59375,0.02344 c -1.0367278,1.096539 -3.03428939,0.862563 -3.55664068,2.625 0.0996854,0.498427 -0.48753523,0.80901 -0.23632812,0.980469 -0.05981122,0.311018 0.36285471,0.677501 0,0.880859 0.19937072,0.303044 0.82619777,0.419212 1.3046875,0.837891 0.4705149,0.151521 0.9047286,0.394267 1.3632813,0.02344 0.5183638,0.283107 0.8456478,-0.228023 1.328125,-0.15625 1.020778,-0.729697 2.1532987,-0.876649 3.2578124,-1.27539 1.2759726,-0.03988 2.417057,-0.725117 3.6132818,-1.083985 1.26401,0.299056 2.687095,-1.540178 4.242187,-1.101562 1.459394,-1.232111 3.441251,-0.999474 5.080078,-1.792969 0.685835,-0.578175 1.770795,-0.695313 2.572266,-0.695313 1.244073,-0.582162 2.092107,-0.780048 3.324219,-1.126953 0.984891,0.315006 1.833619,-0.718815 2.61914,-0.427734 1.654777,-0.729697 3.175063,-0.995937 4.9375,-1.099609 l 0.06836,0.0957 c 1.004828,-1.104514 2.363906,-0.368214 3.388671,-1.277344 0.637987,-0.251207 0.969674,0.459922 1.5,-0.257813 0.669886,0.26317 1.314733,-0.236252 1.972657,-0.335937 0.211333,0.422666 0.48683,-0.0232 0.75,-0.130859 0.937042,0.05184 1.718066,-0.529881 2.615234,-0.789063 0.729697,0.554251 1.384153,-0.478322 2.085938,0.08789 1.036727,-0.853307 2.093238,-0.21659 3.173828,-0.898438 1.260023,0.235258 2.556383,-0.322849 3.816406,-0.582031 0.67786,0.21532 1.012891,-0.537981 1.626953,-0.111328 1.200212,-0.46254 2.496323,-0.418801 3.732422,-0.761719 0.893181,0.94103 1.705368,-0.701222 2.554687,-0.123047 1.036728,-0.450578 2.206596,0.0079 3.1875,-0.669922 1.411545,0.466528 2.666002,-0.30314 3.914063,-0.283203 0.426653,-0.21532 0.749452,0.166898 1.160156,-0.06836 0.992866,0.243232 2.134894,-0.146987 2.992188,-0.410156 1.200211,-0.159497 2.371242,0.203185 3.611328,-0.183594 0.825395,0.08772 1.806444,0.0071 2.679687,-0.339844 0.741659,0.10766 1.654339,0.140934 2.419922,-0.162109 0.805458,0 1.670775,0.462864 2.396484,-0.01563 0.83337,0.550263 1.882215,-0.480027 2.871094,0.169922 0.805458,-0.968942 1.510868,0.06077 2.320313,-0.333985 1.076602,0.885206 2.027487,-0.505828 3.171875,0.06836 0.5702,0.0957 1.036648,-0.351872 1.539062,-0.04883 0.813433,-0.231271 1.825072,0.29865 2.550782,0.01953 0.466527,0.861281 1.347616,-0.278454 2.117187,0.255859 0.992866,-0.303043 2.417065,-0.148341 3.708985,0.134766 0.4745,0.01595 0.9962,-0.461572 1.4707,-0.142578 0.78552,0.183421 0.045,-0.107412 0.81055,0.08398 0.27114,-0.342918 0.41879,0.274553 0.57031,-0.164062 0.56621,0.163483 1.04715,0.07602 1.60938,0.27539 1.40755,-0.398741 3.18651,-0.171043 4.48242,0.171875 3.52487,-0.562225 6.95827,1.00388 10.35156,0.525391 0.38678,0.03987 0.55007,0.53823 0.96875,0.195312 0.45058,0.239245 1.02168,0.195242 1.58789,0.390625 0.75761,-0.307031 1.93282,-0.247199 2.54688,0.382813 l 1.74218,-0.08789 c 0.73768,0.510389 0.26071,0.04511 1.07813,0.611328 -1.268,0.917106 -1.87809,1.112252 -3.35742,1.642578 -0.69381,0.26317 -1.51135,0.605236 -2.10547,0.808594 -0.68185,0.223295 -1.60394,0.171095 -1.9668,0.785156 -0.99685,0.0638 -1.49077,0.307327 -2.32812,0.945313 -0.47052,-0.127597 -0.89764,-0.175274 -1.22461,0.183594 -1.11249,0.139559 -1.23285,1.360395 -1.59571,2.173828 -1.33578,0.398741 -0.11866,1.319223 -0.42968,2.236328 0.13158,1.750475 1.55041,0.03251 2.33593,0.738281 l 0.58204,-0.02344 c 0.7576,0.267156 1.34842,-0.535288 2.07812,0.04687 1.01679,-0.685836 2.2372,-0.662358 3.25,-0.746094 1.06863,-0.414691 1.85821,-0.442574 2.875,-0.960938 1.47136,-0.151521 2.89925,-0.868876 4.39453,-0.498047 0.96496,-0.414691 2.04392,-0.442395 2.95703,-0.68164 1.31585,0.853307 2.38858,-0.833715 3.64063,-0.367188 0.64995,-0.781533 1.78706,0.06873 2.36523,-0.621093 0.84135,-0.299056 1.22921,0.8848 1.96289,0.01953 0.67786,0.01595 1.23026,-0.156067 1.81641,0.21875 l 1.5918,-1.072266 c 1.02077,-0.478489 2.0775,-0.653867 2.58789,-1.730468 -0.0479,-1.176288 0.6223,-1.865546 0.46679,-3.097657 0.12361,-1.220149 -1.28392,-1.421044 -1.15234,-2.613281 -1.04072,-0.506402 -1.36446,-1.8284 -2.07422,-2.390625 -0.27912,-1.359708 -1.8586,-1.130094 -2.56836,-2.03125 -0.19538,-0.275132 -0.3611,-0.628252 -0.75586,-0.564453 -0.68982,-0.841345 -1.98659,-1.109427 -2.35742,-2.066406 -0.81343,0.07975 -1.06904,-0.848636 -1.70703,-0.896485 -0.68584,-1.315846 -2.17305,-1.387521 -2.88281,-2.691406 C 135.0407,9.247627 134.39527,9.143035 134.45508,8.7363191 132.896,8.2737881 131.35224,7.0342876 130.26367,6.0214844 128.03072,4.9408951 126.7904,3.716486 124.42188,2.484375 123.91149,2.3607652 124.04367,1.865483 123.43359,1.9492188 122.25731,1.0520505 120.99359,0.82938219 119.86914,0 Z M 63.53125,30.599609 c -0.873244,0.61805 -3.350554,0.873084 -4.263672,1.542969 -0.474502,-0.06779 -0.370709,0.310552 -0.773437,0.40625 -2.22099,0.69381 -3.097506,1.68673 -4.832032,2.492188 -0.841344,0.769571 -1.694319,1.79966 -2.894531,2.142578 l -0.61914,0.322265 c -0.558239,0.996854 -1.701772,1.032281 -2.248047,2.03711 -0.490452,0.0319 -0.698114,0.741533 -1.328125,0.677734 -0.295069,0.729697 -1.29544,0.924595 -1.845704,1.558594 l -0.582031,0.431641 c -0.55425,0.689822 -1.77467,0.490534 -2.001953,1.53125 -0.550263,0.426653 -0.81352,1.447448 -1.626953,1.822265 0.09171,0.917105 -0.993811,1.056936 -0.914063,2.001953 -0.143546,0.949005 0.797931,1.510792 0.746094,2.419922 0.382792,0.83337 2.204957,0.933615 2.978516,1.316406 l 1.216797,0.839844 c 0.454565,-0.279119 0.877958,-0.138509 1.404297,-0.146484 0.55425,0.673873 0.863804,-0.23542 1.509765,0.0078 0.430641,0.538301 1.32392,-0.104134 1.81836,0.501953 0.968941,-0.346905 1.782118,0.974168 2.794921,0.324219 0.701785,0.203358 1.539673,0.229592 2.277344,0.560547 1.152363,-0.271144 2.240621,0.303962 3.373047,0.435547 0.781533,0.410704 1.387739,0.442563 2.201172,0.769531 0.789508,0.07975 1.726442,0.07889 2.5,0.617188 0.566213,-0.446591 1.021353,0.179758 1.603516,-0.01563 l 0.451171,0.0293 c 0.610075,-0.542288 1.680997,0.804778 1.808594,-0.542968 -0.235257,-0.70976 0.718206,-1.411476 -0.310547,-1.730469 -0.267156,-0.630011 0.259638,-0.802171 -0.597656,-0.925781 l -1.546875,-0.923828 c -0.637986,-0.502415 -1.152385,-0.63542 -1.917969,-0.699219 -0.271144,-0.482477 -1.08507,-0.357595 -1.607421,-0.541016 -0.458553,-0.163484 -1.139596,-0.618826 -1.669922,-0.826172 -0.306012,-0.115557 -0.43614,-0.148802 -0.488282,-0.152343 -0.0376,-0.04422 -0.13805,-0.135029 -0.376953,-0.314454 -0.482477,-0.283106 -0.599305,-0.25483 -0.998047,-0.785156 -0.263169,-0.458552 1.771485,-0.330078 1.771485,-0.330078 0.486464,-0.474502 1.390494,-0.499254 1.972656,-0.248047 0.434628,-0.143547 0.877542,-0.100025 1.232422,-0.271484 l 0.742187,-0.134766 c 2.603782,0.426654 5.450511,-0.723036 8.265625,-0.224609 1.036728,-0.243232 2.467509,-0.381656 3.583985,-0.05469 0.454565,-0.139559 0.834416,-0.07203 1.292968,-0.179687 l 0.498047,0.171875 c 0.614062,-0.13956 -0.02462,0.03971 0.609375,-0.08789 0.38678,-0.23127 0.791037,0.142741 1.173828,0.134766 1.032741,-0.195383 1.854314,-0.313707 3.0625,-0.0625 0.466528,-0.35488 1.059686,0.09894 1.677735,-0.15625 0.5702,0.219308 1.47497,-0.16389 2.128906,0.01953 0.394754,-0.239245 0.774113,0.104896 1.220703,0.03711 0.921093,-0.446591 1.675585,0.6213 2.548828,-0.06055 0.641974,0.303043 1.207555,-0.491497 1.853516,0.242187 0.785521,-0.490452 1.634964,0.299782 2.296875,-0.130859 0.578175,0.366842 1.275995,0.0118 1.917969,0.0078 0.614062,0.235258 1.343375,0.21077 1.9375,0.123047 0.701785,0.263169 1.48262,0.327552 2.144531,0.259766 0.992866,0.291081 2.017715,0.04094 2.970705,0.140625 0.70178,0.195383 1.61072,0.478586 2.4082,0.283203 l 0.92578,0.03516 c 0.98888,-0.02392 2.01829,0.554667 3.13477,0.171875 0.79349,0.514377 1.72522,0.147479 2.55859,0.482422 0.66191,-0.454565 1.34509,0.796184 2.04688,0.0625 0.99685,0.24722 2.02926,0.203957 2.99023,0.546875 0.49444,-0.342918 0.76623,0.232006 1.3125,0.06055 1.00483,0.187408 2.04392,0.605702 3.05274,0.402344 0.87324,0.510389 1.7074,0.01232 2.55273,0.654297 0.55425,-0.442603 1.08784,0.342912 1.66602,-0.0957 0.72172,0.191396 1.35591,0.633868 2.10156,0.582032 l 0.60351,0.0918 c 0.53432,0.07177 1.04764,0.441721 1.58594,0.234376 0.42665,0.546275 0.6868,-0.0077 1.20117,0.179687 0.83736,0.69381 1.90906,0.104049 2.73047,0.941406 l 0.0488,-0.07227 c 1.41154,0.05184 2.63109,0.242949 3.96289,0.78125 0.63001,-0.227283 1.32394,0.561916 2.10547,0.302734 0.98888,0.259182 1.80563,0.378861 2.62305,1.052734 0.62602,-0.227282 1.5631,-0.155331 2.10937,0.279297 1.3318,0.594125 2.91144,0.399139 4.0957,1.324219 1.24009,-0.358867 2.39947,1.040188 3.4043,0.792969 0.96496,0.263169 1.88572,0.774985 2.89453,0.794922 0.8892,0.299056 1.80368,0.406524 2.6211,0.96875 0.38678,-0.0638 0.65375,0.334704 1.06445,0.107421 0.37482,0.27912 0.70909,0.08845 1.08789,-0.03516 0.3788,-0.32298 1.07293,-0.276542 1.23242,-0.507812 l 0.40625,-0.984375 c 0.19539,-0.135572 -0.82161,-1.079937 -0.75781,-1.470703 -0.45457,-1.347746 -2.03756,-1.152878 -2.87891,-1.990235 l -0.47461,-0.0078 c -0.64197,-0.299056 -1.5098,-1.256986 -2.17968,-1.009766 -0.6978,-0.825395 -1.84273,-0.490671 -2.56446,-1.044922 -0.40273,0.127598 -0.71852,-0.441401 -1.01758,-0.345703 L 149.8945,50.16991 c -0.84134,0.03987 -1.58273,-0.558356 -2.41211,-0.666016 l -1.73828,-0.734375 c -0.61805,0.299056 -1.33597,-0.270596 -2.00586,-0.410156 l -0.57031,-0.458984 -0.69922,-0.1875 c -0.57818,0.06779 -0.42979,0.328337 -0.9043,-0.257813 -0.4745,0.398742 -0.71706,-0.39069 -1.18359,-0.09961 -0.84533,-0.04785 -1.48719,-0.75105 -2.30859,-0.603516 -0.5702,-0.127597 -1.12463,-0.628977 -1.71875,-0.433594 -0.8254,-0.10766 -1.72711,-0.854804 -2.75586,-0.599609 -0.21134,-0.390767 -0.59466,0.06135 -0.83789,-0.169922 -1.02078,-0.614062 -1.98948,-0.275584 -2.98633,-0.841797 -0.54229,0.09171 -0.96472,-0.375639 -1.54688,-0.152343 -0.8533,-0.227283 -1.75493,-0.387049 -2.66406,-0.466797 -1.32781,-0.299056 -2.68709,-0.530282 -4.05078,-0.673829 -1.02875,-0.514376 -2.05271,-0.105905 -3.10938,-0.660156 -0.49045,0.01595 -0.79486,-0.01277 -1.27734,0.03906 -0.74963,-0.187409 -1.43079,-0.6219 -2.24023,-0.486328 -0.65394,-0.606087 -1.93372,0.162403 -2.59961,-0.427735 -1.49528,0.09171 -3.01881,-0.484618 -4.58985,-0.472656 -0.72571,-0.227283 -1.32279,-0.119968 -2.06445,-0.367188 -0.67387,0.570201 -1.20186,-0.499898 -1.93555,-0.121093 -0.35488,-0.299056 -1.04738,-0.01149 -1.40625,-0.310547 -2.14921,0.442603 -3.222417,-0.684628 -4.865232,-0.25 -0.610074,-0.08374 -1.232453,-0.300614 -1.80664,-0.212891 -0.805458,-0.004 -1.558722,-0.02638 -2.416016,-0.265625 -0.669886,0.267157 -1.191524,-0.251532 -1.857422,0.01563 -0.5702,-0.366842 -1.320506,0.05141 -1.886719,-0.363281 l -0.773437,-0.126953 c -0.07576,0.506402 -0.581961,0.154297 -0.777344,0.154297 -1.052677,0.247219 -1.938698,-0.09187 -3.03125,0.0078 -0.418679,0.223295 -0.729445,-0.154043 -1.355469,0.02539 -1.204199,0.287094 -2.23224,-0.244952 -3.392578,-0.205078 -0.386779,0.382792 -0.914575,0.08529 -1.369141,0.117187 -0.426653,-0.418678 -1.119577,0.234852 -1.673828,0.01953 -0.897168,-0.01196 -1.598357,-0.09594 -2.523437,0.01172 -0.885206,-0.622036 -1.076528,0.246799 -1.634766,-0.267578 -0.546276,0.334943 -1.632356,0.195713 -2.230469,0.08008 l -0.552734,0.08789 c -0.406716,-0.0319 -1.013611,0.183578 -1.40039,-0.103516 -0.414692,0.6021 -1.109153,-0.15598 -1.503907,0.310547 -0.976916,-0.008 -2.040656,0.186759 -2.921875,0.03125 -2.06548,0.358867 -1.518579,0.771372 -3.484375,0.201172 0.06779,0.466527 -0.658061,0.134928 -1.048828,0.126953 l -0.582031,0.501953 c 0.913118,-0.980904 -0.64751,-0.470449 -1.556641,-0.291015 -0.474502,-0.450578 1.639672,-0.594451 2.070313,-1.519532 0.35488,-0.35488 0.928658,-0.73373 1.458984,-0.861328 0.988879,-1.168312 2.130374,-2.176197 3.689453,-2.347656 l -0.0039,-0.103516 0.666016,-0.27539 c 0.02791,-0.661911 1.343302,-1.125615 0.597656,-1.958985 0.03589,-0.466527 -0.762292,-0.705758 -0.830078,-1.248046 L 64.914038,31.457008 C 64.51131,31.25365 64.200391,30.798075 63.757788,30.833961 Z"
       transform="matrix(0.25078908,0,0,-0.25078908,-36.138837,7.104001)"
       id="path3293"
       inkscape:connector-curvature="0" /></g><g
     id="g3295"
     transform="matrix(1.25,0,0,-1.25,363.84911,528.94218)" /><g
     id="g3299"
     transform="matrix(1.25,0,0,-1.25,362.50661,539.39093)" /><g
     id="g3303"
     transform="matrix(1.25,0,0,-1.25,371.79911,534.64593)" /><g
     id="g3307"
     transform="matrix(1.25,0,0,-1.25,382.09161,539.90093)" /><g
     id="g3311"
     transform="matrix(1.25,0,0,-1.25,387.49411,539.39093)" /><g
     id="g3315"
     transform="matrix(1.25,0,0,-1.25,368.01161,549.44593)" /><g
     id="g3319"
     transform="matrix(1.25,0,0,-1.25,371.31911,546.91093)" /><g
     id="g3323"
     transform="matrix(1.25,0,0,-1.25,374.68911,549.32343)" /><g
     id="g3327"
     transform="matrix(1.25,0,0,-1.25,378.91911,551.83593)" /><g
     id="g3331"
     transform="matrix(1.25,0,0,-1.25,379.56911,546.91093)" /><g
     id="g3335"
     transform="matrix(1.25,0,0,-1.25,382.42911,552.05968)" /><g
     id="g3339"
     transform="matrix(1.25,0,0,-1.25,385.60536,546.91093)" /><g
     id="g3343"
     transform="matrix(1.25,0,0,-1.25,391.28036,551.81968)" /><g
     id="g3347"
     transform="matrix(1.25,0,0,-1.25,392.12036,546.91093)" /></g></svg>