<?xml version="1.0" encoding="UTF-8"?>
<svg id="Layer_1" data-name="Layer 1" xmlns="http://www.w3.org/2000/svg" xmlns:xlink="http://www.w3.org/1999/xlink" viewBox="0 0 1078.16 768">
  <defs>
    <style>
      .cls-1 {
        fill: #fff;
      }

      .cls-2 {
        fill: url(#radial-gradient);
      }

      .cls-3 {
        fill: url(#radial-gradient-3);
      }

      .cls-4 {
        fill: url(#radial-gradient-2);
      }

      .cls-5 {
        fill: url(#radial-gradient-4);
      }
    </style>
    <radialGradient id="radial-gradient" cx="213.8" cy="514.04" fx="213.8" fy="514.04" r="287.34" gradientUnits="userSpaceOnUse">
      <stop offset=".05" stop-color="#e2007d"/>
      <stop offset=".45" stop-color="#a71fea"/>
    </radialGradient>
    <radialGradient id="radial-gradient-2" cx="258.75" cy="164.76" fx="258.75" fy="164.76" r="270.56" gradientUnits="userSpaceOnUse">
      <stop offset=".06" stop-color="#d9058e"/>
      <stop offset=".27" stop-color="#ca0daa"/>
      <stop offset=".71" stop-color="#a71fea"/>
    </radialGradient>
    <radialGradient id="radial-gradient-3" cx="612.62" cy="435.7" fx="829.17" fy="85.93" r="411.38" gradientUnits="userSpaceOnUse">
      <stop offset=".47" stop-color="#e2007d"/>
      <stop offset=".56" stop-color="#d30898"/>
      <stop offset=".75" stop-color="#d700af"/>
      <stop offset="1" stop-color="#a71fea"/>
    </radialGradient>
    <radialGradient id="radial-gradient-4" cx="552" cy="385.68" fx="552" fy="385.68" r="344.95" gradientUnits="userSpaceOnUse">
      <stop offset=".63" stop-color="#e2007d"/>
      <stop offset=".69" stop-color="#dd0285"/>
      <stop offset=".78" stop-color="#d1089a"/>
      <stop offset=".89" stop-color="#be12be"/>
      <stop offset="1" stop-color="#a71fea"/>
    </radialGradient>
  </defs>
  <path class="cls-1" d="M190.2,474.74c3.5,3.57,15.7-12.4,17.56-15.39,8.06-12.93,22.73-43.16,28.09-57.48,3.05-8.14,7.06-33.45,12.98-38.2,6.3-5.07,19.6-3.14,21.03,6.53,2.31,15.62-8.89,46.74-10.27,64.66-.48,6.27-.85,19.53-.02,25.44.23,1.61-.65,1.97,1.75,1.73,2.47-.45,4.15-2.97,5.67-4.75,7.19-8.45,31.69-59.06,32.39-69.11.36-5.18-2.3-22.09.94-25.34,2.81-2.82,15.67-4.33,18.09.45l12.85,48.22,2.9.81c2.6-.81,23.59-40.29,28.98-46.21,2.5-2.75,4.74-3.95,8.6-3.53.38,2.38-.38,4.14-1.27,6.24-6.75,15.89-20.62,33.11-28.23,49.24-3.14,6.66-4.51,8.54-1.93,15.85,5.86,16.59,20.71,38.61,37.18,45.51.49,2.55-.13,3.06-1.85,4.42-15.6,12.38-41.46-21.08-52.11-29.79-3.57-.95-9.47,10.23-13.79,12.44-2.91,1.49-5.37,1.53-8.53,1.3-3.16-3.17,13.24-20.45,13.93-25.97,1.27-10.11-11.18-27.48-11.64-38.78h-3.43s-20.64,50.5-20.64,50.5c-6.83,13.64-19.02,22.58-33.65,12.45-9.11-6.31-9.17-16.41-12.82-25.34-.53-1.31-.87-3.39-2.85-2.91-1.52.37-10.81,23.88-13.52,28.12-8.6,13.44-25.35,24.37-40.2,12.86-8.88-6.89-13.39-37.22-14-48.44-3.79-69.63,23.82-112.29,42.04-174.3,4.06-13.82-9.41,3.62-11.9,6.6-26.3,31.47-48.54,74.85-64.17,112.75-7.97,19.33-13.72,41.11-22.38,59.71-4.93,10.59-6.55,16.54-20.38,14.19-8.99-1.53-12.38-14.65-13.21-22.63-2.41-23.02,2.66-45.5,8.53-67.5,7.11-26.63,16.98-52.63,26.02-78.62-2.41-1.83-9.75,6.77-11.53,8.69-38.03,40.96-58.11,100-75.76,152.03-14.29,6.91-18.29-11.93-19.13-22.51-3.22-40.68,9.05-84.77,25.27-121.66,3.08-7.01,17.73-37.69,23.35-40.25,5.07-2.3,16.61.11,16.19,6.81-.24,3.89-9.53,23.22-11.6,28.99-8.35,23.31-19.1,54.22-22.15,78.55-.17,1.39-1.41,3.32.79,4.14s1.9-1.92,2.52-3.19c17.34-34.93,30.38-64.89,57.57-93.95,2.86-3.05,17.3-17.47,19.91-18.25,6.33-1.89,14.82.03,16.92,6.89,2.56,8.36-1.4,24.5-3.27,33.36-7.26,34.48-20.72,68.56-26.9,103.52l3.17,1.69c17.18-44.95,37.83-91.91,66.14-131.03,6.95-9.6,32.98-42.48,43.43-44.49,7.9-1.52,16.64,3.43,17.66,11.87,2.47,20.28-20.05,74.54-26.29,97.49-12.11,44.52-17.63,89.36-13.04,135.55ZM274.59,348.68c-.93-11.2,6.75-19.63,7.95-29.9-26.01-13.39-38.08,31.22-7.95,29.9ZM859.76,427.96l-43.45,37.5c-36.76.87-72.56-7.07-108.61-12.75-3.67-.46-3.27-2.84-2.43-5.76,3.68-12.75,11.46-28.26,15.97-41.87,6.92-20.86,12.39-42.24,18.85-63.25,18.36-14.22,35.88-30.08,48.39-49.9,8.16-12.92,21.33-36.64,13.62-51.59-9.96-19.33-31.78-.39-40.67,9.51-37.27,41.52-49.77,112.35-66.79,164.47-2.74,8.39-7.55,25.04-12.02,31.92-4.95,7.63-33.51,2.16-33.49,18.65,0,7.88,7.5,11.34,14.56,12.15,16.04,1.83,25.1-3.72,33.2-17.1l1.46-.34c28.52,1.18,56.23,10.64,84.6,13.82,8.13.91,17.59.69,25.87,1.32-13.88,17.89-34.89,43.29-32.24,67.51,2.26,20.71,27.97,24.17,43.85,16.35,44.08-21.7,46.22-80.89,58.1-122.28,1.4-4.87,3.64-14.65,5.72-18.56,1.1-2.07,19.97-19.79,21.36-20.27,1.2-.41,2.57-.23,3.81-.23-5.33,15.34-11.4,54.01,9.22,59.57,4,1.08,7.53,1,10.28-2.5,4.01-5.11,9.31-23.87,12.67-31.27,2.6-5.72,5.8-12.27,8.85-17.75.79-1.42,10.82-20.24,13.32-17.31-2.37,21.46-17.86,80.98.09,96.46,4.59,3.95,13.83,4.88,17.52-.8,4.56-7.03,10.04-25.92,12.76-34.65,1.84-5.92,3.73-12.02,4.32-18.24,2.44-.34,1.87-.12,2.58,1.46,4.43,9.9,5.3,25.68,19.93,27.47,24.51,3,31.24-18.95,38.47-37.9,5.32-13.93,9.63-28.55,13.01-43.06-1.36.09-2.48-.61-3.55.71-2.49,3.08-7.71,20.1-10.12,25.5-4.06,9.11-18.34,42.28-25.01,46.69-6,3.97-7.15-6.59-7.55-11.07-3.34-37.16,5.47-79.32,21.28-112.81,6.64-3.14,24.73-.57,29.59-5.09,4.17-3.88-5.13-8.16-8.31-9.07-4.43-1.26-10.18-1.38-14.83-1.95-1.37-.96,17.04-23.93-5.15-25.49-14.5-1.02-14.32,13.96-20.06,23.99-3.8,6.63-10.67,6.38-17.57,7.28-1.86-1.91,7.6-16.05,9.08-19.24,5.51-11.86,15.16-32.77,5.3-44.29-16.8-19.61-47.82,7.47-60.08,20.73-19.27,20.85-33.76,47.97-43.37,74.58-3.17,8.77-6.41,26.23-9.89,32.89-.97,1.85-8.21,8.66-10.29,10.52-1.1.98-10.26,8.94-11.01,8.06-1.32-9.78,12.02-24.47-2.3-28.4-8.78-2.41-12.62,13.54-16.41,19.52-4.56,7.2-21.71,28.66-28.13,33.16-2.01,1.41-3.67,2.72-6.35,2.31-1.51-22.81,14.7-53.99,33.6-66.41,13.05-8.57,12.58,3.16,24.21,2.81,1.88-8.27-10.57-15.44-17.28-16.83-54.01-11.2-61.46,73.17-86.31,102.3-6.6,7.73-6.55,2.63-6.72-4.38-.64-26.94,15.23-63.54,12.08-87.5-1.15-8.73-15.96-10.42-19.97-3.67-8.35,14.06-16.67,63.53-14.48,79.74,1.87,13.82,9.45,30.68,26.08,26.68,13.76-3.31,21.58-29.8,25.66-41.99,5.29-1.08,4.65,4.71,6.46,7.98,5.74,10.38,18.6,13.64,28.61,6.87,4.43-3,5.75-9.18,11.16-10.22l-1.09,5.26ZM796.56,252.87c-.52,26.88-28.88,59.85-49.58,75-2.71-.53,0-7.03.51-8.72,4.13-13.73,12.11-31.93,19.1-44.49,3.22-5.79,18.16-29.42,23.39-30.98,6.83-2.04,6.68,4.08,6.58,9.19ZM1015.53,288.86c-2.64,7.05-12.77,27.19-17.81,31.95-5.84,5.53-2.23,3.05-5.7,9.29-5.48,9.83-40.67,41.26-51.3,43.53-1.58.34-3.25,1.1-4.72-.06-1.63-.96.22-4.76.62-6.37,7.77-31.15,35.02-81.51,60.13-101.74,5.97-4.81,14.47-10.23,22.37-9.12,3.62,9.87,0,22.91-3.6,32.53ZM982.25,404.75c.76-9.96,1.63-29.46-13.26-28.38-18.61,1.34-33.05,47.1-41.61,61.39-.85,1.42-1.35,3.62-3.49,3.45-3.4.07,6.04-53.29,8.3-57.54l1.14-1.53c25.77-7.65,45.86-26.76,62.81-46.75l20.08-1.56,1.45,2.23c-11.93,39.62-18.29,80.84-31.36,120.18-1.69,5.09-5.32,16.64-8.66,20.25-1.08,1.16-1.63,2.12-3.47,1.72-3.13-24.89,6.25-49.48,8.07-73.44ZM856.18,445.22c-10.33,31.77-14.13,71.41-39.88,95.38-18.95,17.65-27.42,16.05-24.81-12.09,2.31-24.83,38.26-67.16,57.78-82.14,1.35-1.03,2.55-2.22,4.24-2.73l2.66,1.57ZM796.76,305.98c-17.49,2.55-15.44,34.51,5.13,31.16-3-11.12,16.93-34.37-5.13-31.16ZM565.06,348.33c-1.76,4.98-10.94,15.59-2.58,18.36,10.53,3.48,19.86-13.3,20.86-22.04.75-6.51-.05-13.39-2.57-19.4-4.23-10.05-10.92-8.32-8.71-21.95,1.17-7.24,14.59-30.51-.86-27.46-5.92,1.17-9.91,20.97-13.25,26.11-2.28,1.6-8.86-1.53-12.2-1.8-29.94-2.42-59,19.2-54.62,51.15,2.49,18.2,16.8,25.36,30.9,33.83-14.08,7.7-25.48,12.65-35.12,26.14-25.13,35.18-5.72,60.14,29.99,72.67,1.81,4.85-1.72,27.29,3.51,28.92,8.87.81,5.73-23.36,8.75-25.24,26.01,2.04,61.78-5.34,64.57-36.6,2.1-23.58-7.61-42.03-32.98-43.35-3.47-.18-10.82-.03-10.93,4.63,13.19,2.69,22.82,1.03,25.31,16.89,5,31.83-11.38,51.13-43.82,49.03-.46-5.19.74-10.19,1.52-15.25,2.67-17.32,6.6-38.12,10.83-55.08.61-2.43,1.55-8.23,2.58-9.85,1.14-1.78,5.07-1.4,5.79-3.84.65-2.21-2.44-5.69-2.76-8.31-.23-1.9.51-4.25.87-6.19,3.09-16.86,11.06-34.48,14.42-51.5l2.58-1.47c.76,7.38.39,14.58-2.09,21.61ZM538.21,381.04c-47.33-6.84-26.98-75.21,15.07-69.36l-15.07,69.36ZM520.89,473.58c-3.9,3.74-19.62-12.05-21.08-16.5-7.3-22.2,11.27-48.29,32.64-54.04l-11.56,70.53Z"/>
  <g>
    <path class="cls-2" d="M213.29,486.31c12.67,55,31.36,113.14,71.7,154.37,4.22,4.32,19.63,15.58,21.44,19.03.73,1.4.84,2.06-.56,2.95-2.13,1.34-16.42,1.1-20.21,1.76-5.84,1.02-10.31,7.56-16.53,4.85-2.7-1.18-16.05-15.1-18.78-18.25-36.55-42.22-53.67-104.66-64.8-158.37,9.73-1.13,18.61-2.81,27.73-6.35Z"/>
    <path class="cls-4" d="M262.3,5.43c-24.94-11-59.81-4.53-80.75,12.58-2.05,1.68-12.55,11-8.73,13.3,2.62,1.58,18.66,2.29,23.4,3.2,16.15,3.1,32,8.51,46.79,15.65,3.17,1.53,7.61,3.01,9.62,5.97-24.38-3.21-47.96-4.83-71.32,4.43-24.64,9.77-59.32,42.89-66.64,68.64-.31,1.1-2.18,8.34.93,6.72,8.45-10.14,22.86-17.31,34.87-22.96,28.68-13.49,57.59-19.97,89.46-15.19,1.44,1.25-.08,2.04-1.44,2.6-3.23,1.33-8.45,1.38-12.43,2.6-50.68,15.57-103.84,71.01-98.29,127.17.27,2.71,3.54,18.11,8.12,15.08,1.2-.79,11.66-20.71,14.55-24.77,6.09-8.59,21.72-22.36,25.2-29.15,2.22-4.35,2.69-10.19,4.74-14.91.82-1.9,7.88-15.17,8.63-15.65,1.15-.72,2.25-.61,3.51-.53-1.58,3.44-3.41,7.77-1.74,11.55,24.65-21.06,53.1-42.48,84.4-52.04,1.31.09.5,2.59.01,3.48-2.82,5.19-16.5,17.7-21.36,23.74-17.12,21.25-31.92,46.4-40.48,72.21,7.46,1.72,15.53,2.54,21.38,8.1l1.16-1.13c12.35-32.2,29.03-67.67,52.01-93.68,8.86-10.03,9.55-13.74,17.38,0,7,12.28,11.4,27.31,16.9,40.34,8.05,1.43,8.89-6.15,12.01-11.44.88-1.49-.21-2.91,2.87-2.28,2.25,8.59-5.98,22.1-4.62,29.43.41,2.22,5.88,8.48,7.5,12.2,3.19,7.37,3.81,15.56,6.4,23.1,3.62,2.51,13.49-12.46,15.2-15.4,3.16-5.44,4.47-10.98,6.96-16.17.64-1.33,1.56-2.83,2.69-.81,1.31,2.34.91,23.17.55,27.18-.73,8.03-4.18,16.91-4.63,24.3-.1,1.68-.16,2.11,1.76,1.75,3.64-.69,22.12-19.16,25.44-23.13,25.67-30.78,22.45-67.95-2.94-97.69-9.41-11.02-21.69-15.95-32.34-24.88,12.85.39,25.94,1.74,38.4,4.95,6.2,1.6,20.61,8.75,24.6,8.95,4.25.21.3-7.99,1.12-9.3,2.52-4.02,11.33,4.08,13.35,6.38,2.85,3.23,5.96,11.97,7.76,13.36,1.18.91,24.05,12.14,25.43,12.44.89.2,1.75.32,2.65.21.4-.35.06-6.96,2.88-5.77,5.18,2.86,5.31,10.21,8.17,13.81,1.81,2.27,7.33,5.24,9.79,7.56,6.66,6.28,15.29,16.88,21.95,21.99,1.16.89,1.47,2.24,3.47,1.72,10.6-54.65-35.95-89.45-84.17-99.1-25.32-5.07-51.93-5.07-77.7-4.98l8.62-4.66c28.23-10.13,70.77-11.99,100.31-7.71,13.74,1.99,26.83,6.8,40.22,10.06.5-2.18-1.23-2.74-2.31-4.04-27.57-33.58-92.2-49.65-132.93-36.96-16.06,5-38.17,17.85-50.22,29.56-1.89,1.83-6.04,10.23-8.78,7.97-5.36-25.02-26.02-49.68-49.32-59.96Z"/>
    <path class="cls-3" d="M300.05,672.47c9.68-4.38,14.08,3.66,20.91,8.56,86.8,62.31,184.33,89.07,291.51,70.85,146.15-24.85,267.93-139.31,296.96-285.25l9.11,3.06c1.67,4.86-8.95,35.8-11.4,42.64-86.72,241.66-394.71,339.53-596.57,172.16-2.21-1.83-12.44-9.17-10.51-12.01ZM467.7,12.77c-3.53.77-27.72,6.33-27.72,8.11.48.78,1.16,1.09,1.93,1.51,13.62,7.4,38.56-2.2,54.27-4.25,188.84-24.69,366.42,93.72,411.3,278.72,2.3,9.5,3.74,27.23,6.83,34.8.73,1.79,1.13,2.56,2.61.83s6.34-12.19,6.45-14.45c.56-12.39-12.83-51.2-17.71-64.45C845.26,89.79,687.19-6.03,513.73,5.61c-14.73.99-31.57,4-46.03,7.16Z"/>
    <path class="cls-5" d="M680.46,699.06c.64,3.08-.78,1.99-2.28,2.87-77.13,45.33-199.79,42.94-275.58-4.29-1.55-.97-4.65-1.68-4.29-3.77l40.75,13.59c78.25,19.8,165.37,20.55,241.39-8.4ZM581.65,697.95c-67.32,3.38-107.14-5.34-169.79-24.57-1.08-.33-3.89-1.95-4.29-.33l13.11,8.86c72.23,40.11,181.45,40.04,252.88-1.95,1.5-.88,2.91.21,2.28-2.87-30.17,10.64-61.97,19.24-94.19,20.86ZM454.99,664.94l-38.17-12.71,19.64,12.73c64.53,34.79,164.62,34.26,226.57-5.9,1.88-1.22,5.05-2.33,4.72-5.1-66.7,28.25-143.25,30.16-212.75,10.98ZM472.09,646.68c-12.15-2.94-24.49-8.68-36.75-9.5,49.67,26.29,109.12,34.12,164.2,21.99,16.99-3.74,39.05-10.82,53.55-20.45,2.12-1.41,6.47-3.88,6.56-6.73-59.91,24.4-124.47,29.95-187.56,14.69ZM609.03,625.88c-52.57,14.65-101.21,9.45-152.61-6.3-2.07-.63-18.34-7.35-18.78-5.5-.46,1.96,4.97,4.14,6.54,5.03,57.67,32.65,136.25,33.24,193.54-.43,1.5-.88,2.91.21,2.28-2.87-10.57,2.48-20.51,7.16-30.96,10.07ZM486.2,604.83c-11.15-2.4-21.61-6.69-32.29-9.34-1.6-.4-3.99-1.69-3.55,1.22,46.06,24.85,105.78,32.48,155.55,14.49,9.84-3.56,22.04-8.84,29.46-16.2-47.84,18.74-99.12,20.59-149.18,9.83ZM488.3,580.75c-11.62-2.54-22.78-6.7-34.47-8.88,7.12,6.68,19.3,11.37,28.66,14.69,41.37,14.64,96.57,16.7,134.39-8.37,1.33-.88,2.99.29,2.3-2.86-41.52,15.49-87.95,14.79-130.87,5.42ZM484.84,558.78c-4.92-1.03-10.94-3.78-15.51-4.16-2.42-.21-3.19-.78-2.77,2.2,40.03,19.31,113.23,28.48,149.99-.88,1.36-1.09,3.17-1.31,2.63-3.72-42.46,19.37-89.76,15.92-134.34,6.57ZM584.22,540.94c-38.22,10.5-66.16,3.06-102.29-7.01-1.71-.48-3.1-.9-2.64,1.49,35.64,24.22,97.87,28.71,131.2-1.75,1.41-1.29,3.31-2.32,2.92-4.58-9.46,4.6-18.95,9.05-29.18,11.86ZM479.27,145.19l-1.12,5.22-26.61,8.64c-.52-2.39,1.23-2.63,2.62-3.72,3.04-2.39,22.99-12.33,25.12-10.14ZM501.22,165.41c-1.32-1.1-2.64-3.43-4.28-3.88-3.83-1.05-25.84,9.3-30.42,11.99-1.5.88-2.91-.21-2.28,2.87l36.97-10.98ZM656.72,82.2c-45.51-18.8-95.92-21.49-144.44-15.59l-.06,6.89c-6.24,1.76-12.54-3.45-17.91-3.49-5.99-.04-15.14,4.95-21.4,5.81-1.54,2.05,8.02,7.38,9.86,8.06,57.92-10.28,121.65-11.65,178.34,5.5,7.48,2.26,14.59,5.42,21.86,8.22l1.53-2.12c-9.48-4.04-18.22-9.33-27.78-13.28ZM591.87,43.57c-31.87-3.44-67.2-2.14-98.71,3.33-1.49,1.68,9.15,10.06,11.03,10.4,4.58.84,15.27-2.14,20.72-2.37,38.84-1.59,81.92-1.08,119.74,7.55,14.03,3.2,27.85,7.6,41.06,13.31l1.71-2.29c-29.94-15.27-61.86-26.3-95.54-29.93ZM493.15,92c-1.54,2.24,5.01,8.94,7.58,9.27,57.99-9.71,119.6-5.74,173.59,18.28l1.52-2.11c-53.5-33.81-121.76-40.58-182.69-25.45ZM658.85,132.69c-32.36-20.33-84.92-25.87-122.39-23.4-3.59.24-24.14,2.97-24.8,5.31-2.3,8.14,13.36,4.03,16.7,3.94,22.58-.55,45.82-.72,68.08,2.55,23.65,3.48,46.57,10.41,68.99,18.3,1.86-1.71-5.51-6.03-6.58-6.7ZM539.93,174.04c-5.96.38-17.49.37-18.55,7.08-8.32-2.26-13.44-.71-21.25,1.68-8.94,2.73-20.92,7.95-28.98,12.69-1.5.88-2.91-.21-2.28,2.87,15.41-3.73,30.52-8.32,46.22-11.01,32.55-5.56,61.8-6.06,93.94,2.09,5.08,1.29,11.91,4.86,16.58,5.41,2.28.27,1.74-.31,1.67-2.26-27.6-15.06-55.82-20.58-87.35-18.57ZM619.54,210.16c-38.77-23.15-101.98-16.84-140.26,4.98.75,1.39,3.41.3,4.66.04,10.33-2.16,20.42-5.49,30.94-7.22,38.46-6.32,77.56-6.4,113.56,10.06,1.77-1.65-7.69-7.15-8.89-7.86ZM614.94,232.1c-36.02-26.88-87.76-20.6-124.1,2.14-.1,1.64-.57,2.77,1.59,2.18,5.17-1.43,11.17-4.77,16.88-6.26,33.58-8.77,65.93-9.52,98.61,3.18,5.02,1.95,9.44,5.38,14.72,6.66-.57-3.08-5.29-6.09-7.71-7.89ZM523.13,131.97l1.95,7.49c30.33-2.58,59.29-1.88,88.82,5.8,10.02,2.6,20.96,8.05,30.39,10.09,2.45.53,3.03.72,2.64-2.07-38.07-19.72-81.07-30.7-123.8-21.32ZM570.62,150.97c-5.32-.34-41.4-.64-42.24,3.07l.04,7.33c38.68-.78,76.95-1.63,112.77,15.02l1.7-2.29c-22.25-12.36-46.56-21.51-72.27-23.14ZM445.76,63.66c5.38,5.88,14.06,4.04,19.63-.56-6.35-1.09-14.22-5.07-19.63.56Z"/>
  </g>
</svg>