<?xml version="1.0" encoding="UTF-8"?>
<!DOCTYPE svg PUBLIC "-//W3C//DTD SVG 1.1//EN" "http://www.w3.org/Graphics/SVG/1.1/DTD/svg11.dtd">
<svg xmlns="http://www.w3.org/2000/svg" version="1.1" width="473px" height="473px" style="shape-rendering:geometricPrecision; text-rendering:geometricPrecision; image-rendering:optimizeQuality; fill-rule:evenodd; clip-rule:evenodd" xmlns:xlink="http://www.w3.org/1999/xlink">
<g><path style="opacity:0.132" fill="#0a0a0a" d="M 193.5,10.5 C 218.9,6.12899 238.733,14.4623 253,35.5C 267.765,61.3317 272.765,88.9983 268,118.5C 259.375,171.441 230.375,208.107 181,228.5C 178.113,255.501 169.113,280.168 154,302.5C 147.602,310.573 139.769,316.74 130.5,321C 114.504,325.766 100.338,322.6 88,311.5C 80.4697,300.971 80.803,290.637 89,280.5C 91.6259,277.769 94.7926,275.936 98.5,275C 107.621,273.709 116.787,272.875 126,272.5C 134.515,273.502 143.015,273.502 151.5,272.5C 155.902,259.822 158.902,246.822 160.5,233.5C 126.133,239.1 96.9666,229.433 73,204.5C 65.9377,195.706 61.6043,185.706 60,174.5C 59.1681,162.794 59.5014,151.128 61,139.5C 61.9438,130.736 66.4438,124.736 74.5,121.5C 76.0293,121.529 77.196,122.196 78,123.5C 78.6667,126.167 78.6667,128.833 78,131.5C 65.2561,168.831 76.4228,196.331 111.5,214C 127.996,219.463 144.663,219.963 161.5,215.5C 162.251,214.624 162.751,213.624 163,212.5C 163.16,173.528 162.66,134.528 161.5,95.5C 160.475,75.3632 162.975,55.6965 169,36.5C 173.653,24.352 181.819,15.6853 193.5,10.5 Z M 209.5,24.5 C 226.46,26.9479 237.96,36.2812 244,52.5C 255.211,80.7804 255.211,109.114 244,137.5C 232.156,169.002 211.489,192.669 182,208.5C 182.02,198.683 182.186,188.85 182.5,179C 181.405,151.003 180.405,123.003 179.5,95C 178.933,78.2979 180.433,61.7979 184,45.5C 187.651,32.3293 196.151,25.3293 209.5,24.5 Z M 116.5,289.5 C 124.84,289.334 133.173,289.5 141.5,290C 133.299,299.693 122.966,305.859 110.5,308.5C 102.549,307.87 97.2158,303.87 94.5,296.5C 95.1279,294.742 96.1279,293.242 97.5,292C 103.966,291.071 110.299,290.237 116.5,289.5 Z"/></g>
<g><path style="opacity:0.959" fill="#f8f8f8" d="M 198.5,11.5 C 217.006,9.94302 232.506,15.943 245,29.5C 265.272,57.4274 271.939,88.4274 265,122.5C 254.888,173.096 226.055,208.096 178.5,227.5C 175.44,255.86 165.607,281.526 149,304.5C 134.172,321.503 116.672,325.003 96.5,315C 81.8047,304.449 80.8047,292.782 93.5,280C 95.7173,278.725 98.0506,277.725 100.5,277C 118.129,275.752 135.795,275.086 153.5,275C 158.424,260.548 161.758,245.714 163.5,230.5C 128.601,237.698 99.1014,228.365 75,202.5C 60.4117,180.768 57.4117,157.434 66,132.5C 68.1634,128.492 71.3301,125.826 75.5,124.5C 73.7825,132.829 71.9491,141.162 70,149.5C 68.5,184.999 84.6667,208.166 118.5,219C 133.969,221.368 149.302,220.701 164.5,217C 165.393,181.236 165.393,145.403 164.5,109.5C 164.395,92.4705 164.895,75.4705 166,58.5C 167.153,41.6952 173.986,27.8619 186.5,17C 190.451,14.8548 194.451,13.0214 198.5,11.5 Z M 209.5,24.5 C 196.151,25.3293 187.651,32.3293 184,45.5C 180.433,61.7979 178.933,78.2979 179.5,95C 180.405,123.003 181.405,151.003 182.5,179C 182.186,188.85 182.02,198.683 182,208.5C 211.489,192.669 232.156,169.002 244,137.5C 255.211,109.114 255.211,80.7804 244,52.5C 237.96,36.2812 226.46,26.9479 209.5,24.5 Z M 116.5,289.5 C 110.299,290.237 103.966,291.071 97.5,292C 96.1279,293.242 95.1279,294.742 94.5,296.5C 97.2158,303.87 102.549,307.87 110.5,308.5C 122.966,305.859 133.299,299.693 141.5,290C 133.173,289.5 124.84,289.334 116.5,289.5 Z"/></g>
<g><path style="opacity:0.134" fill="#0b0b0b" d="M 201.5,22.5 C 219.252,20.7931 232.752,27.4598 242,42.5C 252.674,62.5366 256.674,83.87 254,106.5C 248.17,148.359 228.004,181.193 193.5,205C 189.167,207.167 184.833,209.333 180.5,211.5C 179.369,162.528 178.535,113.528 178,64.5C 178.576,50.7607 183.076,38.594 191.5,28C 194.767,25.8703 198.1,24.037 201.5,22.5 Z M 209.5,24.5 C 196.151,25.3293 187.651,32.3293 184,45.5C 180.433,61.7979 178.933,78.2979 179.5,95C 180.405,123.003 181.405,151.003 182.5,179C 182.186,188.85 182.02,198.683 182,208.5C 211.489,192.669 232.156,169.002 244,137.5C 255.211,109.114 255.211,80.7804 244,52.5C 237.96,36.2812 226.46,26.9479 209.5,24.5 Z"/></g>
<g><path style="opacity:0.134" fill="#101010" d="M 291.5,128.5 C 300.027,126.559 305.36,129.726 307.5,138C 301.075,155.878 296.908,174.378 295,193.5C 291.783,221.775 289.283,250.108 287.5,278.5C 319.268,280.187 350.935,283.021 382.5,287C 390.706,289.057 393.706,294.224 391.5,302.5C 356.702,297.761 321.702,294.761 286.5,293.5C 282.159,346.436 280.992,399.436 283,452.5C 286.05,461.452 282.883,464.619 273.5,462C 268.655,458.811 265.822,454.311 265,448.5C 263.208,396.434 264.374,344.434 268.5,292.5C 235.817,291.603 203.15,290.436 170.5,289C 169.941,288.275 169.608,287.442 169.5,286.5C 170.649,281.864 172.649,277.697 175.5,274C 206.865,274.168 238.198,275.335 269.5,277.5C 271.638,232.145 276.805,187.145 285,142.5C 286.907,137.687 289.074,133.02 291.5,128.5 Z"/></g>
<g><path style="opacity:0.958" fill="#f8f8f8" d="M 293.5,130.5 C 299.314,130.234 303.314,132.734 305.5,138C 300.575,147.948 297.408,158.448 296,169.5C 290.411,206.649 286.578,243.983 284.5,281.5C 317.991,282.525 351.325,285.358 384.5,290C 387.284,292.112 389.284,294.779 390.5,298C 389.709,300.734 388.376,301.068 386.5,299C 352.258,295.266 317.925,292.766 283.5,291.5C 281.169,329.135 279.503,366.801 278.5,404.5C 278.556,421.181 279.056,437.847 280,454.5C 282.478,457.738 281.811,459.738 278,460.5C 272.691,459.191 269.357,455.857 268,450.5C 265.652,429.892 264.985,409.225 266,388.5C 267.487,355.83 268.987,323.164 270.5,290.5C 237.473,289.855 204.473,288.521 171.5,286.5C 173.406,283.36 174.74,280.027 175.5,276.5C 207.516,277.012 239.516,278.012 271.5,279.5C 274.136,234.531 279.303,189.865 287,145.5C 288.648,140.21 290.815,135.21 293.5,130.5 Z"/></g>
<g><path style="opacity:0.126" fill="#121212" d="M 105.5,287.5 C 118.85,287.167 132.183,287.501 145.5,288.5C 136.448,301.105 124.281,308.439 109,310.5C 99.9494,309.945 94.4494,305.279 92.5,296.5C 92.4858,294.407 93.1524,292.574 94.5,291C 98.1016,289.243 101.768,288.076 105.5,287.5 Z M 116.5,289.5 C 110.299,290.237 103.966,291.071 97.5,292C 96.1279,293.242 95.1279,294.742 94.5,296.5C 97.2158,303.87 102.549,307.87 110.5,308.5C 122.966,305.859 133.299,299.693 141.5,290C 133.173,289.5 124.84,289.334 116.5,289.5 Z"/></g>
</svg>
