<?xml version="1.0" encoding="UTF-8"?>
<!DOCTYPE svg PUBLIC "-//W3C//DTD SVG 1.1//EN" "http://www.w3.org/Graphics/SVG/1.1/DTD/svg11.dtd">
<svg xmlns="http://www.w3.org/2000/svg" version="1.1" width="473px" height="473px" style="shape-rendering:geometricPrecision; text-rendering:geometricPrecision; image-rendering:optimizeQuality; fill-rule:evenodd; clip-rule:evenodd" xmlns:xlink="http://www.w3.org/1999/xlink">
<g><path style="opacity:0.959" fill="#fff" d="M 198.5,11.5 C 217.006,9.94302 232.506,15.943 245,29.5C 265.272,57.4274 271.939,88.4274 265,122.5C 254.888,173.096 226.055,208.096 178.5,227.5C 175.44,255.86 165.607,281.526 149,304.5C 134.172,321.503 116.672,325.003 96.5,315C 81.8047,304.449 80.8047,292.782 93.5,280C 95.7173,278.725 98.0506,277.725 100.5,277C 118.129,275.752 135.795,275.086 153.5,275C 158.424,260.548 161.758,245.714 163.5,230.5C 128.601,237.698 99.1014,228.365 75,202.5C 60.4117,180.768 57.4117,157.434 66,132.5C 68.1634,128.492 71.3301,125.826 75.5,124.5C 73.7825,132.829 71.9491,141.162 70,149.5C 68.5,184.999 84.6667,208.166 118.5,219C 133.969,221.368 149.302,220.701 164.5,217C 165.393,181.236 165.393,145.403 164.5,109.5C 164.395,92.4705 164.895,75.4705 166,58.5C 167.153,41.6952 173.986,27.8619 186.5,17C 190.451,14.8548 194.451,13.0214 198.5,11.5 Z M 209.5,24.5 C 196.151,25.3293 187.651,32.3293 184,45.5C 180.433,61.7979 178.933,78.2979 179.5,95C 180.405,123.003 181.405,151.003 182.5,179C 182.186,188.85 182.02,198.683 182,208.5C 211.489,192.669 232.156,169.002 244,137.5C 255.211,109.114 255.211,80.7804 244,52.5C 237.96,36.2812 226.46,26.9479 209.5,24.5 Z M 116.5,289.5 C 110.299,290.237 103.966,291.071 97.5,292C 96.1279,293.242 95.1279,294.742 94.5,296.5C 97.2158,303.87 102.549,307.87 110.5,308.5C 122.966,305.859 133.299,299.693 141.5,290C 133.173,289.5 124.84,289.334 116.5,289.5 Z"/></g>
<g><path style="opacity:0.958" fill="#fff" d="M 293.5,130.5 C 299.314,130.234 303.314,132.734 305.5,138C 300.575,147.948 297.408,158.448 296,169.5C 290.411,206.649 286.578,243.983 284.5,281.5C 317.991,282.525 351.325,285.358 384.5,290C 387.284,292.112 389.284,294.779 390.5,298C 389.709,300.734 388.376,301.068 386.5,299C 352.258,295.266 317.925,292.766 283.5,291.5C 281.169,329.135 279.503,366.801 278.5,404.5C 278.556,421.181 279.056,437.847 280,454.5C 282.478,457.738 281.811,459.738 278,460.5C 272.691,459.191 269.357,455.857 268,450.5C 265.652,429.892 264.985,409.225 266,388.5C 267.487,355.83 268.987,323.164 270.5,290.5C 237.473,289.855 204.473,288.521 171.5,286.5C 173.406,283.36 174.74,280.027 175.5,276.5C 207.516,277.012 239.516,278.012 271.5,279.5C 274.136,234.531 279.303,189.865 287,145.5C 288.648,140.21 290.815,135.21 293.5,130.5 Z"/></g>
</svg>
